<?xml version="1.0" standalone="no"?>
<!DOCTYPE svg PUBLIC "-//W3C//DTD SVG 20010904//EN"
 "http://www.w3.org/TR/2001/REC-SVG-20010904/DTD/svg10.dtd">
<svg version="1.0" xmlns="http://www.w3.org/2000/svg"
 width="700.000000pt" height="700.000000pt" viewBox="0 0 700.000000 700.000000"
 preserveAspectRatio="xMidYMid meet">
<metadata>
Created by potrace 1.14, written by Peter Selinger 2001-2017
</metadata>
<g transform="translate(0.000000,700.000000) scale(0.100000,-0.100000)"
fill="#000000" stroke="none">
<path d="M3357 5664 c-1 -1 -36 -4 -77 -7 -304 -22 -665 -137 -953 -303 -65
-38 -200 -127 -242 -161 -163 -130 -313 -277 -435 -428 -281 -345 -496 -826
-536 -1200 -3 -33 -8 -73 -11 -90 -3 -16 -6 -111 -8 -210 -3 -184 2 -245 34
-430 6 -33 14 -80 17 -105 12 -85 27 -138 74 -255 18 -44 46 -118 62 -165 32
-90 111 -247 161 -316 47 -68 44 -72 -154 -139 -180 -62 -266 -100 -283 -128
-17 -27 0 -29 68 -8 37 11 88 23 114 27 26 3 83 14 127 25 44 10 91 20 105 23
14 2 63 11 110 20 47 8 101 18 120 21 19 3 46 7 60 10 14 2 45 7 70 10 25 3
56 8 70 10 53 9 112 16 280 30 36 3 85 7 110 10 25 2 83 7 130 10 47 3 105 8
130 10 25 2 88 7 140 11 52 3 112 7 133 9 301 27 1056 27 1354 0 21 -2 72 -6
113 -9 70 -5 114 -9 295 -21 39 -3 104 -7 145 -10 95 -7 185 -15 212 -20 12
-3 42 -7 67 -10 25 -3 60 -7 76 -9 17 -2 59 -7 95 -11 36 -4 74 -9 85 -11 11
-2 45 -6 75 -10 53 -5 204 -29 245 -38 11 -2 52 -12 90 -21 212 -49 375 -74
375 -57 0 15 -30 34 -105 65 -149 63 -242 94 -339 111 -45 8 -53 22 -29 48 56
62 185 336 246 523 78 238 113 404 117 555 10 326 4 420 -39 639 -134 682
-523 1259 -1101 1633 -226 147 -557 285 -770 322 -19 3 -46 8 -60 11 -25 5
-85 15 -130 21 -85 12 -422 26 -433 18z m383 -168 c41 -4 97 -12 124 -17 28
-5 65 -12 81 -15 47 -8 93 -20 190 -49 459 -136 897 -447 1182 -840 47 -64
163 -250 163 -260 0 -2 19 -44 43 -92 101 -206 168 -417 192 -603 3 -19 7 -45
10 -58 20 -103 27 -430 12 -572 -29 -271 -100 -508 -236 -785 -85 -171 -149
-265 -180 -265 -13 0 45 118 111 227 21 35 38 65 38 67 0 2 15 37 34 78 39 87
82 198 91 238 1 3 11 37 23 75 61 200 77 328 77 615 0 219 -5 268 -36 430
-132 674 -594 1273 -1201 1560 -245 115 -483 187 -683 206 -38 4 -83 8 -100
10 -49 6 -326 6 -375 0 -25 -4 -67 -9 -94 -12 -53 -6 -62 -8 -146 -25 -283
-58 -569 -176 -796 -329 -436 -295 -761 -753 -904 -1274 -12 -43 -24 -91 -26
-105 -2 -14 -6 -35 -9 -47 -3 -12 -7 -39 -10 -60 -4 -21 -8 -46 -10 -54 -23
-84 -23 -534 -1 -602 3 -7 7 -31 10 -53 3 -22 14 -80 25 -130 55 -254 134
-456 263 -674 38 -62 68 -117 68 -121 0 -4 -9 -10 -19 -13 -15 -4 -29 13 -71
82 -104 174 -214 422 -250 561 -31 122 -42 171 -59 268 -20 112 -34 259 -34
372 0 65 11 265 17 298 2 9 9 51 16 92 11 67 21 115 50 231 25 96 101 288 165
414 179 353 431 640 749 854 335 226 681 348 1066 377 47 3 86 7 87 8 5 5 287
-2 353 -8z m54 -107 c578 -97 1029 -356 1383 -794 232 -287 398 -657 449
-1000 3 -22 8 -51 10 -65 19 -114 24 -359 12 -500 -14 -148 -56 -351 -103
-495 -29 -87 -33 -98 -107 -255 -45 -96 -173 -310 -185 -310 -3 0 -26 15 -52
34 -25 18 -66 44 -90 56 -43 21 -45 21 -58 4 -7 -10 -13 -22 -13 -27 0 -4 -4
-6 -9 -2 -6 3 -8 15 -6 27 7 33 -4 39 -36 22 -17 -8 -32 -14 -33 -12 -1 2 -7
16 -14 32 -10 23 -15 26 -27 16 -10 -9 -29 -10 -58 -6 -23 4 -52 7 -64 7 -16
-1 -23 7 -28 29 -7 33 -25 39 -45 15 -16 -19 -30 -19 -30 0 0 19 -19 20 -26 2
-4 -12 -13 -11 -52 1 -26 8 -55 22 -65 31 -15 12 -20 13 -26 2 -5 -8 -17 -11
-29 -7 -11 4 -44 8 -75 10 -30 3 -64 9 -74 14 -10 5 -27 6 -37 3 -24 -9 -83
10 -110 36 -24 22 -71 40 -101 38 -11 -1 -33 -2 -48 -3 -16 -1 -39 -14 -52
-28 -21 -23 -26 -24 -31 -10 -5 12 -15 15 -44 11 -34 -4 -39 -2 -44 20 -6 24
-26 36 -26 15 0 -5 -15 -13 -32 -18 -18 -6 -40 -13 -49 -16 -10 -5 -19 1 -26
16 -8 19 -18 22 -74 24 -35 1 -67 2 -70 3 -27 5 -50 376 -28 456 6 20 31 63
57 95 53 67 80 75 126 39 20 -15 36 -19 69 -16 29 2 50 -2 68 -14 33 -23 75
-39 82 -32 3 3 -2 20 -10 39 -16 32 -16 34 5 52 12 11 22 24 22 29 0 19 -52
78 -82 94 l-31 16 -45 -46 c-46 -47 -65 -45 -39 6 22 40 58 72 93 79 25 5 35
0 62 -27 30 -31 35 -32 70 -23 26 7 44 7 55 0 12 -8 28 -5 60 11 33 16 47 19
56 10 16 -16 13 -27 -8 -27 -15 0 -22 -11 -29 -47 -6 -26 -8 -51 -6 -55 3 -4
24 -7 48 -6 23 0 53 -3 65 -7 l23 -7 -23 -24 -23 -25 22 -6 c13 -3 29 -18 38
-34 15 -31 36 -36 79 -19 36 14 80 111 64 141 -6 12 -8 23 -6 26 10 9 47 -22
58 -49 11 -26 64 -68 87 -68 18 0 42 30 42 54 0 61 57 72 80 16 15 -35 21 -36
80 -7 39 19 45 27 48 57 5 47 14 56 56 54 39 -2 48 11 16 21 -30 9 -24 33 15
69 55 50 48 69 -32 92 -38 10 -72 17 -77 16 -5 -2 -4 4 4 12 7 9 19 16 26 16
32 0 11 29 -35 49 -27 11 -53 21 -56 21 -7 0 -76 31 -85 37 -12 10 26 20 59
16 42 -5 70 -17 129 -56 l44 -29 29 28 c16 15 29 31 29 36 0 4 -18 8 -41 8
l-40 0 21 27 22 28 -27 22 c-14 13 -36 24 -48 24 -106 5 -122 4 -137 -11 -32
-32 -65 -50 -92 -50 -34 0 -35 4 -3 42 14 16 25 33 25 36 0 24 -87 50 -194 58
-63 5 -77 3 -82 -10 -3 -9 -10 -13 -16 -10 -5 3 -51 6 -101 6 -51 -1 -101 3
-112 8 -19 8 -18 9 5 10 14 2 28 2 33 1 4 0 7 6 7 14 0 14 3 14 31 0 37 -19
71 -16 75 7 4 32 -36 52 -166 85 -26 7 -35 14 -36 31 -2 27 -2 27 66 3 30 -11
85 -22 121 -26 71 -7 88 -2 145 43 28 22 30 28 24 63 -4 22 -4 39 0 39 33 0
137 -43 148 -61 12 -19 11 -24 -13 -49 -33 -34 -26 -39 65 -47 l70 -6 -5 69
c-3 38 -9 78 -12 89 -5 18 -4 19 12 5 10 -8 29 -25 41 -37 29 -29 40 -29 48 1
5 22 -10 84 -23 96 -3 3 -12 17 -20 31 -8 17 -27 31 -55 39 -22 7 -42 12 -44
11 -1 -1 -16 6 -33 14 -30 16 -30 18 -24 66 5 33 3 49 -4 49 -20 0 -11 17 15
29 21 9 31 9 49 -3 23 -15 35 -12 35 10 0 22 -143 67 -195 61 -36 -3 -48 -1
-53 12 -4 9 -13 26 -21 37 l-15 22 -64 -34 c-35 -19 -76 -34 -92 -34 -24 0
-28 4 -26 24 5 45 -6 51 -79 40 l-67 -10 6 28 c7 36 -8 43 -84 41 -30 -1 -62
3 -72 8 -11 6 -26 5 -42 -3 -22 -9 -29 -8 -46 7 -27 24 -25 37 8 57 27 17 27
17 69 -24 l42 -41 39 26 c46 32 82 34 107 7 21 -23 89 -25 91 -2 1 6 2 20 3
30 1 11 8 5 21 -19 10 -20 30 -43 44 -52 24 -16 26 -16 46 5 28 30 33 57 26
123 -3 30 -4 55 -1 55 2 0 18 -19 34 -42 57 -80 60 -83 73 -70 17 17 28 15 28
-6 0 -26 145 -51 167 -29 13 13 13 18 -1 40 -18 27 -49 42 -111 52 -37 6 -38
8 -20 21 10 8 24 14 31 14 7 0 25 5 41 11 l28 11 -25 13 c-14 8 -30 14 -36 15
-23 0 -87 32 -78 38 5 4 15 15 22 24 13 16 10 17 -38 11 l-51 -6 31 61 c18 33
29 65 25 71 -8 13 -64 8 -142 -13 -58 -15 -53 -19 -57 39 -3 40 -17 63 -54 88
-57 39 -152 87 -152 77 0 -5 -9 -14 -21 -20 -16 -9 -24 -8 -39 5 -13 12 -34
16 -72 15 -76 -2 -78 -2 -78 19 0 33 -8 35 -125 45 -44 3 -96 10 -115 16 -95
28 -119 21 -85 -24 23 -31 18 -42 -26 -56 -22 -8 -42 -16 -44 -20 -2 -3 1 -25
7 -48 6 -24 8 -46 4 -49 -3 -4 -22 1 -41 10 -35 17 -35 17 -20 46 22 44 19 51
-24 51 -45 0 -62 15 -29 24 27 6 14 24 -23 32 -43 9 -322 27 -434 28 -75 1
-86 -20 -25 -49 37 -18 40 -22 27 -39 -11 -15 -18 -16 -34 -8 -15 8 -38 7 -89
-4 -77 -18 -96 -25 -98 -39 -1 -20 51 -37 139 -44 5 -1 -6 -14 -25 -30 -37
-31 -57 -34 -196 -35 l-70 0 1 -38 c1 -21 10 -47 20 -58 18 -20 18 -20 -59
-20 l-76 0 6 -41 c6 -37 5 -41 -12 -36 -45 13 -165 30 -170 24 -4 -3 7 -17 22
-31 l29 -24 -29 -31 -29 -31 34 -14 c33 -14 81 -20 127 -17 18 1 22 5 17 20
-4 14 1 21 25 29 27 10 32 8 46 -13 21 -32 13 -51 -24 -60 -34 -7 -85 -54 -61
-56 8 -1 19 0 24 1 6 2 55 4 110 5 55 1 123 5 150 9 49 7 49 7 23 -9 -15 -8
-73 -31 -128 -49 -104 -35 -171 -41 -248 -21 -32 8 -33 7 -26 -19 6 -27 6 -27
-27 -21 -19 4 -58 10 -86 12 -60 5 -71 -11 -30 -44 39 -30 35 -38 -17 -34 -52
3 -53 1 -31 -51 6 -15 2 -18 -25 -18 -30 0 -31 -1 -25 -32 15 -71 25 -81 82
-82 29 -1 53 -5 54 -11 0 -5 -30 -17 -67 -27 -87 -22 -97 -32 -59 -63 29 -24
29 -26 12 -39 -18 -14 -18 -17 10 -65 15 -28 31 -51 36 -51 4 0 20 14 36 32
l28 31 38 -62 c35 -56 41 -62 64 -56 36 8 111 46 111 56 0 5 -16 23 -35 40
-19 18 -35 35 -35 38 0 4 12 20 28 36 l27 30 5 -35 c5 -33 7 -35 38 -32 18 2
32 -1 32 -7 0 -6 -5 -11 -10 -11 -19 0 -37 -60 -34 -111 2 -43 -1 -53 -27 -79
-17 -16 -41 -31 -55 -33 -34 -4 -44 -24 -32 -59 14 -40 4 -70 -32 -93 -59 -39
-21 -47 70 -15 80 28 87 25 46 -20 -20 -22 -36 -44 -36 -49 0 -9 47 -21 82
-21 11 0 44 12 74 27 53 26 55 26 69 7 44 -62 37 -59 84 -30 23 15 59 42 80
62 39 34 39 35 78 20 21 -9 50 -17 65 -20 33 -5 68 -24 68 -36 0 -16 37 -21
64 -9 24 11 30 10 49 -9 12 -12 16 -22 9 -22 -17 0 -18 0 -52 -10 -21 -6 -46
-4 -79 6 -102 30 -217 19 -280 -26 -49 -36 -54 -36 -94 -8 -30 21 -31 21 -76
4 -116 -44 -149 -55 -186 -60 -42 -6 -86 -47 -130 -117 -14 -23 -34 -37 -65
-47 -56 -18 -54 -16 -46 -47 5 -19 13 -25 32 -25 22 0 24 -3 15 -14 -19 -22
23 -42 56 -27 13 6 33 11 44 11 19 0 19 -1 -2 -38 -32 -55 -22 -86 33 -100 49
-13 68 -3 68 34 0 37 17 37 30 0 6 -19 22 -46 36 -61 l25 -27 26 23 c22 20 25
21 20 6 -4 -11 -10 -30 -13 -43 -6 -24 -6 -24 29 -9 32 13 37 13 52 -1 21 -22
72 -12 157 31 38 19 70 30 73 24 12 -18 46 -8 142 42 l97 51 76 -23 c112 -34
194 -73 217 -103 12 -15 30 -51 39 -79 9 -29 41 -98 71 -154 64 -124 69 -167
23 -201 -34 -26 -48 -27 -74 -7 -10 8 -22 12 -26 10 -3 -2 -17 -6 -31 -9 -13
-2 -44 -9 -69 -15 -48 -11 -67 -10 -88 2 -7 5 -46 1 -88 -9 -58 -12 -81 -14
-100 -5 -21 9 -39 3 -140 -50 -100 -52 -122 -60 -152 -54 -29 5 -39 2 -63 -21
-29 -28 -29 -28 -29 -5 0 21 -3 22 -41 17 -98 -14 -197 -48 -256 -90 -41 -28
-43 -29 -100 -17 -117 23 -141 20 -277 -43 -44 -20 -93 -37 -109 -39 -28 -2
-34 4 -79 78 -55 90 -168 320 -168 340 0 8 -4 16 -8 19 -14 9 -79 222 -112
369 -43 193 -55 417 -37 667 8 111 10 121 42 260 61 261 136 449 260 650 310
503 767 839 1343 990 71 18 201 40 282 46 41 3 77 8 79 10 13 12 348 -1 445
-17z"/>
<path d="M2921 2810 c-28 -22 -68 -42 -87 -46 -20 -4 -38 -13 -41 -21 -3 -7
-25 -25 -49 -39 -24 -14 -44 -29 -44 -33 0 -5 9 -16 20 -26 10 -9 19 -20 18
-24 -2 -16 6 -17 64 -7 54 10 65 15 86 46 13 19 28 37 33 38 5 2 17 -15 27
-37 14 -33 21 -41 37 -36 11 2 30 5 43 5 38 0 25 70 -14 76 -70 10 -78 27 -48
99 8 20 14 39 11 41 -2 2 -27 -14 -56 -36z"/>
<path d="M2413 2664 l-22 -24 24 -16 c13 -9 39 -15 57 -14 56 3 70 1 62 -12
-5 -8 -2 -9 12 -3 24 10 39 10 93 2 37 -7 43 -5 37 9 -3 8 -6 23 -6 32 0 34
-15 45 -41 31 -36 -20 -48 -19 -54 2 -6 16 -16 19 -73 18 -57 -1 -70 -5 -89
-25z"/>
<path d="M4298 1835 c-2 -11 -3 -111 -2 -221 2 -270 4 -274 157 -274 l77 0 0
45 0 45 -73 0 -72 0 -1 103 -1 102 61 0 c84 -1 86 1 86 49 l0 43 -52 0 c-104
1 -97 -4 -94 58 3 61 -3 69 -51 70 -24 1 -32 -4 -35 -20z"/>
<path d="M4584 1851 c-2 -2 -4 -118 -4 -258 l0 -253 45 0 45 0 0 149 0 149 93
0 c50 -1 97 -3 103 -5 7 -2 11 -49 11 -131 1 -70 2 -135 2 -144 1 -14 10 -18
45 -18 l43 0 -1 165 -1 165 -27 27 c-26 26 -33 27 -130 29 -57 1 -111 3 -120
3 -15 1 -18 11 -18 64 l0 62 -41 0 c-22 0 -42 -2 -45 -4z"/>
<path d="M2297 1824 c-1 -1 -35 -4 -75 -6 -117 -8 -117 -7 -117 -238 0 -252
-17 -235 230 -235 236 0 228 -5 233 155 l4 110 -59 1 c-104 2 -111 2 -125 -3
-8 -4 -13 -21 -13 -44 0 -39 0 -39 40 -40 22 -1 46 -2 53 -3 7 -1 12 -17 12
-46 l0 -45 -145 0 -145 0 0 150 0 150 145 0 c138 0 145 -1 145 -20 0 -17 7
-20 46 -20 l47 0 -6 42 c-8 58 -43 88 -105 89 -26 0 -73 1 -105 2 -32 1 -59 1
-60 1z"/>
<path d="M2701 1721 c-13 -4 -33 -19 -44 -34 -18 -23 -21 -43 -22 -169 -1 -79
0 -151 3 -160 3 -14 15 -18 46 -18 l41 0 0 147 0 148 90 1 c50 1 98 2 108 3
15 1 18 8 15 44 l-3 42 -105 1 c-58 1 -116 -2 -129 -5z"/>
<path d="M3041 1721 c-13 -4 -33 -19 -45 -34 -18 -24 -20 -40 -18 -144 2 -133
12 -175 48 -192 15 -7 85 -11 179 -11 171 0 155 -6 158 63 1 22 -1 22 -148 27
-157 5 -152 4 -147 48 2 9 38 12 146 12 106 0 145 3 148 13 4 10 3 61 -1 141
0 14 -12 37 -25 53 -23 27 -25 27 -147 28 -68 1 -135 -1 -148 -4z m220 -87 c8
-2 15 -15 15 -29 l0 -26 -105 3 c-98 3 -106 4 -107 23 0 11 1 23 3 27 4 7 167
9 194 2z"/>
<path d="M3463 1715 c-45 -19 -54 -53 -52 -192 1 -114 3 -127 24 -151 l23 -27
169 -3 170 -3 0 45 1 46 -149 0 -149 0 0 31 0 30 63 -1 c34 -1 101 -1 149 -1
l86 1 0 78 c0 81 -17 135 -46 148 -29 13 -259 12 -289 -1z m244 -107 c2 -30 4
-30 -147 -30 -58 0 -60 1 -60 31 l0 29 102 -2 103 -1 2 -27z"/>
<path d="M3911 1720 c-13 -3 -34 -18 -45 -33 -19 -25 -21 -42 -20 -146 0 -132
12 -174 52 -190 25 -10 122 -14 275 -12 l57 1 0 45 0 45 -150 0 -151 0 4 28 4
27 146 3 147 3 1 27 c3 68 -3 147 -12 163 -18 35 -51 43 -169 44 -63 1 -126
-1 -139 -5z m229 -111 l0 -30 -102 3 c-91 3 -101 5 -104 22 -2 11 -1 23 1 27
3 3 50 7 105 7 l100 0 0 -29z"/>
</g>
</svg>
