<?xml version="1.0" standalone="no"?>
<!DOCTYPE svg PUBLIC "-//W3C//DTD SVG 20010904//EN"
 "http://www.w3.org/TR/2001/REC-SVG-20010904/DTD/svg10.dtd">
<svg version="1.0" xmlns="http://www.w3.org/2000/svg"
 width="2471.000000pt" height="2471.000000pt" viewBox="0 0 2471.000000 2471.000000"
 preserveAspectRatio="xMidYMid meet">
<metadata>
Created by potrace 1.14, written by Peter Selinger 2001-2017
</metadata>
<g transform="translate(0.000000,2471.000000) scale(0.100000,-0.100000)"
fill="#000000" stroke="none">
<path d="M11605 22919 c-143 -10 -325 -25 -405 -33 -80 -9 -181 -18 -225 -22
-44 -3 -96 -10 -115 -14 -19 -5 -80 -14 -135 -20 -55 -5 -136 -17 -180 -25
-44 -7 -111 -19 -150 -24 -131 -20 -248 -40 -314 -55 -36 -8 -115 -24 -176
-36 -60 -12 -130 -28 -155 -35 -25 -8 -67 -17 -95 -21 -27 -4 -61 -11 -75 -16
-14 -5 -52 -16 -85 -23 -109 -26 -219 -54 -295 -75 -41 -12 -99 -28 -129 -35
-30 -8 -66 -18 -80 -24 -14 -5 -66 -21 -116 -37 -49 -15 -155 -49 -235 -76
-80 -27 -158 -53 -175 -58 -52 -16 -149 -50 -182 -66 -17 -7 -35 -14 -39 -14
-9 0 -108 -37 -134 -50 -9 -4 -70 -29 -135 -54 -181 -71 -226 -90 -337 -140
-31 -14 -59 -26 -62 -26 -5 0 -74 -32 -260 -118 -174 -81 -502 -249 -666 -341
-36 -21 -72 -40 -80 -44 -8 -5 -33 -19 -55 -32 -22 -14 -53 -32 -70 -41 -16
-8 -46 -25 -66 -37 -20 -12 -77 -46 -125 -75 -341 -203 -837 -546 -1179 -816
-1711 -1349 -3098 -3285 -3877 -5411 -83 -227 -106 -297 -152 -450 -14 -49
-31 -103 -37 -120 -12 -34 -27 -92 -105 -385 -8 -30 -23 -91 -34 -135 -10 -44
-28 -123 -40 -175 -12 -52 -28 -124 -35 -160 -7 -36 -20 -99 -29 -140 -44
-210 -75 -383 -86 -470 -5 -41 -14 -97 -20 -125 -13 -58 -34 -229 -55 -430 -8
-77 -19 -169 -24 -205 -6 -36 -15 -146 -21 -245 -6 -99 -16 -218 -22 -265 -14
-113 -14 -1225 1 -1380 6 -63 15 -189 21 -280 5 -91 15 -192 20 -225 6 -33 17
-123 25 -200 20 -200 43 -384 54 -425 5 -19 12 -64 16 -100 4 -36 11 -85 17
-110 9 -46 38 -201 64 -349 8 -46 17 -87 19 -91 3 -5 12 -41 20 -82 38 -182
92 -407 136 -563 11 -38 26 -92 34 -120 65 -234 82 -283 210 -625 59 -157 145
-391 191 -520 47 -129 91 -248 99 -265 65 -141 95 -208 95 -215 0 -5 15 -40
34 -77 19 -38 90 -183 160 -323 69 -140 144 -289 167 -330 22 -41 52 -97 67
-125 82 -155 164 -294 239 -403 81 -117 143 -228 143 -253 0 -6 14 -34 31 -61
16 -28 29 -57 27 -65 -3 -16 -184 -79 -503 -175 -38 -12 -84 -27 -102 -35 -17
-7 -39 -13 -48 -13 -9 0 -26 -5 -37 -11 -11 -6 -50 -20 -87 -31 -124 -37 -156
-47 -226 -73 -38 -15 -90 -33 -115 -40 -78 -24 -144 -46 -175 -60 -51 -22
-140 -55 -148 -55 -8 0 -98 -37 -297 -122 -141 -60 -391 -183 -507 -249 -56
-33 -106 -59 -112 -59 -5 0 -22 -15 -37 -32 l-27 -33 27 -3 c15 -2 48 3 74 12
26 8 70 19 97 24 28 5 70 14 95 20 25 7 88 21 140 32 52 11 145 31 205 44 61
13 148 31 195 41 47 9 121 25 165 36 45 10 93 19 107 19 15 0 64 8 110 19 46
10 112 24 148 31 36 7 94 19 130 26 36 7 106 20 155 28 50 9 124 23 165 31 41
8 100 19 130 24 82 14 206 36 495 91 1080 204 1929 318 3085 415 102 8 399 33
660 55 2987 253 4201 322 5800 334 1098 8 1477 -6 3340 -124 978 -61 1097 -69
1875 -120 248 -16 488 -32 535 -35 488 -32 819 -58 985 -79 328 -41 624 -74
720 -81 50 -3 140 -12 200 -20 61 -8 160 -17 220 -20 61 -4 126 -11 146 -16
20 -5 97 -16 170 -24 233 -26 372 -44 434 -55 33 -6 96 -14 140 -19 121 -14
300 -39 395 -56 47 -8 112 -17 145 -20 33 -3 98 -12 145 -20 97 -16 293 -45
520 -75 85 -11 202 -30 260 -41 195 -37 255 -48 305 -54 28 -3 95 -15 150 -26
55 -11 136 -26 180 -35 44 -9 121 -24 170 -35 50 -10 120 -23 157 -29 37 -6
73 -12 80 -15 7 -3 47 -12 88 -20 41 -8 120 -24 175 -35 235 -50 399 -84 565
-120 52 -11 127 -27 165 -35 191 -39 262 -55 288 -64 34 -13 94 -14 101 -2 14
22 -402 243 -700 371 -65 28 -133 58 -151 66 -17 8 -35 14 -40 14 -4 1 -26 9
-48 20 -22 11 -44 19 -50 20 -5 0 -44 14 -85 31 -69 28 -221 81 -330 116 -25
8 -61 21 -80 28 -19 7 -64 22 -100 33 -69 21 -291 89 -400 122 -36 11 -96 27
-135 35 -89 20 -313 94 -320 106 -5 7 10 37 55 109 69 108 115 186 141 235 17
33 37 67 43 75 7 8 27 40 43 70 17 30 41 73 53 95 13 22 38 69 58 105 19 36
38 70 42 75 10 13 169 319 230 445 94 190 170 349 170 354 0 3 18 43 40 90 22
47 40 87 40 90 0 3 16 39 35 80 19 41 35 78 35 82 0 7 30 74 56 127 8 16 14
33 14 39 0 5 6 24 14 41 16 35 97 243 114 292 32 93 83 233 91 250 5 11 21 58
35 105 15 47 33 101 40 120 7 19 23 67 34 105 20 66 30 97 81 270 11 39 30
104 41 145 11 41 27 98 34 125 25 91 55 209 61 245 4 19 13 58 20 85 28 101
65 277 90 423 8 46 18 98 24 115 5 18 12 59 16 92 4 33 13 87 20 120 7 33 16
92 20 130 4 39 13 97 20 130 7 33 16 101 20 150 3 50 10 108 15 130 5 22 16
128 25 235 9 107 18 197 21 201 2 3 8 121 14 260 5 140 13 295 16 344 13 220
-1 916 -26 1225 -20 246 -41 457 -50 510 -5 30 -14 109 -20 175 -7 66 -14 123
-16 126 -2 4 -13 67 -24 140 -138 908 -428 1914 -810 2809 -706 1654 -1761
3127 -3090 4315 -322 288 -728 612 -1030 824 -107 75 -499 335 -535 355 -16 9
-42 24 -57 34 -14 9 -55 34 -90 55 -34 21 -95 57 -134 81 -38 23 -99 58 -135
78 -35 19 -80 45 -99 56 -19 12 -51 30 -70 40 -71 39 -627 318 -695 349 -39
17 -105 48 -148 67 -42 20 -81 36 -85 36 -4 0 -29 11 -57 24 -65 32 -214 93
-345 144 -58 23 -136 53 -175 68 -140 55 -443 158 -645 220 -47 14 -97 30
-111 36 -14 5 -50 15 -80 23 -30 8 -88 24 -129 35 -68 20 -118 33 -290 75 -30
7 -82 20 -115 28 -33 8 -105 24 -160 36 -55 12 -123 29 -151 36 -28 8 -64 15
-80 15 -16 0 -45 5 -64 10 -59 18 -313 61 -575 99 -38 6 -104 15 -145 21 -41
6 -115 15 -165 20 -49 5 -157 17 -240 25 -557 58 -1340 72 -1880 34z m1350
-669 c188 -9 353 -22 600 -50 196 -22 343 -41 385 -50 25 -5 86 -14 135 -20
50 -6 104 -15 120 -20 17 -5 55 -12 85 -15 30 -4 78 -13 105 -20 28 -7 77 -17
110 -20 33 -4 67 -11 76 -16 9 -4 47 -13 85 -19 38 -6 89 -17 114 -25 25 -7
90 -23 145 -36 55 -12 118 -27 140 -34 22 -8 56 -16 75 -20 19 -3 55 -13 80
-20 25 -8 88 -26 140 -40 112 -31 177 -51 245 -75 28 -10 93 -30 145 -45 52
-16 106 -34 120 -42 14 -7 32 -13 40 -13 8 0 38 -9 67 -20 29 -12 76 -29 105
-40 29 -10 96 -35 148 -55 52 -20 120 -46 150 -57 30 -12 74 -29 97 -39 23
-11 45 -19 48 -19 3 0 32 -12 63 -26 31 -14 66 -29 77 -34 39 -16 132 -58 260
-115 119 -54 530 -258 545 -270 8 -7 25 -16 38 -20 18 -5 378 -205 442 -245 8
-5 44 -27 78 -47 35 -21 76 -46 90 -55 15 -10 43 -27 62 -38 44 -25 38 -22
244 -159 383 -256 571 -392 829 -600 250 -202 299 -244 437 -367 25 -22 63
-56 84 -75 256 -223 699 -677 957 -979 40 -47 75 -87 79 -90 3 -3 54 -65 113
-138 59 -73 111 -138 117 -145 20 -23 195 -252 213 -277 9 -14 42 -59 72 -100
135 -185 362 -525 476 -715 76 -125 299 -513 339 -590 23 -44 45 -87 50 -95 5
-8 15 -27 22 -42 7 -15 38 -78 70 -140 55 -110 142 -293 178 -373 10 -22 32
-70 49 -108 17 -37 31 -70 31 -74 0 -4 9 -25 19 -47 11 -23 40 -93 66 -156 25
-63 50 -124 55 -135 5 -11 17 -40 26 -65 30 -85 53 -145 74 -200 12 -30 37
-101 55 -156 19 -56 38 -112 44 -125 17 -43 98 -306 150 -489 12 -41 28 -95
36 -120 7 -25 16 -58 19 -75 6 -27 14 -60 61 -240 7 -27 23 -95 35 -150 12
-55 30 -136 40 -180 20 -85 31 -147 54 -286 8 -48 19 -104 25 -125 5 -22 12
-68 16 -104 4 -36 13 -94 20 -130 7 -36 16 -101 20 -145 4 -44 11 -97 16 -118
9 -35 20 -139 48 -487 52 -631 53 -1241 1 -1865 -14 -168 -39 -418 -44 -440
-3 -11 -10 -60 -16 -110 -13 -113 -47 -338 -65 -430 -8 -38 -21 -110 -31 -160
-39 -215 -70 -365 -89 -440 -8 -33 -28 -114 -44 -180 -41 -167 -112 -428 -161
-590 -12 -38 -28 -95 -37 -125 -8 -30 -19 -59 -23 -65 -4 -5 -11 -26 -15 -45
-4 -19 -13 -48 -20 -65 -8 -16 -18 -46 -24 -65 -17 -60 -43 -134 -57 -167 -8
-17 -14 -37 -14 -45 -1 -7 -9 -31 -20 -53 -11 -22 -19 -44 -20 -49 0 -10 -139
-362 -170 -431 -10 -22 -30 -69 -45 -105 -15 -36 -38 -90 -52 -120 -14 -30
-36 -77 -48 -105 -12 -27 -35 -77 -50 -110 -53 -118 -236 -480 -326 -645 -32
-57 -208 -362 -231 -398 -10 -15 -25 -40 -34 -57 -20 -35 -126 -198 -134 -205
-3 -3 -22 -28 -43 -56 -91 -126 -283 -252 -312 -204 -4 6 28 82 75 173 96 189
86 172 215 395 55 96 109 190 121 210 11 21 29 51 40 69 77 129 114 194 114
202 0 4 6 13 13 19 6 6 27 39 45 74 19 35 44 81 57 103 29 52 175 342 211 420
15 33 39 87 54 120 26 58 46 101 96 212 13 28 24 55 24 58 0 7 9 27 51 120 27
61 89 215 104 260 7 22 23 65 35 95 25 65 90 251 127 365 14 44 39 121 55 170
17 50 38 119 48 155 10 36 27 97 38 135 11 39 34 126 51 195 17 69 37 148 45
175 16 54 49 196 66 285 6 30 20 98 31 150 10 52 25 131 33 175 8 44 19 100
24 125 6 25 13 74 17 110 4 36 13 92 20 125 7 33 16 94 20 135 3 41 12 113 20
160 7 47 16 130 20 185 4 55 10 121 15 147 5 25 14 129 19 230 6 100 14 239
18 308 19 309 3 1170 -28 1465 -5 50 -14 140 -19 200 -6 61 -17 155 -26 210
-8 55 -19 136 -23 180 -10 97 -37 266 -56 356 -8 37 -15 79 -15 94 0 14 -9 65
-19 113 -11 48 -30 134 -41 192 -22 108 -63 288 -80 350 -10 38 -35 134 -56
220 -15 62 -43 162 -74 265 -12 39 -27 93 -35 120 -7 28 -18 64 -25 80 -6 17
-33 98 -60 180 -27 83 -61 182 -75 220 -14 39 -30 84 -36 102 -5 18 -16 45
-24 60 -8 15 -15 34 -15 41 0 7 -8 32 -19 55 -10 23 -40 96 -66 162 -26 65
-51 126 -55 135 -5 8 -30 65 -56 125 -85 198 -315 670 -379 780 -13 22 -31 54
-39 70 -8 17 -33 62 -56 100 -22 39 -47 84 -55 100 -17 33 -23 44 -72 122 -18
28 -36 60 -40 70 -4 10 -21 38 -38 63 -17 25 -44 68 -60 95 -28 49 -157 251
-198 309 -11 16 -52 77 -92 135 -114 170 -262 369 -453 611 -24 30 -49 62 -55
70 -27 34 -152 185 -158 190 -3 3 -30 34 -60 70 -230 278 -757 811 -1058 1070
-36 30 -81 69 -100 86 -39 35 -200 170 -216 182 -5 4 -55 44 -110 88 -122 98
-421 321 -530 395 -44 30 -82 56 -85 59 -5 6 -209 140 -282 186 -68 43 -112
71 -168 106 -215 138 -694 397 -960 521 -41 19 -119 56 -173 81 -54 25 -100
46 -103 46 -3 0 -31 12 -62 26 -87 40 -112 50 -182 79 -36 15 -78 33 -95 40
-44 18 -311 123 -373 145 -29 11 -76 28 -105 40 -29 11 -59 20 -67 20 -8 1
-33 9 -55 20 -22 11 -47 20 -55 20 -8 0 -27 6 -42 14 -15 8 -42 17 -60 21 -18
3 -49 12 -68 20 -19 7 -75 25 -125 40 -49 15 -110 33 -135 40 -71 22 -181 53
-225 63 -22 5 -85 22 -140 36 -55 15 -129 33 -165 41 -36 8 -105 23 -155 35
-49 12 -124 27 -165 34 -128 23 -252 46 -320 61 -36 8 -92 17 -125 20 -33 4
-94 12 -135 20 -41 8 -106 17 -145 20 -38 4 -87 11 -107 16 -20 5 -119 16
-220 24 -101 9 -230 19 -288 24 -58 5 -265 15 -460 22 -313 11 -407 11 -795
-5 -242 -9 -460 -21 -485 -26 -25 -5 -97 -12 -160 -15 -63 -4 -146 -13 -185
-20 -38 -7 -108 -16 -155 -20 -47 -4 -112 -13 -145 -20 -33 -7 -91 -16 -130
-20 -38 -4 -88 -11 -110 -17 -22 -6 -78 -16 -125 -24 -84 -13 -168 -29 -305
-59 -38 -8 -92 -20 -120 -26 -119 -25 -156 -34 -260 -61 -60 -16 -135 -35
-165 -42 -69 -16 -301 -82 -355 -101 -22 -7 -80 -25 -130 -40 -49 -15 -99 -31
-110 -36 -11 -4 -87 -31 -170 -59 -82 -27 -179 -60 -215 -74 -172 -63 -238
-88 -267 -101 -17 -8 -35 -15 -40 -15 -4 -1 -26 -9 -48 -20 -22 -11 -44 -19
-49 -20 -5 0 -30 -10 -55 -21 -106 -49 -128 -59 -134 -59 -4 0 -41 -16 -84
-36 -43 -20 -98 -45 -123 -56 -68 -30 -535 -264 -615 -308 -38 -22 -86 -48
-105 -58 -93 -50 -165 -91 -258 -147 -9 -6 -57 -34 -107 -64 -49 -29 -119 -72
-155 -95 -36 -24 -86 -56 -112 -72 -86 -54 -376 -254 -469 -324 -26 -19 -57
-42 -69 -50 -13 -8 -46 -33 -74 -56 -28 -22 -85 -65 -126 -95 -41 -31 -82 -62
-90 -70 -8 -8 -40 -33 -70 -56 -30 -23 -64 -50 -75 -60 -11 -10 -47 -41 -80
-68 -54 -45 -183 -155 -211 -180 -6 -5 -42 -37 -80 -70 -89 -77 -208 -191
-408 -390 -245 -244 -321 -325 -545 -580 -15 -16 -58 -68 -96 -115 -38 -47
-75 -89 -81 -95 -12 -10 -258 -323 -284 -361 -8 -12 -64 -89 -125 -170 -95
-130 -335 -479 -335 -489 0 -2 -26 -43 -59 -92 -51 -77 -97 -150 -138 -218 -7
-11 -60 -103 -118 -205 -58 -102 -110 -192 -115 -200 -12 -18 -25 -43 -120
-225 -131 -251 -261 -524 -344 -725 -15 -36 -31 -72 -35 -81 -5 -8 -21 -47
-36 -85 -39 -101 -65 -165 -81 -197 -8 -16 -14 -35 -14 -43 0 -8 -9 -33 -20
-57 -20 -44 -30 -72 -85 -232 -18 -55 -38 -113 -44 -130 -21 -58 -79 -241
-105 -330 -15 -49 -31 -103 -37 -120 -6 -16 -17 -55 -24 -85 -7 -30 -25 -98
-40 -150 -28 -99 -43 -158 -75 -300 -48 -215 -62 -278 -70 -325 -5 -27 -16
-81 -24 -120 -29 -134 -60 -322 -86 -520 -5 -38 -16 -119 -25 -180 -55 -397
-90 -1058 -81 -1525 11 -596 49 -1043 135 -1580 11 -69 27 -169 36 -222 8 -54
19 -108 24 -121 5 -13 12 -50 16 -83 4 -32 12 -70 17 -84 5 -14 16 -56 23 -95
8 -38 23 -108 34 -155 10 -47 26 -114 34 -150 14 -64 30 -122 68 -250 11 -36
19 -73 19 -83 0 -10 6 -30 14 -45 7 -15 16 -45 20 -67 4 -22 13 -56 20 -75 7
-19 23 -66 35 -105 53 -173 163 -497 200 -588 6 -15 14 -39 17 -52 3 -14 15
-42 25 -62 10 -21 19 -45 19 -55 0 -9 4 -19 9 -22 5 -3 12 -18 16 -33 3 -16
13 -41 20 -58 7 -16 25 -59 40 -95 15 -36 33 -78 40 -95 8 -16 25 -57 39 -90
13 -33 31 -73 40 -90 9 -16 16 -33 16 -37 0 -8 77 -176 91 -198 5 -8 14 -26
19 -40 10 -23 196 -394 230 -458 13 -24 120 -214 196 -350 12 -20 36 -64 54
-97 19 -33 49 -81 67 -107 18 -26 33 -50 33 -53 0 -3 8 -18 19 -33 10 -15 35
-54 56 -87 21 -33 55 -86 76 -118 22 -32 39 -60 39 -63 0 -3 15 -24 34 -47 55
-68 61 -86 40 -108 -22 -21 -167 -54 -189 -42 -8 5 -32 34 -52 64 -102 151
-160 241 -229 351 -16 27 -44 71 -61 98 -18 28 -45 74 -61 103 -16 29 -50 87
-76 130 -41 69 -65 113 -167 302 -44 82 -214 423 -259 520 -22 50 -53 115 -67
145 -54 118 -127 291 -177 420 -21 52 -56 142 -78 200 -22 58 -49 126 -59 152
-11 26 -19 56 -19 67 0 11 -4 22 -9 25 -4 3 -23 52 -41 108 -18 57 -38 117
-46 135 -8 17 -14 39 -14 48 0 9 -6 31 -14 48 -8 18 -24 66 -36 107 -12 41
-29 98 -37 125 -24 78 -43 143 -64 225 -11 41 -29 109 -40 150 -11 41 -27 106
-35 143 -7 38 -17 73 -20 78 -3 6 -12 42 -20 82 -7 40 -19 99 -27 132 -14 58
-26 121 -52 255 -7 36 -18 90 -23 120 -21 106 -51 297 -71 445 -11 83 -27 200
-36 260 -8 61 -19 171 -25 245 -6 74 -15 164 -20 200 -16 115 -42 868 -36
1045 15 461 27 710 40 810 8 61 17 157 21 214 3 57 10 125 15 150 5 25 14 93
20 151 6 58 17 143 25 190 8 47 26 157 41 245 14 88 28 163 30 166 2 3 8 39
14 80 6 41 18 99 25 129 8 30 23 100 35 155 12 55 26 118 32 140 5 22 16 65
23 95 7 30 25 100 40 155 15 55 32 123 39 151 8 27 18 66 24 85 6 18 23 75 38
124 30 103 131 406 169 510 15 39 32 88 40 110 7 22 25 72 40 110 14 39 30 83
35 99 17 53 151 382 169 417 5 8 22 49 39 90 30 76 97 222 113 249 5 8 12 24
16 34 7 23 222 449 278 551 21 39 86 152 144 253 58 100 113 195 121 210 16
27 51 84 94 152 59 91 181 278 199 305 12 17 43 62 69 100 63 91 93 133 213
293 55 74 115 155 133 180 31 42 117 150 286 356 278 340 795 873 1136 1172
24 21 51 46 61 54 55 50 93 83 169 145 47 38 90 75 95 81 11 12 217 175 314
248 36 27 69 53 75 58 6 4 31 23 56 41 25 18 72 53 105 78 67 49 114 81 356
244 91 61 172 115 180 118 8 4 33 20 56 35 72 46 442 266 558 331 61 34 117
66 125 71 8 5 83 43 165 85 83 42 157 81 165 85 8 5 74 37 145 70 72 34 138
66 148 71 10 5 71 32 135 60 109 47 136 59 234 103 20 9 39 16 43 16 4 0 21 6
38 14 79 35 130 56 141 56 6 0 34 11 61 25 28 13 54 25 60 25 5 0 34 10 65 21
30 12 71 27 90 34 19 7 60 22 90 33 30 11 123 41 205 67 83 26 157 50 166 55
9 5 34 12 55 16 22 4 50 12 64 19 14 7 45 16 70 20 25 4 54 12 64 17 19 11 60
22 206 58 41 10 129 32 195 48 174 43 211 52 295 68 41 7 84 18 96 23 12 5 48
12 80 16 32 4 77 11 99 17 43 11 150 29 310 53 55 8 120 19 145 25 25 5 88 14
140 20 52 5 149 17 215 25 66 8 176 19 245 25 69 6 175 15 235 21 306 27 908
31 1390 9z m25 -494 c241 -14 370 -26 620 -57 47 -6 133 -17 192 -24 101 -12
185 -26 373 -61 44 -8 116 -21 160 -29 44 -8 123 -24 175 -35 52 -12 124 -28
160 -35 111 -24 260 -60 395 -97 169 -46 443 -127 515 -152 62 -23 134 -47
180 -60 25 -8 77 -26 115 -41 39 -14 88 -31 110 -36 21 -6 44 -14 50 -18 5 -5
27 -14 48 -21 22 -7 51 -18 65 -26 15 -8 32 -14 38 -14 11 0 62 -20 141 -56
17 -8 34 -14 38 -14 4 0 26 -9 49 -19 23 -11 111 -50 196 -87 140 -60 435
-198 485 -226 11 -6 63 -33 115 -60 52 -27 131 -69 175 -93 44 -25 87 -48 95
-51 19 -10 254 -144 285 -164 30 -19 149 -91 183 -110 15 -9 74 -47 132 -85
58 -39 113 -74 122 -80 21 -12 157 -105 259 -177 82 -58 103 -73 183 -133 30
-22 64 -47 76 -55 55 -38 364 -284 450 -358 41 -36 99 -86 129 -111 30 -25 62
-53 71 -61 9 -8 61 -55 116 -104 136 -123 620 -609 728 -731 49 -55 105 -118
125 -141 20 -22 56 -64 81 -94 25 -30 72 -86 106 -125 61 -71 202 -247 239
-299 11 -15 54 -72 95 -126 96 -127 104 -138 168 -229 60 -86 202 -295 217
-320 6 -9 32 -50 59 -91 91 -141 88 -135 181 -292 6 -9 50 -85 98 -170 48 -84
92 -160 97 -168 18 -30 197 -369 210 -397 5 -13 46 -97 90 -187 44 -91 80
-167 80 -170 0 -3 14 -36 31 -73 70 -152 79 -172 79 -179 0 -9 34 -85 56 -126
8 -14 14 -32 14 -40 0 -7 6 -24 13 -39 8 -14 21 -45 30 -70 8 -24 25 -69 37
-99 88 -226 163 -453 250 -755 12 -38 27 -92 35 -120 9 -27 19 -68 24 -90 5
-22 21 -85 36 -140 15 -55 33 -127 40 -160 7 -33 23 -103 35 -155 31 -138 60
-284 75 -375 8 -44 21 -123 29 -175 9 -52 23 -131 31 -175 8 -44 17 -107 20
-140 4 -33 11 -85 16 -116 9 -51 19 -148 48 -459 24 -246 35 -500 38 -875 3
-325 0 -462 -17 -735 -11 -184 -25 -360 -30 -390 -5 -30 -12 -93 -15 -140 -4
-47 -12 -123 -20 -170 -7 -47 -16 -112 -20 -145 -3 -33 -13 -98 -21 -145 -54
-318 -65 -374 -92 -510 -26 -130 -41 -194 -59 -265 -8 -33 -19 -82 -23 -110
-5 -27 -16 -77 -25 -110 -9 -33 -23 -85 -30 -115 -40 -155 -82 -305 -157 -550
-11 -36 -26 -81 -34 -100 -7 -19 -18 -51 -23 -70 -5 -19 -21 -66 -36 -105 -14
-38 -38 -108 -54 -155 -16 -47 -36 -98 -45 -115 -9 -16 -16 -36 -16 -43 0 -8
-6 -26 -14 -40 -8 -15 -28 -65 -46 -111 -17 -46 -35 -91 -40 -100 -4 -9 -20
-45 -35 -81 -25 -60 -36 -85 -78 -180 -77 -174 -233 -490 -318 -645 -33 -60
-69 -128 -80 -150 -11 -22 -29 -53 -39 -70 -11 -16 -27 -43 -36 -60 -8 -16
-25 -46 -37 -66 -12 -20 -48 -81 -80 -135 -32 -55 -76 -126 -97 -159 -22 -33
-49 -76 -60 -95 -21 -35 -130 -198 -172 -257 -13 -18 -39 -55 -58 -84 -19 -28
-49 -67 -65 -86 l-30 -35 -75 77 c-68 70 -192 171 -230 188 -8 4 -33 18 -55
31 -22 14 -89 51 -150 82 -186 95 -267 138 -337 177 l-66 38 -22 -23 c-12 -13
-37 -54 -57 -93 -73 -142 -105 -195 -115 -195 -15 0 -18 44 -8 146 5 60 13
139 16 175 4 38 3 69 -3 72 -10 6 -192 -82 -284 -139 -31 -19 -61 -34 -66 -34
-5 0 -22 44 -36 98 -70 249 -66 241 -111 210 -17 -12 -33 -25 -36 -28 -13 -13
-80 -44 -135 -61 -75 -24 -147 -24 -205 -1 -54 20 -110 53 -110 64 0 4 -12 14
-26 21 -27 14 -80 7 -161 -23 -70 -26 -86 -7 -119 140 -19 87 -42 172 -49 178
-10 10 -54 -18 -111 -71 -91 -84 -145 -127 -160 -127 -7 0 -16 10 -18 23 -39
190 -47 214 -66 202 -4 -2 -29 -37 -56 -77 -26 -40 -58 -84 -71 -96 l-22 -24
-53 34 c-103 66 -176 88 -295 88 l-53 0 -102 95 c-97 89 -129 108 -143 85 -3
-5 -9 -32 -12 -60 -8 -69 -20 -76 -81 -50 -129 56 -260 73 -494 67 l-186 -6
-46 30 c-25 17 -68 51 -95 75 -27 24 -57 44 -68 44 -10 0 -45 -27 -78 -60 -65
-65 -78 -68 -125 -25 -51 47 -169 90 -272 100 -82 9 -124 32 -133 75 -9 40
-67 105 -116 130 -33 18 -89 30 -209 49 -60 9 -70 17 -70 52 0 25 -4 29 -29
29 -16 0 -42 -7 -57 -15 -16 -8 -38 -15 -49 -15 -11 0 -41 -7 -66 -14 -25 -8
-88 -19 -140 -25 -198 -24 -187 -18 -295 -144 -53 -62 -104 -116 -113 -121 -9
-5 -20 -14 -24 -20 -8 -10 -7 10 9 140 4 34 3 54 -5 58 -6 4 -42 1 -79 -8 -37
-8 -107 -22 -157 -32 -49 -9 -99 -18 -110 -21 -43 -9 -54 12 -99 182 -19 71
-26 84 -47 95 -16 9 -22 1 -51 -57 -37 -75 -27 -69 -188 -108 -68 -16 -168
-56 -225 -90 -59 -34 -93 -33 -101 3 -3 15 -12 43 -19 62 -8 19 -19 51 -24 70
-16 55 -42 124 -51 133 -4 5 -42 -23 -83 -62 -53 -50 -82 -71 -100 -71 -14 0
-28 4 -31 9 -3 5 -45 21 -93 37 -80 26 -100 28 -225 27 -111 -1 -140 2 -150
14 -7 8 -20 63 -29 122 -10 58 -22 135 -28 171 -43 263 -80 599 -90 825 -17
352 -3 884 29 1103 17 124 106 268 328 534 37 46 99 124 137 173 37 50 75 94
83 99 24 14 177 -1 252 -25 88 -29 158 -88 196 -164 33 -69 18 -67 224 -32 80
14 172 28 205 32 58 5 61 5 95 -27 122 -115 262 -188 413 -216 96 -18 109 -2
67 85 -74 150 -112 240 -112 263 0 18 26 49 106 125 64 60 106 108 106 119 -1
71 -192 313 -325 411 -22 17 -42 33 -45 36 -11 14 -148 82 -178 90 -31 7 -37
4 -80 -44 -139 -152 -314 -319 -379 -361 -40 -25 -74 -46 -77 -46 -11 0 -6 42
8 68 8 15 45 90 82 167 115 240 200 330 359 380 236 75 281 61 478 -149 105
-112 144 -139 170 -118 16 13 192 91 235 104 37 10 59 1 172 -70 19 -12 43
-22 53 -22 19 0 194 89 340 173 69 39 93 48 105 40 10 -5 36 -39 60 -74 24
-35 50 -71 58 -80 14 -16 19 -51 8 -61 -3 -3 -41 10 -85 28 -86 38 -114 36
-123 -9 -3 -12 -12 -56 -21 -97 -28 -136 -44 -204 -53 -225 -9 -20 -39 -128
-49 -177 -8 -40 10 -43 158 -28 114 12 145 11 268 -4 77 -9 166 -26 198 -37
32 -11 64 -22 71 -24 28 -10 -12 -55 -165 -192 -79 -71 -64 -82 149 -108 25
-3 51 -11 56 -18 5 -7 13 -41 16 -76 17 -155 107 -211 290 -182 88 14 220 62
250 91 13 11 37 59 56 108 18 48 37 92 40 97 4 6 31 64 60 130 29 66 59 129
66 140 24 34 17 84 -20 140 -40 59 -72 133 -62 142 14 14 75 4 124 -21 99 -50
180 -158 197 -264 11 -65 15 -69 71 -103 30 -19 90 -57 133 -84 157 -103 211
-117 283 -72 70 43 102 107 143 287 14 63 34 140 44 170 l18 55 107 -1 c158
-3 168 -11 221 -174 30 -92 61 -160 73 -160 13 0 106 32 148 51 23 11 49 19
58 19 9 0 33 9 53 20 21 11 45 20 55 20 9 0 29 6 45 14 15 8 49 22 74 31 25 8
53 21 62 28 16 12 35 87 62 247 26 149 40 209 52 221 8 8 73 12 227 11 119 0
216 3 216 6 -1 20 -33 42 -95 67 -124 49 -175 74 -175 88 0 14 83 181 117 236
22 34 47 52 148 106 67 36 76 49 100 151 21 89 18 138 -10 142 -11 2 -36 9
-55 17 -19 7 -69 23 -110 36 -41 12 -129 39 -195 60 -208 65 -258 79 -279 79
-35 0 -53 17 -40 37 12 19 13 20 121 72 44 21 95 42 112 46 63 14 52 50 -27
87 -163 77 -323 148 -452 202 -36 15 -78 34 -95 41 -16 7 -59 26 -95 41 -62
26 -143 62 -273 122 -55 25 -56 27 -39 44 23 23 112 38 231 38 148 0 320 -45
498 -132 87 -42 131 -68 267 -160 10 -7 51 -39 91 -70 40 -32 77 -58 83 -58 5
0 54 48 108 107 55 59 106 114 114 123 8 8 39 43 67 77 68 78 61 88 -58 73
-184 -22 -336 -33 -353 -27 -17 7 -17 8 1 30 10 13 54 57 98 97 109 101 111
104 92 144 -8 18 -37 57 -65 87 -66 73 -166 123 -298 151 -90 18 -116 20 -299
12 -110 -4 -229 -8 -265 -9 -77 0 -87 -5 -111 -59 -23 -51 -88 -130 -131 -160
-106 -71 -178 -90 -346 -90 -99 -1 -125 2 -132 14 -5 8 -9 18 -7 21 1 4 39 46
84 95 117 128 214 246 210 258 -5 15 -103 81 -181 122 -203 106 -437 150 -871
163 -148 4 -278 4 -287 -1 -14 -7 -18 -25 -20 -96 -4 -109 -19 -118 -71 -40
-40 60 -74 98 -87 98 -5 0 -60 -7 -122 -15 -143 -18 -352 -36 -490 -42 -111
-5 -277 16 -328 41 -14 7 -37 16 -52 20 -36 8 -98 49 -94 61 4 14 138 11 220
-5 87 -16 116 -9 116 30 0 16 -5 41 -11 56 -5 16 -7 39 -4 52 6 23 7 22 68
-26 122 -96 270 -147 371 -128 72 14 112 113 89 221 -8 37 -14 42 -83 78 -41
21 -102 50 -135 64 -33 14 -78 34 -101 44 -23 10 -45 19 -49 19 -4 0 -21 6
-38 14 -113 50 -314 95 -459 103 -96 5 -118 9 -122 22 -3 9 -6 65 -8 126 -4
132 -4 131 116 87 44 -17 119 -43 166 -57 47 -15 105 -34 130 -42 189 -62 620
-133 809 -133 74 0 85 3 143 37 73 42 119 76 261 192 191 156 180 139 151 240
-27 96 -52 184 -63 226 -6 22 -12 44 -13 49 -2 5 6 12 18 16 15 6 74 -9 195
-49 227 -75 339 -109 465 -141 51 -12 49 -10 119 -143 49 -92 55 -110 44 -125
-7 -9 -57 -61 -111 -114 -110 -110 -123 -141 -65 -152 17 -3 68 -15 112 -27
167 -44 192 -49 280 -59 50 -5 138 -10 196 -10 151 0 152 2 134 140 -8 58 -17
146 -20 195 -4 50 -11 113 -16 140 -6 28 -16 97 -24 155 -7 58 -19 131 -26
162 -21 95 -5 94 93 -3 147 -149 292 -285 314 -297 19 -10 25 -8 48 22 74 98
88 246 36 383 -34 86 -107 214 -218 382 -69 103 -77 111 -120 125 -26 8 -85
28 -132 45 -47 17 -91 31 -98 31 -8 0 -28 6 -45 14 -34 15 -110 37 -214 61
-104 24 -193 56 -193 69 0 7 9 62 20 122 12 60 27 147 35 194 8 47 17 101 21
121 5 30 2 38 -17 51 -13 8 -55 18 -93 22 -97 10 -106 17 -59 49 22 15 43 27
47 27 9 0 169 67 242 101 23 10 47 19 55 19 8 0 56 -36 106 -80 51 -44 97 -80
102 -80 12 0 91 160 91 183 0 20 -28 36 -94 53 -61 15 -495 161 -516 173 -9 5
-31 12 -49 16 -18 4 -53 16 -78 27 -58 25 -116 25 -299 -3 -79 -12 -149 -19
-157 -16 -13 5 -50 60 -97 145 -33 59 -130 199 -154 221 l-25 24 -50 -55 c-94
-103 -283 -208 -456 -254 -11 -3 -49 -14 -85 -24 -132 -36 -249 -62 -260 -55
-6 4 -10 66 -10 166 0 91 -4 169 -10 180 -10 17 -22 19 -138 19 -135 -1 -351
-26 -492 -59 -47 -10 -92 -21 -100 -23 -18 -4 -26 38 -10 57 6 7 33 57 60 111
60 119 60 119 -79 163 -111 36 -246 50 -360 39 -65 -7 -94 -14 -181 -46 -28
-10 -52 -1 -118 45 -37 25 -77 49 -91 54 -23 9 -69 -2 -146 -37 -171 -77 -161
-79 -274 61 -31 39 -62 74 -68 78 -26 16 -14 53 27 83 23 16 49 36 60 45 10 8
31 24 46 35 14 10 38 28 53 39 14 12 38 28 53 38 l27 17 58 -62 c32 -34 125
-131 207 -215 166 -169 162 -167 226 -108 149 139 226 205 239 205 3 0 60 7
126 15 176 22 201 21 222 -12 21 -33 60 -78 125 -147 l48 -49 67 7 c38 3 109
9 158 12 50 4 95 11 102 16 6 5 16 48 23 96 19 145 20 150 34 161 11 9 16 3
25 -33 28 -114 136 -243 308 -370 91 -67 102 -67 150 -9 56 68 188 246 202
271 6 12 9 32 6 44 -3 13 -9 75 -14 138 -10 121 -33 295 -56 420 -8 41 -11 78
-7 82 10 10 48 -28 103 -104 148 -203 370 -497 379 -503 19 -12 52 2 139 60
46 30 89 55 97 55 18 0 28 -19 16 -33 -6 -7 -15 -38 -21 -70 -6 -31 -15 -66
-21 -77 -6 -12 -8 -30 -5 -40 7 -22 11 -21 110 6 59 16 159 4 290 -36 192 -59
211 -63 300 -64 81 0 95 3 138 28 73 43 81 71 46 150 -77 176 -243 292 -474
335 -33 6 -80 15 -105 21 -25 5 -72 9 -105 10 -64 0 -105 8 -105 19 0 9 91 51
175 82 33 12 76 27 95 34 48 18 126 44 180 60 97 29 141 48 137 59 -4 11 -40
26 -142 56 -73 22 -139 46 -182 65 -17 8 -35 15 -39 15 -5 0 -32 9 -61 20 -29
12 -79 30 -110 42 -32 11 -67 25 -78 31 -11 6 -40 15 -65 22 -35 9 -46 16 -48
35 -2 13 3 27 11 32 15 8 115 92 186 155 69 62 42 64 -322 17 -152 -19 -165
-17 -147 32 6 16 15 31 19 34 4 3 14 17 22 32 8 15 39 71 71 125 113 196 187
364 175 396 -22 57 -336 60 -532 6 -38 -11 -104 -29 -145 -40 -41 -12 -103
-30 -138 -40 -34 -10 -70 -19 -80 -19 -9 0 -35 -7 -57 -14 -68 -24 -69 -20
-60 205 l7 195 -59 70 c-32 38 -103 114 -158 169 -83 83 -115 107 -187 143
-47 23 -92 42 -99 42 -6 0 -46 20 -88 44 -136 78 -175 99 -279 153 -57 29
-110 53 -119 53 -16 0 -39 -22 -162 -154 l-64 -69 -103 108 -102 108 -109 -6
c-59 -4 -139 -13 -178 -22 -106 -22 -239 -20 -292 6 -73 35 -83 56 -83 174 0
98 -1 103 -22 108 -13 3 -104 6 -203 7 -99 0 -220 5 -270 10 -49 5 -142 14
-205 20 -115 10 -300 41 -375 62 -22 6 -71 17 -110 24 -38 7 -101 20 -140 28
-149 33 -212 45 -260 51 -27 3 -58 8 -67 11 -14 4 -18 -1 -18 -18 0 -13 4 -28
9 -34 6 -5 21 -29 34 -54 13 -25 41 -76 62 -115 90 -165 86 -157 72 -179 -15
-22 -33 -29 -292 -111 -82 -27 -155 -52 -161 -57 -11 -8 -3 -96 12 -120 7 -11
30 -98 58 -218 7 -30 21 -77 30 -103 9 -26 16 -54 16 -63 0 -23 -26 -27 -57
-11 -35 19 -140 67 -147 67 -3 0 -48 20 -100 45 -77 36 -96 49 -96 66 0 24
124 282 149 312 14 17 14 20 -2 32 -19 14 -73 20 -327 36 -96 6 -181 14 -188
18 -14 8 37 49 88 71 14 6 43 21 65 35 22 13 50 28 62 34 11 5 24 14 27 20 12
19 -32 49 -91 61 -32 6 -72 16 -88 21 -47 14 -252 38 -425 49 -247 16 -428 30
-525 41 -49 5 -160 9 -245 9 -85 0 -207 4 -270 9 -222 19 -425 41 -479 51 -66
12 -457 26 -493 17 -28 -7 -68 -65 -68 -99 0 -43 38 -85 108 -118 37 -17 74
-35 82 -40 9 -4 29 -10 46 -14 47 -10 143 -52 173 -74 25 -19 25 -21 11 -45
-8 -14 -42 -58 -74 -97 -52 -62 -63 -71 -85 -65 -14 3 -33 14 -41 23 -8 9 -33
32 -54 51 -34 29 -44 32 -75 26 -20 -4 -56 -10 -81 -15 -42 -7 -82 -16 -230
-55 -30 -7 -86 -21 -125 -31 -135 -32 -181 -44 -250 -63 -38 -11 -100 -28
-137 -38 -38 -10 -68 -21 -68 -25 0 -5 0 -15 0 -23 0 -16 113 -93 175 -120 88
-37 184 -65 265 -75 189 -25 227 -29 281 -30 37 0 61 -5 69 -14 9 -12 6 -16
-23 -21 -46 -9 -67 -29 -265 -255 l-30 -35 -64 19 c-129 38 -280 30 -428 -22
-93 -34 -134 -40 -185 -31 -243 42 -443 63 -463 47 -10 -9 -12 -57 -10 -229 3
-252 -9 -223 126 -289 52 -26 82 -46 82 -57 0 -14 -14 -15 -127 -8 -233 14
-618 21 -630 12 -21 -16 -21 -22 44 -315 21 -93 15 -100 -64 -83 -32 7 -80 19
-108 26 -87 23 -255 54 -411 75 -157 22 -375 24 -380 5 -2 -9 85 -78 227 -180
75 -54 75 -52 -42 -167 -58 -57 -125 -125 -149 -151 l-44 -48 30 -24 c16 -13
34 -24 39 -25 6 0 29 -9 50 -20 69 -36 246 -92 350 -111 130 -24 229 -24 351
1 134 28 138 35 64 136 -28 38 -49 76 -48 84 3 11 24 16 88 21 82 5 123 17
201 59 20 11 39 20 43 20 3 0 28 -45 55 -100 27 -55 64 -121 81 -147 17 -25
32 -58 33 -72 2 -26 -4 -29 -183 -93 -133 -48 -219 -93 -278 -144 -66 -58
-112 -126 -105 -154 5 -19 11 -21 42 -16 20 4 88 13 151 21 124 16 212 33 358
67 92 22 94 22 160 4 37 -10 96 -24 132 -31 36 -8 85 -19 110 -25 65 -17 128
-14 196 8 123 40 442 102 525 102 44 0 59 -4 59 -14 0 -8 -12 -17 -27 -21 -16
-3 -46 -15 -68 -25 -22 -10 -85 -37 -140 -60 -55 -24 -125 -54 -155 -68 -30
-13 -64 -28 -75 -32 -36 -14 -149 -61 -182 -76 -17 -8 -37 -14 -45 -14 -7 0
-26 -7 -42 -15 -33 -17 -132 -51 -246 -85 -41 -12 -95 -28 -120 -36 -25 -8
-67 -17 -95 -20 -27 -4 -75 -13 -105 -20 -80 -21 -318 -29 -429 -15 -139 17
-269 52 -396 105 -90 37 -92 20 -19 -153 20 -46 29 -117 16 -125 -6 -3 -37 1
-69 9 -278 75 -439 105 -561 105 -87 0 -235 -28 -249 -47 -21 -27 -16 -36 44
-83 32 -25 80 -64 108 -87 92 -79 100 -85 153 -126 29 -24 52 -50 52 -60 0
-17 -7 -18 -97 -13 -296 17 -423 18 -429 3 -3 -8 8 -44 24 -78 16 -35 40 -86
52 -114 12 -27 30 -68 40 -89 33 -68 23 -70 -180 -42 -109 16 -130 12 -130
-23 1 -55 96 -445 126 -518 8 -18 25 -37 37 -42 12 -5 67 -2 127 5 58 8 166
16 240 20 l135 6 55 -30 c42 -23 55 -36 55 -53 0 -21 -8 -26 -75 -41 -136 -31
-194 -45 -245 -61 -27 -8 -81 -24 -120 -35 -121 -34 -218 -64 -278 -83 -31
-10 -66 -19 -76 -19 -22 0 -51 -25 -51 -44 0 -16 177 -155 278 -218 50 -31 44
-60 -20 -97 -75 -43 -161 -105 -165 -118 -2 -5 16 -34 39 -63 142 -172 194
-257 266 -433 10 -22 15 -26 30 -18 22 12 102 97 210 224 92 106 121 121 141
70 6 -16 40 -73 76 -128 36 -55 68 -107 72 -115 7 -15 54 -93 98 -160 12 -19
44 -68 69 -107 54 -85 68 -89 157 -47 29 14 68 31 84 39 17 7 62 28 100 45 39
18 104 48 145 67 41 18 82 37 90 42 8 4 40 20 70 36 68 36 90 54 90 73 0 8
-50 62 -111 121 -220 209 -259 249 -259 263 0 12 53 93 70 108 3 3 46 55 94
115 49 61 99 116 111 122 20 11 24 10 28 -10 3 -12 6 -87 6 -167 2 -192 5
-210 42 -210 15 0 43 7 61 14 96 43 244 73 263 54 15 -15 -26 -62 -110 -126
-82 -62 -92 -73 -108 -122 -10 -30 -23 -82 -28 -115 -6 -32 -15 -65 -21 -72
-13 -17 -13 -128 0 -208 6 -33 13 -105 17 -160 l6 -100 -140 -140 c-156 -156
-128 -141 -346 -184 -104 -21 -121 -27 -129 -47 -6 -14 -3 -30 34 -194 32
-146 40 -199 40 -271 l0 -66 -182 -151 c-101 -83 -192 -158 -203 -167 -20 -15
-20 -15 -1 -30 11 -8 29 -13 40 -10 12 2 51 6 88 10 159 13 510 106 685 181
21 9 52 22 68 29 91 39 93 21 7 -68 -38 -40 -96 -101 -128 -136 -33 -36 -66
-72 -74 -81 -62 -66 -120 -140 -120 -154 0 -21 25 -32 90 -39 53 -6 79 -12
273 -57 144 -33 136 -35 424 110 142 72 265 130 273 130 8 -1 39 -33 67 -73
119 -164 204 -262 223 -259 10 2 38 14 62 27 24 13 57 32 73 41 144 80 378
259 554 422 57 53 110 98 117 100 8 2 28 -8 46 -22 46 -35 190 -106 252 -123
70 -20 303 -63 345 -63 37 0 73 -33 231 -206 36 -39 74 -74 86 -78 14 -4 33 3
62 24 23 16 44 30 46 30 2 0 35 20 72 45 47 32 73 44 88 39 34 -10 94 -42 160
-86 33 -22 71 -44 84 -49 22 -9 28 -25 14 -45 -4 -6 -43 -16 -87 -23 -44 -6
-93 -16 -110 -21 -16 -6 -93 -25 -169 -43 l-140 -33 -140 46 c-172 57 -203 65
-336 91 -346 65 -698 33 -945 -87 -114 -55 -239 -142 -315 -218 -40 -41 -73
-66 -86 -66 -24 0 -79 36 -216 140 -97 74 -176 106 -234 97 -19 -3 -76 -26
-127 -50 -51 -25 -123 -59 -162 -77 -38 -18 -92 -43 -120 -55 -27 -13 -68 -30
-90 -38 -22 -8 -73 -27 -113 -41 -186 -69 -403 -114 -559 -115 -59 -1 -64 -3
-119 -50 -131 -112 -263 -285 -360 -470 -52 -100 -114 -167 -198 -214 -61 -34
-255 -96 -348 -112 -21 -3 -44 -12 -52 -20 -19 -20 -29 -103 -21 -175 6 -51
12 -64 41 -89 18 -17 49 -33 68 -36 34 -7 136 9 168 26 28 15 33 -25 7 -61
-22 -29 -26 -30 -98 -30 -42 0 -83 -4 -91 -10 -16 -10 -15 -11 20 -28 14 -6
32 -16 40 -21 52 -32 258 -125 270 -123 15 3 24 6 100 40 25 11 74 32 110 47
83 34 148 63 182 81 34 18 78 18 78 0 0 -8 -15 -36 -33 -62 -19 -27 -64 -94
-102 -149 -37 -54 -85 -123 -106 -152 -45 -61 -50 -102 -19 -160 11 -21 20
-45 20 -53 0 -9 6 -24 14 -35 7 -11 19 -37 25 -57 14 -41 36 -52 131 -62 46
-5 193 -29 327 -52 35 -7 37 -3 63 131 16 85 26 123 47 180 19 54 53 115 64
115 9 0 19 -64 19 -121 0 -70 51 -196 118 -294 40 -59 191 -215 208 -215 10 0
65 48 208 183 28 26 54 47 58 47 15 0 18 -21 7 -42 -7 -12 -18 -43 -25 -68
-19 -67 -91 -270 -98 -277 -3 -4 -6 -12 -6 -20 0 -24 51 -14 134 26 138 66
194 91 208 91 20 -1 39 -19 102 -103 65 -86 75 -90 154 -58 26 11 79 28 117
40 214 63 256 75 315 96 177 62 286 120 401 212 36 29 71 53 78 53 6 0 39 -29
74 -65 l63 -65 65 26 c35 14 78 30 94 35 17 5 44 15 60 23 48 23 128 54 155
62 14 4 70 34 125 67 55 33 116 70 137 81 50 28 301 176 346 203 20 13 51 30
68 38 35 18 12 23 239 -54 137 -47 207 -69 242 -76 18 -4 35 -11 38 -16 4 -5
15 -9 26 -9 22 0 408 -127 424 -140 6 -4 21 -11 35 -15 30 -9 213 -98 252
-123 14 -9 48 -30 75 -46 99 -60 243 -191 243 -222 0 -4 8 -25 19 -48 26 -58
52 -130 105 -296 53 -165 114 -328 131 -350 12 -16 151 -255 203 -350 135
-244 234 -494 277 -694 13 -63 5 -128 -19 -156 -8 -8 -19 -31 -25 -50 -18 -56
-49 -84 -156 -141 -55 -29 -113 -61 -130 -71 -41 -24 -66 -23 -106 8 -158 118
-149 115 -262 84 -107 -29 -203 -49 -287 -60 -41 -5 -91 -14 -110 -19 -19 -5
-66 -12 -105 -16 -38 -3 -115 -12 -170 -20 -215 -30 -223 -29 -189 34 26 47
17 62 -29 50 -18 -4 -54 -13 -82 -19 -27 -6 -77 -18 -110 -25 -33 -8 -76 -17
-95 -20 -126 -20 -421 -83 -479 -101 -67 -21 -79 -18 -171 41 -47 30 -89 55
-95 56 -24 3 -50 -4 -74 -20 -14 -9 -35 -22 -46 -28 -11 -7 -69 -40 -130 -75
-60 -35 -121 -69 -135 -76 -14 -6 -32 -16 -40 -21 -27 -17 -204 -118 -235
-133 -16 -8 -138 -70 -270 -138 -252 -128 -274 -135 -338 -106 -18 8 -50 19
-72 24 -22 6 -59 18 -83 26 -23 9 -53 14 -66 10 -14 -3 -82 -61 -153 -130 -70
-68 -136 -124 -145 -124 -16 0 -18 11 -18 89 0 68 -4 93 -16 105 -18 18 -26
20 -40 7 -9 -9 -88 -27 -249 -56 -44 -8 -111 -21 -150 -29 -38 -9 -115 -25
-170 -37 -247 -53 -487 -134 -608 -206 -27 -15 -63 -36 -80 -46 -49 -29 -146
-105 -210 -165 l-58 -54 -127 5 c-202 9 -458 62 -600 123 -43 18 -113 18 -160
-1 -20 -9 -61 -20 -92 -24 -68 -11 -183 -38 -230 -56 -162 -59 -224 -84 -327
-131 -29 -13 -79 -36 -110 -50 -32 -15 -94 -43 -138 -64 -44 -21 -109 -50
-145 -64 -36 -15 -74 -31 -85 -36 -46 -22 -179 -64 -292 -91 -81 -20 -102 -8
-145 81 -24 50 -94 167 -145 243 -29 43 -53 80 -53 82 0 2 -15 26 -32 52 -18
26 -40 60 -48 76 -8 15 -54 94 -101 175 -86 147 -106 182 -202 362 -53 98
-157 308 -219 440 -92 194 -122 259 -144 315 -14 33 -31 74 -39 90 -31 65 -95
225 -95 237 0 8 -6 22 -14 33 -7 11 -17 31 -21 45 -4 14 -13 39 -20 55 -13 33
-46 123 -113 308 -22 60 -89 270 -155 482 -9 28 -25 86 -37 130 -12 44 -30
109 -40 145 -10 36 -28 103 -40 150 -12 47 -28 110 -36 140 -8 30 -21 89 -30
130 -9 41 -25 116 -35 165 -26 115 -46 218 -64 325 -8 47 -20 109 -26 138 -22
109 -74 492 -89 657 -6 61 -17 171 -25 245 -16 155 -21 249 -35 663 -11 328 6
934 35 1182 8 72 19 182 25 245 15 166 42 359 105 730 18 109 41 223 66 330
11 47 27 117 36 155 8 39 22 95 31 125 8 30 20 80 27 110 8 30 22 89 33 130
11 41 29 109 40 150 11 41 30 107 41 145 12 39 27 88 32 110 9 37 65 211 90
280 6 17 17 50 24 75 8 25 26 77 40 115 15 39 30 83 36 100 8 26 20 59 67 180
9 22 24 59 34 82 10 23 18 47 18 53 0 7 7 24 15 38 16 31 75 168 75 176 0 3
16 41 36 83 20 43 45 98 56 123 81 178 230 481 313 635 55 103 190 343 205
365 6 8 17 29 26 45 8 17 27 49 42 72 15 23 47 75 71 115 40 66 63 102 151
233 54 80 158 232 205 300 57 82 276 378 285 385 3 3 53 64 110 135 279 348
435 522 790 875 256 255 355 349 590 551 172 149 531 430 680 533 19 14 60 43
90 65 47 34 394 268 500 337 83 54 267 165 288 174 12 5 47 26 77 45 31 19 57
35 59 35 3 0 44 23 93 51 83 49 606 315 689 351 22 9 78 35 126 57 47 23 91
41 97 41 7 0 22 6 34 14 12 8 74 35 137 61 63 25 129 52 145 60 17 7 42 17 58
20 15 4 44 16 64 26 21 10 44 19 53 19 9 0 20 4 25 9 6 5 26 14 45 20 19 5 67
22 105 36 157 58 507 170 690 220 28 7 82 22 120 33 111 31 156 42 220 57 33
7 87 20 120 29 32 9 69 16 81 16 12 0 37 6 55 14 19 8 59 17 89 21 30 4 78 13
105 20 28 8 75 17 105 20 30 4 69 10 85 16 33 9 160 29 384 59 79 11 151 22
160 25 9 2 77 9 151 15 74 6 163 15 197 21 34 5 158 14 275 19 314 14 432 22
437 26 10 10 683 -5 931 -20z m4067 -4434 c23 -14 44 -35 47 -46 7 -25 -37
-101 -66 -117 -33 -18 -108 -6 -157 25 -40 26 -43 30 -38 62 7 42 51 101 80
107 39 8 91 -4 134 -31z m-2322 -317 c44 -18 58 -52 52 -124 -5 -71 -22 -84
-100 -78 -68 6 -84 17 -110 76 -23 52 -17 103 16 126 27 19 97 19 142 0z
m-1822 -1717 c23 -17 27 -26 27 -69 0 -134 -171 -277 -362 -302 -62 -9 -74 6
-53 64 9 24 23 66 30 93 8 27 19 54 24 59 6 6 11 18 11 27 0 25 43 97 71 119
53 41 198 46 252 9z m-5889 -167 c108 -67 76 -224 -47 -238 -71 -8 -111 4
-155 46 -62 61 -61 119 5 183 54 52 122 55 197 9z m4536 -161 c46 -13 70 -53
70 -119 0 -95 -34 -125 -143 -126 -55 0 -61 2 -88 35 -31 37 -37 77 -19 141
15 54 36 66 135 78 6 0 26 -4 45 -9z m-3188 -83 c35 -36 46 -56 61 -113 25
-98 23 -118 -16 -227 -5 -15 -25 -41 -45 -58 -32 -28 -40 -31 -89 -27 -64 6
-103 37 -139 113 -54 114 -11 267 94 332 56 34 84 30 134 -20z m5178 -639 c0
-57 -40 -239 -58 -261 -5 -7 -12 -25 -16 -40 -4 -15 -17 -33 -30 -39 -21 -9
-31 -6 -68 19 -105 71 -78 227 59 340 56 47 95 64 105 49 4 -6 8 -37 8 -68z
m434 -352 c45 -19 70 -74 62 -135 -3 -25 -11 -50 -16 -55 -6 -6 -43 -12 -83
-14 -69 -4 -73 -3 -101 27 -23 24 -30 42 -34 86 -5 63 5 80 52 94 46 14 83 13
120 -3z m806 -1295 c110 -85 166 -199 144 -290 l-9 -36 -132 2 c-194 3 -208
14 -208 163 0 59 5 85 24 120 55 106 88 114 181 41z m2026 -398 c19 -22 23
-40 24 -90 0 -54 -3 -65 -22 -77 -38 -24 -89 -29 -130 -12 -55 23 -70 52 -66
127 3 56 6 65 28 77 16 8 46 11 84 8 50 -4 63 -9 82 -33z m-6896 -4 c19 -12
41 -29 48 -38 23 -28 52 -102 52 -132 0 -34 -28 -52 -117 -73 -32 -8 -71 -19
-86 -25 -53 -21 -75 -14 -104 32 -22 34 -27 54 -28 102 0 66 19 102 73 136 39
25 118 24 162 -2z m-1595 -54 c77 -62 108 -170 68 -233 -37 -57 -161 -142
-207 -142 -114 0 -185 187 -120 316 36 72 92 107 161 101 42 -3 61 -11 98 -42z
m2404 -24 c104 -29 203 -101 214 -157 5 -30 -21 -82 -55 -107 -88 -66 -290 -2
-359 113 -79 131 16 202 200 151z m5820 -1567 c28 -20 51 -72 51 -117 0 -83
-111 -121 -184 -64 -47 38 -49 168 -3 187 37 15 111 11 136 -6z m-2957 -8
c112 -47 53 -253 -98 -341 -62 -36 -153 -44 -204 -18 -73 38 -75 153 -4 240
44 54 101 91 174 114 68 22 88 23 132 5z m-424 -49 c6 -46 -36 -114 -93 -152
-50 -33 -145 -59 -297 -80 -64 -10 -82 -1 -117 54 -51 79 -40 149 27 178 66
28 94 31 287 30 l190 -2 3 -28z m5205 -206 c-1 -76 -6 -128 -13 -135 -6 -6
-57 -12 -123 -14 -112 -3 -112 -3 -139 25 -14 15 -40 53 -57 83 -17 30 -38 68
-46 83 -28 50 -5 62 153 77 42 4 111 7 152 6 l75 -1 -2 -124z m-6923 -166 c0
-13 -9 -48 -21 -76 -11 -29 -19 -68 -17 -88 3 -35 4 -36 48 -39 25 -2 68 1 95
7 78 16 159 22 172 14 11 -8 -6 -80 -36 -148 -35 -82 -52 -137 -46 -155 6 -19
14 -20 124 -20 83 0 121 -4 128 -12 26 -34 61 -874 37 -898 -7 -7 -28 -4 -70
11 -32 11 -90 27 -129 35 -84 18 -119 49 -130 115 -4 24 -15 64 -25 89 -10 25
-28 72 -41 105 -45 122 -76 188 -244 530 -186 379 -197 402 -193 428 2 17 11
23 38 25 108 7 199 37 259 83 33 26 51 24 51 -6z m-648 -84 c23 -9 47 -71 78
-201 31 -125 60 -301 60 -356 0 -30 -3 -34 -27 -34 -36 0 -162 82 -233 151
-31 30 -95 98 -143 151 -124 137 -248 226 -340 243 -20 4 -37 11 -37 15 0 15
48 20 225 21 149 1 358 11 387 17 4 1 17 -2 30 -7z"/>
<path d="M9715 9123 c-50 -36 -273 -213 -297 -236 -23 -22 -132 -94 -173 -115
-67 -33 -170 -55 -229 -48 -59 8 -45 18 -140 -99 -33 -41 -175 -157 -226 -186
-19 -11 -48 -28 -65 -38 -49 -30 -99 -57 -166 -92 -76 -39 -131 -78 -124 -89
2 -4 28 -10 57 -14 74 -10 142 -42 182 -86 34 -38 42 -70 45 -174 1 -16 3 -31
4 -33 2 -2 39 8 83 22 82 27 238 56 404 75 164 20 213 61 314 266 36 73 66
138 66 143 0 6 12 17 27 24 26 14 28 13 57 -27 35 -49 122 -217 154 -301 13
-33 28 -70 33 -82 11 -28 63 -31 98 -6 70 48 117 66 177 66 35 0 73 -7 92 -17
36 -18 68 -21 77 -5 6 9 -16 95 -46 184 -6 17 -16 53 -23 82 -23 94 -31 100
-134 102 -69 1 -106 7 -158 27 -118 44 -220 124 -207 162 11 33 55 146 63 161
5 9 17 36 28 61 11 25 40 92 64 150 25 58 49 117 52 133 6 23 3 27 -16 26 -13
0 -45 -17 -73 -36z"/>
<path d="M7690 8369 c-25 -5 -179 -8 -342 -6 -163 1 -300 -1 -304 -5 -3 -4 -7
-38 -8 -75 l-1 -68 -93 -3 c-71 -2 -94 -6 -99 -18 -6 -15 37 -85 74 -119 45
-42 60 -51 116 -73 49 -18 79 -22 175 -22 65 0 160 7 212 15 177 27 192 22
166 -60 -9 -30 -14 -64 -11 -75 6 -18 10 -16 55 19 69 55 109 66 220 64 73 -1
120 -9 205 -33 233 -68 229 -67 254 -51 14 9 5 57 -35 196 -77 265 -87 294
-101 300 -8 2 -37 -17 -66 -45 -172 -162 -281 -171 -321 -28 -29 102 -26 100
-96 87z"/>
<path d="M16290 3155 c0 -1071 0 -1086 21 -1147 34 -102 112 -199 204 -252 88
-52 127 -56 542 -56 l383 0 0 220 0 220 -362 2 -363 3 -3 513 -2 512 365 0
365 0 0 220 0 220 -362 2 -363 3 -3 313 -2 312 -210 0 -210 0 0 -1085z"/>
<path d="M17690 2970 l0 -1270 215 0 215 0 0 735 0 735 515 0 515 0 0 -735 0
-735 215 0 215 0 0 764 c0 737 -1 766 -20 829 -36 117 -132 225 -250 281 l-65
31 -562 3 -563 3 -2 312 -3 312 -212 3 -213 2 0 -1270z"/>
<path d="M5763 4049 c-85 -27 -177 -98 -230 -177 -82 -122 -78 -74 -78 -987
l0 -810 23 -68 c43 -123 145 -231 265 -281 51 -21 61 -21 841 -24 703 -2 795
-1 845 14 81 23 128 50 189 108 64 59 90 98 123 181 24 60 24 60 27 548 l3
487 -480 0 -481 0 0 -220 0 -220 260 0 260 0 0 -230 0 -230 -722 2 -723 3 0
740 0 740 723 3 722 2 0 -105 0 -105 221 0 222 0 -6 143 c-6 157 -22 223 -76
299 -69 100 -145 159 -244 190 -55 17 -111 18 -840 17 -750 0 -785 -1 -844
-20z"/>
<path d="M8409 3591 c-109 -35 -218 -134 -272 -249 l-32 -67 -3 -787 -3 -788
211 0 210 0 2 733 3 732 528 3 527 2 0 220 0 220 -557 -1 c-508 0 -563 -2
-614 -18z"/>
<path d="M10090 3590 c-157 -57 -273 -197 -299 -360 -14 -87 -14 -1063 0
-1150 28 -176 171 -330 340 -369 28 -7 326 -11 797 -11 l752 0 0 220 0 220
-735 0 -735 0 0 145 0 145 733 2 732 3 3 365 c2 226 -1 390 -8 430 -24 143
-123 276 -255 341 l-70 34 -600 2 c-577 3 -602 2 -655 -17z m1160 -565 l0
-145 -520 0 -520 0 0 145 0 145 520 0 520 0 0 -145z"/>
<path d="M12263 3600 c-110 -26 -239 -133 -292 -241 -48 -100 -53 -163 -49
-754 3 -503 5 -533 24 -590 51 -148 169 -263 310 -300 49 -13 172 -15 811 -15
l753 0 0 220 0 220 -735 0 -735 0 0 145 0 145 735 0 735 0 0 379 c0 211 -4
402 -10 432 -25 135 -131 272 -257 332 l-68 32 -595 2 c-327 1 -609 -2 -627
-7z m1127 -575 l0 -145 -520 0 -520 0 0 145 0 145 520 0 520 0 0 -145z"/>
<path d="M14380 3591 c-135 -43 -245 -152 -289 -288 -20 -60 -21 -84 -21 -648
0 -565 1 -588 21 -647 39 -115 122 -208 238 -266 l75 -37 778 -3 778 -3 0 221
0 220 -732 2 -733 3 -3 143 -3 142 736 0 735 0 0 388 c0 414 -4 452 -53 550
-38 78 -121 158 -205 199 l-76 38 -595 2 c-547 2 -600 1 -651 -16z m1150 -566
l0 -145 -520 0 -520 0 0 145 0 145 520 0 520 0 0 -145z"/>
</g>
</svg>
