<svg width="21" height="20" viewBox="0 0 21 20" fill="none" xmlns="http://www.w3.org/2000/svg">
<path d="M10.3559 0.98978C10.3643 0.966722 10.3751 0.956598 10.3838 0.95078C10.3947 0.943609 10.4105 0.938177 10.4294 0.938177C10.4483 0.938177 10.4641 0.943609 10.475 0.95078C10.4838 0.956598 10.4946 0.966722 10.5029 0.98978L12.6989 7.07963C12.8108 7.38991 13.1006 7.60052 13.4303 7.61105L19.9007 7.81772C19.9252 7.8185 19.9382 7.82564 19.9464 7.8322C19.9566 7.84029 19.9667 7.85367 19.9725 7.87164C19.9783 7.8896 19.9781 7.90634 19.9746 7.91886C19.9718 7.92902 19.9655 7.94242 19.9461 7.95745L14.8329 11.9279C14.5724 12.1301 14.4617 12.4709 14.5536 12.7877L16.3565 19.0053C16.3633 19.0288 16.3605 19.0434 16.3568 19.0532C16.3523 19.0654 16.3426 19.0791 16.3274 19.0902C16.3121 19.1013 16.2961 19.1062 16.2831 19.1068C16.2726 19.1073 16.2579 19.1054 16.2376 19.0916L10.8815 15.4556C10.6086 15.2704 10.2503 15.2704 9.97736 15.4556L4.62122 19.0916C4.60094 19.1054 4.58625 19.1073 4.57572 19.1068C4.56274 19.1062 4.54674 19.1013 4.53145 19.0902C4.51617 19.0791 4.50655 19.0654 4.502 19.0532C4.49831 19.0434 4.49552 19.0288 4.50235 19.0053L6.30526 12.7877C6.39712 12.4709 6.2864 12.1301 6.02588 11.9279L0.912692 7.95745C0.893333 7.94242 0.887039 7.92902 0.884224 7.91886C0.880753 7.90634 0.880479 7.8896 0.886317 7.87164C0.892154 7.85367 0.902212 7.84029 0.912382 7.8322C0.920632 7.82563 0.933597 7.8185 0.958095 7.81772L7.42849 7.61105C7.75816 7.60052 8.04804 7.38991 8.15993 7.07963L10.3559 0.98978Z" stroke="black" stroke-width="0.726757"/>
</svg>
