<svg width="64" height="64" viewBox="0 0 64 64" fill="none" xmlns="http://www.w3.org/2000/svg">
<rect width="64" height="64" rx="8" fill="#008000"/>
<path d="M42.5 18.5H21.5C19.85 18.5 18.5 19.85 18.5 21.5V42.5C18.5 44.15 19.85 45.5 21.5 45.5H42.5C44.15 45.5 45.5 44.15 45.5 42.5V21.5C45.5 19.85 44.15 18.5 42.5 18.5ZM33.545 24.59L35.135 23L37.25 25.115L39.365 23L40.955 24.59L38.84 26.705L40.955 28.82L39.365 30.41L37.25 28.31L35.135 30.425L33.545 28.835L35.66 26.72L33.545 24.59ZM23.375 25.58H30.875V27.83H23.375V25.58ZM31.25 38H28.25V41H26V38H23V35.75H26V32.75H28.25V35.75H31.25V38ZM41 39.875H33.5V37.625H41V39.875ZM41 36.125H33.5V33.875H41V36.125Z" fill="white"/>
</svg>
