<svg width="65" height="64" viewBox="0 0 65 64" fill="none" xmlns="http://www.w3.org/2000/svg">
<rect x="0.5" width="64" height="64" rx="8" fill="#008000"/>
<path d="M43 18.5H22C20.335 18.5 19 19.85 19 21.5V42.5C19 44.15 20.335 45.5 22 45.5H43C44.65 45.5 46 44.15 46 42.5V21.5C46 19.85 44.665 18.5 43 18.5ZM43 42.5H22V24.5H43V42.5ZM34.75 33.5C34.75 34.745 33.745 35.75 32.5 35.75C31.255 35.75 30.25 34.745 30.25 33.5C30.25 32.255 31.255 31.25 32.5 31.25C33.745 31.25 34.75 32.255 34.75 33.5ZM32.5 27.5C28.405 27.5 24.91 29.99 23.5 33.5C24.91 37.01 28.405 39.5 32.5 39.5C36.595 39.5 40.09 37.01 41.5 33.5C40.09 29.99 36.595 27.5 32.5 27.5ZM32.5 37.25C30.43 37.25 28.75 35.57 28.75 33.5C28.75 31.43 30.43 29.75 32.5 29.75C34.57 29.75 36.25 31.43 36.25 33.5C36.25 35.57 34.57 37.25 32.5 37.25Z" fill="white"/>
</svg>
