<svg width="64" height="64" viewBox="0 0 64 64" fill="none" xmlns="http://www.w3.org/2000/svg">
<rect width="64" height="64" rx="8" fill="#008000"/>
<path d="M44.57 26.8549L42.725 29.6299C43.6148 31.4045 44.0504 33.3722 43.9928 35.3565C43.9352 37.3409 43.3862 39.2799 42.395 40.9999H21.605C20.3168 38.7651 19.783 36.1746 20.0827 33.6125C20.3825 31.0505 21.4999 28.6532 23.2692 26.7761C25.0386 24.899 27.3657 23.642 29.9056 23.1915C32.4455 22.741 35.063 23.1209 37.37 24.2749L40.145 22.4299C37.3197 20.6183 33.9685 19.8064 30.6273 20.1243C27.2862 20.4422 24.1482 21.8715 21.7153 24.1835C19.2823 26.4954 17.6951 29.5565 17.2073 32.8772C16.7196 36.1978 17.3596 39.586 19.025 42.4999C19.2868 42.9534 19.6626 43.3304 20.1153 43.5935C20.5679 43.8567 21.0815 43.9968 21.605 43.9999H42.38C42.9086 44.002 43.4284 43.8644 43.8868 43.601C44.3451 43.3376 44.7257 42.9578 44.99 42.4999C46.3721 40.1058 47.0657 37.3763 46.9942 34.6129C46.9227 31.8494 46.089 29.1594 44.585 26.8399L44.57 26.8549ZM29.885 37.1149C30.1636 37.3939 30.4945 37.6151 30.8587 37.7661C31.2229 37.9171 31.6133 37.9948 32.0075 37.9948C32.4018 37.9948 32.7921 37.9171 33.1563 37.7661C33.5205 37.6151 33.8514 37.3939 34.13 37.1149L42.62 24.3799L29.885 32.8699C29.6061 33.1486 29.3848 33.4794 29.2338 33.8436C29.0829 34.2078 29.0052 34.5982 29.0052 34.9924C29.0052 35.3867 29.0829 35.7771 29.2338 36.1413C29.3848 36.5055 29.6061 36.8363 29.885 37.1149V37.1149Z" fill="white"/>
</svg>
