<?xml version="1.0" standalone="no"?>
<!DOCTYPE svg PUBLIC "-//W3C//DTD SVG 20010904//EN"
 "http://www.w3.org/TR/2001/REC-SVG-20010904/DTD/svg10.dtd">
<svg version="1.0" xmlns="http://www.w3.org/2000/svg"
 width="1007.000000pt" height="1280.000000pt" viewBox="0 0 1007.000000 1280.000000"
 preserveAspectRatio="xMidYMid meet">
<metadata>
Created by potrace 1.15, written by Peter Selinger 2001-2017
</metadata>
<g transform="translate(0.000000,1280.000000) scale(0.100000,-0.100000)"
fill="#000000" stroke="none">
<path d="M1270 12789 c-241 -31 -492 -132 -681 -274 -108 -81 -259 -238 -327
-340 -326 -488 -347 -1142 -55 -1685 248 -461 672 -784 1173 -891 142 -31 459
-34 590 -6 293 63 536 193 741 398 260 261 411 614 426 1004 35 881 -614 1667
-1477 1790 -113 16 -285 18 -390 4z"/>
<path d="M6243 12595 c-346 -94 -555 -349 -620 -759 -19 -122 -13 -366 11
-465 40 -157 110 -282 218 -388 81 -80 105 -97 182 -138 204 -106 450 -78 681
78 154 105 272 292 329 522 58 236 44 528 -35 717 -85 204 -281 382 -476 432
-74 20 -219 20 -290 1z"/>
<path d="M4343 12589 c-176 -21 -333 -100 -468 -234 -155 -154 -225 -323 -226
-548 -1 -111 2 -143 22 -242 33 -157 121 -359 209 -476 64 -85 173 -188 241
-227 174 -99 406 -108 631 -25 144 54 309 189 386 316 83 137 116 262 116 427
-2 309 -130 621 -339 826 -87 86 -203 153 -295 173 -72 15 -199 20 -277 10z"/>
<path d="M7945 11855 c-346 -72 -665 -503 -665 -900 0 -173 53 -306 172 -431
164 -172 385 -252 622 -223 164 20 291 84 422 215 162 162 278 395 304 612 25
207 -36 378 -192 534 -61 61 -96 86 -170 122 -51 25 -120 53 -153 61 -87 23
-255 28 -340 10z"/>
<path d="M9373 10640 c-287 -75 -527 -336 -594 -645 -18 -85 -16 -246 5 -325
25 -93 80 -192 142 -255 301 -305 846 -138 1063 327 62 131 75 193 75 343 -1
113 -4 139 -26 202 -36 101 -72 158 -142 228 -132 129 -328 176 -523 125z"/>
<path d="M5285 10524 c-493 -37 -871 -117 -1250 -265 -361 -141 -604 -297
-835 -535 -206 -213 -344 -413 -484 -704 -351 -726 -388 -1580 -94 -2164 219
-438 588 -694 1093 -761 375 -50 589 -96 835 -180 698 -240 1141 -667 1266
-1224 34 -153 47 -340 34 -504 -17 -230 -70 -396 -234 -732 -98 -200 -183
-353 -525 -940 -175 -301 -370 -687 -434 -861 -91 -244 -125 -445 -106 -626
29 -289 151 -520 365 -697 194 -161 432 -259 746 -308 155 -24 541 -24 718 0
412 57 662 123 883 233 208 103 368 223 572 428 299 299 544 660 790 1161 508
1035 846 2370 967 3815 17 210 17 945 0 1105 -17 153 -64 457 -102 650 -128
665 -298 1127 -555 1515 -114 171 -197 273 -345 420 -310 310 -700 562 -1235
798 -468 206 -824 304 -1306 357 -136 15 -646 28 -764 19z"/>
</g>
</svg>
