<?xml version="1.0" standalone="no"?>
<!DOCTYPE svg PUBLIC "-//W3C//DTD SVG 20010904//EN"
 "http://www.w3.org/TR/2001/REC-SVG-20010904/DTD/svg10.dtd">
<svg version="1.0" xmlns="http://www.w3.org/2000/svg"
 width="1280.000000pt" height="1184.000000pt" viewBox="0 0 1280.000000 1184.000000"
 preserveAspectRatio="xMidYMid meet">
<metadata>
Created by potrace 1.15, written by Peter Selinger 2001-2017
</metadata>
<g transform="translate(0.000000,1184.000000) scale(0.100000,-0.100000)"
fill="#000000" stroke="none">
<path d="M6187 11826 c-9 -7 -22 -26 -27 -42 -6 -17 -18 -31 -28 -32 -9 -1
-32 -3 -49 -5 -36 -4 -40 1 -20 23 6 8 0 5 -14 -8 -14 -12 -31 -22 -37 -22 -7
0 -17 -12 -23 -26 -5 -15 -12 -24 -15 -21 -3 3 2 19 11 37 20 39 14 49 -13 20
-13 -14 -22 -18 -27 -10 -8 12 -42 4 -65 -16 -13 -11 -20 -10 -43 10 -15 13
-27 27 -27 32 0 19 -31 53 -44 48 -32 -12 -41 -88 -15 -121 17 -19 1 -32 -33
-28 -23 3 -35 -1 -45 -14 -22 -33 -82 -13 -83 27 0 10 -4 10 -16 -2 -22 -22
-27 -20 -42 14 -8 17 -22 35 -33 41 -28 14 -37 -16 -16 -53 16 -27 16 -28 -8
-28 -13 0 -25 5 -27 11 -7 20 -73 1 -104 -29 -20 -20 -26 -22 -21 -9 11 29
-37 80 -79 84 -32 3 -39 -3 -35 -29 0 -5 -13 -8 -30 -8 -24 0 -30 -3 -25 -16
20 -53 19 -60 -21 -70 -33 -8 -41 -6 -61 13 -34 34 -55 30 -50 -9 3 -18 8 -40
12 -49 5 -12 -1 -15 -36 -15 -42 1 -43 0 -40 -29 2 -16 7 -35 12 -40 5 -6 6
-22 3 -35 -6 -23 -7 -23 -19 10 l-12 35 -1 -37 c-1 -43 -12 -53 -41 -38 -21
11 -27 1 -9 -17 13 -13 3 -53 -13 -53 -5 0 2 -14 17 -31 17 -21 23 -35 16 -42
-5 -5 -7 -16 -4 -23 3 -8 -1 -14 -8 -14 -20 0 -69 -62 -69 -87 0 -31 15 -37
45 -17 39 25 42 -4 6 -57 -16 -24 -27 -48 -24 -52 8 -13 72 -1 92 17 14 13 16
11 17 -23 2 -53 21 -86 40 -70 8 6 14 17 14 25 0 7 5 16 11 19 7 5 8 -5 3 -32
-4 -21 -7 -46 -6 -55 1 -20 -29 -33 -39 -16 -6 9 -13 9 -33 -2 -23 -12 -28
-11 -44 3 -44 40 -80 8 -70 -63 4 -25 2 -28 -14 -19 -9 5 -30 31 -45 57 -23
39 -29 43 -31 25 -2 -12 4 -33 14 -47 16 -26 16 -26 -9 -26 -34 0 -39 -11 -21
-44 15 -31 19 -50 5 -27 -7 10 -15 7 -36 -18 -16 -17 -34 -31 -42 -31 -11 0
-19 34 -14 63 3 17 -17 4 -58 -38 -43 -43 -44 -44 -61 -26 -9 11 -28 23 -43
26 -23 6 -27 4 -27 -13 0 -12 4 -32 9 -45 13 -35 2 -41 -26 -15 -25 23 -29 19
-13 -13 9 -15 7 -19 -7 -17 -46 4 -54 -1 -43 -23 7 -11 9 -23 6 -27 -3 -3 -6
-3 -6 1 0 3 -12 2 -28 -4 -34 -12 -58 -47 -43 -62 17 -17 13 -33 -14 -47 -32
-17 -31 -25 3 -45 24 -15 27 -22 24 -53 -4 -36 -4 -37 15 -19 11 9 30 17 43
17 21 0 17 -6 -31 -51 -30 -28 -45 -47 -34 -44 49 17 55 17 55 1 0 -9 -11 -28
-25 -42 -14 -14 -25 -29 -25 -34 0 -4 -8 -7 -17 -5 -10 2 -21 4 -24 4 -4 1 -9
18 -13 40 -3 21 -13 44 -21 51 -8 7 -15 26 -15 43 0 35 -19 106 -33 125 -6 7
-17 10 -25 7 -8 -3 -20 3 -28 12 -17 23 -48 7 -52 -28 -5 -34 -20 -46 -28 -23
-4 10 -16 30 -27 44 l-20 25 7 -27 c9 -39 -10 -35 -35 7 -26 43 -43 44 -59 5
-7 -16 -20 -32 -30 -35 -17 -5 -47 -61 -42 -77 1 -5 -2 -8 -7 -8 -6 0 -3 -12
5 -27 17 -33 18 -43 4 -43 -5 0 -10 6 -10 14 0 7 -7 19 -16 27 -8 7 -13 21
-11 30 3 10 -1 20 -8 23 -17 6 -27 -5 -16 -18 16 -19 -82 -6 -109 14 l-25 19
33 34 c18 18 29 37 25 41 -4 4 -8 17 -8 29 0 18 -5 22 -30 20 -16 -1 -37 -11
-47 -23 -21 -26 -32 -26 -18 1 6 11 10 25 7 32 -5 16 -57 -37 -57 -58 0 -9 -6
-15 -12 -13 -8 3 -14 27 -16 61 -3 63 -17 75 -27 25 -11 -52 -22 -60 -50 -33
-14 12 -25 28 -25 34 0 29 -74 101 -105 101 -3 0 -5 -19 -3 -42 3 -38 0 -44
-24 -56 -24 -11 -28 -19 -28 -57 l0 -44 -45 20 c-75 33 -126 4 -69 -40 24 -19
25 -22 13 -50 -10 -23 -18 -29 -34 -25 -17 4 -21 1 -19 -23 0 -22 6 -29 31
-34 16 -3 35 -9 41 -13 6 -3 15 2 21 11 5 10 13 14 17 10 5 -5 4 -11 -1 -15
-11 -8 -17 -63 -7 -60 4 2 20 -10 36 -25 16 -15 23 -27 17 -27 -16 0 -42 -26
-58 -57 -16 -30 -1 -38 62 -30 39 4 45 2 45 -14 0 -12 5 -16 15 -13 12 5 12 0
5 -26 -12 -40 -6 -36 -60 -48 l-45 -9 44 -8 44 -8 -29 -16 -29 -16 33 -3 c37
-4 40 -16 12 -52 -15 -19 -20 -21 -20 -9 0 9 -7 20 -16 23 -20 8 -58 -75 -52
-115 6 -40 -15 -32 -23 9 -12 57 -58 94 -84 68 -8 -8 -15 -22 -15 -31 0 -11
-5 -15 -15 -11 -19 7 -19 -8 0 -24 8 -7 15 -19 15 -28 0 -12 -5 -10 -21 7 -17
18 -28 22 -54 17 -30 -6 -33 -5 -28 15 4 15 2 20 -5 15 -6 -4 -18 5 -28 19
-24 37 -37 31 -32 -15 2 -22 0 -40 -4 -40 -14 0 -22 25 -19 59 2 28 0 33 -13
28 -12 -5 -21 3 -33 28 -17 35 -31 43 -48 25 -7 -6 -9 11 -7 46 4 53 3 55 -20
49 -15 -4 -30 1 -44 14 -37 34 -59 31 -62 -8 -3 -26 2 -40 23 -59 15 -14 24
-30 21 -39 -3 -8 -6 -19 -6 -24 0 -6 -4 -7 -10 -4 -5 3 -10 16 -10 27 0 37
-39 88 -67 88 -22 0 -24 3 -19 26 7 25 5 26 -22 21 -22 -5 -34 -1 -47 13 -27
30 -37 24 -35 -17 3 -56 1 -59 -16 -35 -17 25 -29 27 -67 10 -29 -14 -33 -28
-17 -59 10 -18 8 -19 -29 -13 -40 6 -111 -10 -111 -26 0 -13 65 -23 100 -16
44 8 36 -6 -14 -27 -43 -18 -74 -43 -64 -52 2 -3 28 1 56 9 28 7 54 10 58 7 3
-3 9 -6 12 -6 4 0 19 -9 34 -19 33 -22 58 -15 59 16 l0 23 10 -23 c11 -30 4
-42 -24 -42 -12 0 -40 -11 -62 -23 -39 -22 -40 -25 -37 -70 2 -28 -1 -47 -7
-47 -6 0 -11 9 -11 20 0 36 -39 102 -58 98 -24 -5 -17 -63 14 -111 23 -36 24
-40 10 -56 -18 -20 -21 -41 -6 -41 6 0 10 -5 10 -11 0 -6 -7 -9 -15 -5 -8 3
-25 2 -37 -3 -21 -8 -21 -8 6 -15 27 -7 28 -8 11 -26 -10 -11 -25 -20 -34 -20
-14 1 -13 2 2 11 28 16 10 28 -26 16 -55 -18 -96 -37 -103 -48 -10 -17 3 -21
24 -8 24 15 48 7 54 -19 5 -18 1 -19 -47 -15 -29 3 -56 0 -59 -5 -10 -16 -61
8 -77 37 -14 24 -14 30 3 66 24 53 23 69 -2 62 -12 -3 -33 1 -47 8 -22 12 -24
15 -10 21 9 3 41 4 72 2 30 -1 55 0 55 3 0 11 -51 29 -85 29 -59 0 -64 6 -58
63 4 44 2 55 -16 71 -21 19 -21 19 -46 -38 l-25 -57 -35 36 c-42 46 -59 39
-52 -22 4 -42 4 -43 -14 -27 -18 16 -19 15 -29 -10 -5 -15 -10 -34 -10 -42 0
-18 -5 -18 -34 1 -25 17 -56 11 -56 -10 0 -8 12 -28 28 -46 21 -26 23 -31 8
-26 -16 7 -18 4 -12 -25 7 -38 -12 -88 -35 -88 -9 0 -22 -7 -29 -15 -7 -8 -16
-12 -21 -9 -5 3 -13 -6 -19 -20 -10 -27 -17 -31 -38 -18 -9 6 -2 17 26 39 27
22 38 39 40 62 3 36 -5 38 -57 11 l-39 -19 -12 29 c-14 35 -16 35 -58 14 -29
-14 -32 -20 -32 -60 0 -47 -5 -51 -34 -29 -24 18 -102 20 -112 3 -11 -18 52
-68 86 -68 43 0 37 -17 -10 -30 -39 -10 -100 -53 -90 -63 12 -12 84 -16 96 -6
11 9 14 7 14 -11 0 -15 5 -20 14 -17 9 4 16 -4 21 -21 4 -15 14 -35 22 -45 15
-16 17 -16 30 3 15 21 38 26 48 10 3 -5 -8 -16 -24 -25 -39 -19 -59 -54 -40
-66 8 -5 30 -8 49 -7 45 2 56 -5 63 -39 4 -21 -2 -36 -25 -62 -28 -32 -29 -35
-12 -42 11 -4 16 -8 12 -9 -22 -6 -46 -2 -70 10 -22 10 -30 11 -43 0 -13 -10
-15 -9 -15 8 0 28 -24 19 -61 -22 -24 -27 -30 -29 -48 -18 -12 6 -28 12 -37
12 -15 0 -15 -2 0 -25 21 -32 20 -42 -1 -23 -24 19 -70 38 -93 38 -26 0 -25
-25 1 -44 l21 -14 -24 -12 c-12 -7 -25 -15 -28 -17 -2 -2 15 -21 39 -42 l44
-38 -47 -22 c-25 -13 -46 -27 -46 -32 0 -12 70 -40 81 -33 5 3 9 -2 9 -10 0
-9 5 -16 10 -16 18 0 10 -50 -10 -62 -27 -17 -25 -32 2 -25 12 4 28 1 35 -5 9
-7 17 -7 28 2 20 17 38 2 31 -25 -4 -14 -1 -25 7 -28 6 -2 -2 -11 -20 -20 -19
-10 -30 -23 -27 -30 3 -8 -2 -20 -11 -27 -8 -7 -15 -17 -15 -23 0 -5 9 -2 20
8 19 17 21 17 66 -5 36 -16 44 -24 33 -31 -8 -5 -22 -6 -32 -3 -11 4 -23 -1
-31 -11 -12 -16 -15 -16 -47 -2 -19 8 -45 18 -58 22 -32 10 -19 -10 20 -30 35
-18 37 -32 6 -37 -20 -4 -18 -6 13 -19 41 -19 71 -49 48 -49 -8 0 -18 4 -24
10 -10 10 -84 -18 -84 -32 0 -20 50 -39 87 -32 l38 7 -42 -40 c-24 -22 -43
-45 -43 -51 0 -6 -3 -17 -6 -26 -11 -27 22 -18 54 16 26 26 34 29 46 19 8 -7
18 -21 21 -31 3 -10 15 -20 25 -23 35 -9 21 -27 -20 -27 -55 0 -52 -22 5 -50
49 -24 51 -35 6 -45 -16 -3 -36 -14 -45 -24 -16 -17 -15 -19 14 -31 21 -9 30
-19 30 -36 l0 -23 -45 20 c-42 19 -88 18 -100 -1 -9 -15 44 -59 80 -66 19 -3
35 -10 35 -15 0 -11 -2 -11 -57 0 -35 7 -45 5 -59 -10 -9 -10 -13 -26 -10 -36
7 -23 -8 -47 -25 -41 -8 3 -22 -2 -32 -11 -17 -14 -19 -14 -28 2 -13 23 -21
22 -54 -7 -25 -22 -27 -28 -22 -71 l7 -46 -28 16 c-15 9 -36 23 -47 31 -19 14
-19 15 9 39 40 35 29 59 -24 51 -45 -6 -46 -5 -26 27 14 22 19 46 17 79 -1 11
-7 15 -21 11 -11 -3 -27 0 -35 7 -19 16 -34 5 -51 -37 -9 -19 -19 -31 -25 -27
-6 4 -15 0 -20 -7 -8 -12 -11 -11 -20 4 -10 18 -60 47 -79 47 -8 0 -9 -11 -5
-31 5 -23 3 -34 -10 -43 -16 -11 -16 -14 -1 -29 15 -15 13 -16 -21 -19 -32 -2
-38 -7 -37 -25 0 -12 -4 -21 -10 -20 -16 3 -15 -34 1 -60 12 -21 12 -23 -9
-23 -24 0 -78 -46 -78 -67 0 -16 24 -17 51 -3 16 9 19 7 19 -15 0 -18 -5 -25
-20 -25 -11 0 -20 -7 -20 -15 0 -9 -7 -29 -15 -45 -17 -33 -27 -100 -15 -100
4 0 20 14 34 31 19 22 26 42 26 71 0 38 1 40 25 34 14 -4 25 -2 25 3 0 11 62
51 79 51 16 0 13 -27 -4 -34 -12 -4 -13 -10 -3 -33 7 -15 15 -30 19 -33 20
-17 16 -41 -11 -60 -40 -29 -39 -50 3 -51 51 -2 60 1 90 29 30 28 35 52 12 52
-8 0 -15 5 -15 10 0 6 12 10 26 10 21 0 24 4 19 20 -8 25 3 26 20 3 11 -15 15
-15 29 -4 9 7 16 9 16 3 0 -14 -26 -33 -41 -30 -7 2 -13 -4 -14 -12 0 -8 -10
-33 -21 -55 -24 -45 -18 -89 15 -119 18 -17 19 -16 32 21 16 46 14 91 -4 120
-4 6 -2 15 4 18 13 9 13 9 28 -43 13 -45 34 -72 71 -92 18 -10 22 -9 27 9 7
27 33 27 33 1 0 -11 -3 -19 -7 -18 -5 1 -21 -4 -37 -11 -21 -8 -32 -9 -42 0
-11 9 -14 7 -14 -9 0 -26 -16 -38 -70 -52 -25 -7 -49 -15 -55 -18 -18 -11 43
-20 86 -12 56 10 62 4 24 -25 -16 -13 -31 -22 -34 -19 -2 2 3 10 13 17 15 11
9 13 -38 13 -36 0 -56 -4 -56 -12 0 -6 -10 -19 -23 -28 l-22 -17 26 4 c16 2
36 -4 50 -15 l24 -19 -35 5 c-19 2 -44 1 -55 -4 -19 -7 -19 -8 -2 -15 10 -4
37 -5 60 -2 l42 5 -40 -20 c-22 -12 -58 -27 -80 -34 -35 -11 -37 -13 -12 -13
29 -1 95 28 136 60 13 11 18 19 12 19 -7 0 -9 5 -6 11 4 6 14 8 23 4 24 -9 61
32 56 62 -3 17 -1 24 8 20 7 -2 12 -14 11 -26 -2 -17 2 -21 28 -21 26 0 30 -3
24 -17 -4 -10 -10 -27 -12 -38 -5 -19 -5 -19 17 2 l23 21 23 -34 c34 -49 31
-58 -15 -51 -32 4 -43 1 -61 -18 -12 -13 -19 -28 -16 -34 4 -5 -3 -13 -14 -16
-21 -7 -22 -32 -1 -27 25 5 8 -14 -27 -30 -26 -13 -30 -17 -12 -13 23 4 24 3
7 -10 -10 -7 -21 -27 -23 -44 -4 -26 -2 -31 15 -31 27 0 27 -16 1 -23 -13 -3
-24 1 -30 14 -22 40 -70 19 -70 -31 0 -14 -12 -19 -66 -25 -84 -9 -95 1 -54
49 23 25 27 36 17 36 -9 0 -22 -6 -29 -13 -7 -8 -19 -12 -26 -9 -6 2 -16 -8
-22 -23 -13 -34 -31 -23 -23 15 4 20 1 30 -7 30 -16 0 -70 -32 -70 -42 0 -4
-3 -8 -8 -8 -4 0 -7 16 -8 35 -1 41 -5 48 -27 39 -9 -3 -20 -24 -24 -47 -5
-22 -14 -42 -20 -44 -18 -6 -43 51 -43 101 0 45 -16 96 -31 96 -12 0 -39 -42
-33 -52 3 -4 1 -8 -4 -8 -5 0 -8 -8 -7 -18 2 -25 42 -92 55 -92 5 0 10 -4 10
-9 0 -5 -8 -7 -18 -4 -10 2 -30 -1 -46 -7 -27 -10 -28 -11 -12 -29 16 -18 16
-20 -6 -37 -13 -11 -22 -27 -20 -36 5 -28 -14 -21 -52 18 -24 25 -42 35 -58
32 -57 -8 -13 -92 46 -86 16 2 31 -2 33 -9 7 -20 -32 -24 -66 -7 -32 16 -93
13 -116 -6 -20 -16 -53 -15 -74 4 -22 20 -30 9 -8 -13 9 -11 9 -14 0 -18 -7
-3 -13 -11 -13 -19 0 -12 4 -12 20 -4 11 6 25 8 30 5 6 -3 10 -1 10 4 0 6 12
11 27 11 24 0 25 -1 11 -17 -26 -30 -29 -64 -7 -70 29 -8 23 -21 -21 -43 -22
-11 -40 -23 -40 -26 0 -9 73 6 88 19 10 8 16 7 22 -3 6 -9 -1 -22 -21 -41 -39
-36 -37 -58 2 -25 33 28 60 36 40 12 -6 -7 -13 -27 -15 -44 -2 -17 -18 -48
-36 -68 -27 -32 -30 -38 -16 -46 16 -9 69 -5 100 7 17 7 18 5 11 -21 -19 -72
-22 -93 -15 -103 4 -7 12 -1 20 16 l14 28 6 -50 c5 -43 6 -46 13 -25 19 58 29
70 49 59 27 -15 65 22 79 75 20 72 20 73 30 49 7 -20 12 -22 36 -12 15 6 36
18 45 26 30 27 20 2 -18 -43 -19 -24 -31 -44 -25 -44 15 0 82 92 77 106 -3 7
2 10 15 7 14 -4 19 0 19 13 0 14 3 15 12 6 9 -9 8 -16 -5 -30 -15 -16 -15 -21
-3 -31 8 -6 24 -14 36 -16 12 -2 31 -7 42 -11 19 -6 19 -6 -3 -30 -12 -13 -28
-24 -36 -24 -16 0 -17 -12 -2 -27 16 -16 4 -30 -31 -38 -17 -4 -32 -15 -36
-28 -6 -20 -7 -20 -21 -1 -8 10 -21 34 -29 52 -18 41 -25 41 -18 0 6 -32 6
-32 -9 -13 -19 24 -21 16 -6 -18 14 -31 -1 -62 -31 -64 -28 -2 -122 -33 -135
-44 -5 -6 6 -23 29 -45 32 -30 43 -35 68 -30 17 3 37 6 45 6 9 0 13 6 10 15
-4 8 -2 17 3 20 6 4 10 2 10 -4 0 -5 2 -15 5 -23 2 -7 -5 -24 -16 -38 -14 -16
-19 -19 -15 -7 8 26 -40 22 -100 -8 -27 -14 -50 -20 -52 -15 -5 13 -23 13 -54
-2 -28 -13 -44 -60 -32 -92 8 -20 0 -20 -30 -1 -28 19 -92 23 -108 7 -17 -17
27 -60 69 -68 45 -8 37 -24 -20 -41 -25 -7 -53 -23 -61 -35 -17 -24 -17 -27
10 -32 11 -3 32 -9 48 -15 27 -11 28 -12 12 -36 -21 -32 -6 -32 24 0 l24 26
18 -33 c9 -18 17 -45 18 -60 0 -16 13 -42 30 -62 l31 -34 -26 -38 c-18 -27
-22 -40 -14 -50 7 -9 6 -21 -6 -43 -17 -34 -17 -34 62 -34 31 1 31 1 18 -31
-19 -45 -28 -96 -18 -96 5 0 20 19 33 42 l24 43 10 -35 c8 -30 10 -32 14 -12
5 32 38 47 52 25 9 -14 10 -9 5 25 -3 24 -2 42 2 40 5 -2 32 -15 61 -29 41
-18 54 -30 59 -51 6 -32 8 -32 52 -17 24 8 35 8 47 -1 12 -11 16 -8 27 19 6
17 17 31 24 31 12 0 17 13 14 33 0 4 3 7 8 7 12 0 21 -27 15 -45 -9 -22 5 -38
22 -24 9 7 14 8 14 1 0 -5 9 -8 20 -5 17 4 20 0 20 -26 0 -23 -4 -29 -15 -25
-21 8 -65 -4 -65 -18 0 -6 7 -19 16 -29 14 -15 13 -18 -16 -30 -26 -12 -31
-19 -27 -41 3 -24 0 -28 -19 -28 -16 0 -29 -10 -39 -31 -16 -30 -16 -31 5 -24
25 8 62 -19 54 -40 -3 -7 10 -19 30 -29 41 -19 44 -29 15 -49 -28 -20 -2 -29
28 -10 20 13 23 12 38 -11 16 -25 16 -26 -11 -49 -35 -31 -27 -43 33 -46 26
-1 49 -6 51 -12 2 -5 11 -9 20 -9 12 0 8 -6 -10 -18 -16 -9 -28 -22 -28 -29 0
-7 -5 -13 -11 -13 -5 0 -7 -4 -4 -10 3 -5 12 -10 20 -10 8 0 25 -4 38 -9 l25
-10 -43 -46 c-48 -50 -59 -55 -61 -26 -2 36 -13 51 -39 51 -20 0 -25 -5 -25
-25 0 -20 -9 -28 -50 -46 -27 -12 -50 -24 -50 -27 0 -9 35 -31 51 -32 14 0 13
-7 -9 -49 l-27 -50 24 -21 c14 -11 36 -23 50 -26 51 -11 58 -15 36 -24 -11 -5
-32 -11 -47 -14 -15 -4 -39 -18 -54 -33 l-27 -27 29 -8 c16 -5 37 -6 47 -4 16
4 17 0 12 -26 -7 -30 -7 -30 29 -26 30 3 37 0 45 -22 6 -14 11 -36 13 -49 l3
-25 36 32 37 32 0 -25 c0 -14 -7 -26 -17 -28 -32 -9 45 -6 83 2 45 11 57 8 75
-20 9 -15 10 -24 2 -32 -17 -17 -13 -26 8 -20 16 4 19 -4 26 -59 8 -58 9 -60
15 -28 l6 35 11 -35 11 -35 1 53 c1 61 21 107 51 115 25 6 25 3 -1 -32 -12
-16 -19 -39 -17 -52 3 -22 6 -20 33 20 l30 45 6 -40 c3 -21 11 -49 17 -62 11
-20 10 -25 -15 -46 -15 -13 -25 -27 -22 -31 10 -9 80 -9 101 -1 15 7 16 3 11
-29 -6 -34 -4 -37 15 -31 15 5 22 2 27 -13 3 -10 12 -25 20 -31 12 -10 17 -7
30 21 8 19 15 30 15 24 0 -5 7 -2 15 9 13 17 15 17 30 2 9 -9 25 -21 36 -26
19 -11 21 -9 34 36 2 7 -14 42 -35 78 -21 36 -41 74 -45 85 -11 35 5 69 38 82
18 7 43 25 56 41 18 21 29 26 47 22 28 -7 31 3 7 21 -16 12 -15 15 15 43 18
16 33 25 34 19 0 -7 2 -19 2 -27 1 -17 43 -21 64 -6 21 15 25 -1 6 -28 -20
-32 -13 -43 20 -28 30 13 37 6 29 -26 -5 -20 -3 -24 10 -19 9 3 18 -1 22 -11
6 -16 7 -16 16 0 14 26 22 23 67 -23 l41 -40 11 41 c6 23 9 48 6 56 -3 7 -2
16 3 18 4 3 17 -15 29 -39 19 -40 41 -58 43 -37 0 4 2 16 4 27 5 25 -33 114
-54 124 -9 5 -24 7 -34 6 -24 -4 -21 8 5 20 12 6 27 27 35 50 19 57 35 85 45
79 4 -3 8 2 8 10 0 13 4 13 36 0 20 -8 38 -13 41 -10 12 11 -9 57 -40 87 -24
23 -26 28 -10 20 18 -9 28 -8 47 4 29 19 33 29 42 95 7 52 12 58 32 38 9 -9
12 -8 12 4 0 9 14 21 30 27 17 5 30 15 30 20 0 6 7 11 15 11 8 0 15 6 16 13 0
6 2 22 3 35 2 12 -8 38 -21 57 -22 33 -23 36 -8 59 9 13 23 27 32 30 14 6 14
9 -2 26 -12 14 -15 24 -9 30 7 7 17 4 29 -10 23 -25 55 -29 34 -4 -11 14 -10
18 6 31 19 13 19 15 2 27 -9 7 -17 21 -17 31 0 13 5 16 25 11 14 -4 36 -4 50
0 22 5 25 11 25 52 0 45 0 45 20 27 20 -18 21 -18 27 3 7 27 11 27 36 5 18
-17 19 -17 33 2 8 10 14 28 15 39 0 21 1 21 9 1 7 -18 8 -16 11 10 6 47 31 41
64 -16 29 -49 30 -50 35 -24 l5 27 28 -22 c24 -19 27 -19 27 -4 0 9 -9 31 -20
50 -14 22 -19 41 -14 58 8 33 24 34 24 2 0 -13 8 -34 18 -47 l19 -22 36 33
c21 18 37 38 37 43 0 6 -10 1 -23 -11 -30 -28 -32 -28 -35 4 -1 15 -9 41 -17
57 -23 45 -18 54 13 24 15 -15 34 -27 41 -27 8 0 11 -6 7 -15 -6 -15 19 -22
28 -7 2 4 18 9 35 10 22 2 31 -2 31 -13 0 -8 -8 -15 -19 -15 -10 0 -24 -7 -31
-15 -7 -8 -19 -15 -26 -15 -16 0 -16 0 -5 -57 7 -38 6 -43 -10 -43 -19 0 -93
-59 -85 -67 2 -2 18 3 36 12 24 12 31 13 29 3 -4 -33 1 -35 72 -31 59 3 71 2
66 -10 -6 -15 32 -88 48 -94 6 -2 17 14 25 34 l14 38 10 -27 c12 -33 37 -45
49 -23 5 10 16 14 28 10 17 -6 24 3 20 28 -2 12 10 8 37 -13 32 -26 47 -13 38
34 -11 58 -106 130 -106 81 0 -12 -6 -11 -31 7 -23 17 -43 23 -80 21 -47 -1
-72 16 -26 18 67 4 92 2 89 -9 -1 -7 2 -12 8 -12 5 0 10 5 10 11 0 6 14 24 30
39 24 23 30 36 30 72 0 24 -7 53 -15 65 -12 17 -12 27 -3 54 15 45 15 45 37
25 14 -12 32 -16 67 -14 l49 3 -36 37 c-27 27 -33 40 -25 49 8 8 4 10 -19 5
-16 -3 -37 -2 -45 4 -8 5 -10 10 -5 11 53 4 84 12 104 27 32 23 30 35 -8 47
-24 7 -31 15 -31 35 1 22 2 23 13 9 7 -9 28 -18 48 -22 31 -5 38 -2 49 19 14
26 30 32 30 12 0 -7 9 -24 20 -38 l20 -25 -2 70 c-1 39 1 78 6 88 6 12 4 17
-8 17 -10 0 -16 9 -16 23 l0 22 -19 -24 c-14 -18 -20 -21 -26 -10 -5 7 -4 14
1 16 6 2 9 17 8 33 -1 17 2 30 7 30 5 0 9 -4 9 -10 0 -12 48 -60 60 -60 22 0
15 64 -10 99 -35 51 -12 70 53 45 10 -4 24 8 41 33 27 39 33 34 15 -14 -7 -19
-7 -25 0 -18 6 6 17 28 25 50 l15 40 2 -40 c2 -32 3 -35 6 -12 4 22 8 27 21
21 9 -4 25 -7 34 -8 10 0 20 -6 22 -12 5 -14 -41 -37 -56 -27 -8 4 -9 0 -5
-11 4 -10 1 -19 -8 -22 -30 -12 -16 -34 21 -34 19 0 45 -5 57 -12 l22 -12 -24
-6 c-39 -9 -36 -29 6 -47 25 -11 51 -34 72 -65 37 -54 55 -62 45 -20 -6 26 -6
26 35 -13 49 -47 53 -36 9 29 l-31 48 24 18 c28 22 20 37 -10 20 -26 -13 -41
-6 -41 21 0 22 11 24 28 7 26 -26 36 23 18 80 -6 19 -4 22 17 22 34 0 39 10
15 29 l-20 17 31 31 c39 39 41 67 2 29 -24 -23 -29 -25 -35 -11 -3 9 -6 31 -6
48 0 27 -2 29 -12 14 -12 -15 -13 -14 -15 14 -1 17 -7 37 -13 44 -12 14 2 55
18 55 15 0 52 -31 52 -44 0 -16 42 -56 59 -56 9 0 11 9 6 31 -7 31 -6 32 21
25 16 -4 58 -9 92 -13 60 -6 64 -7 59 -29 -5 -29 3 -30 30 -5 22 21 50 19 90
-7 13 -8 28 -10 35 -6 15 10 61 6 97 -8 l26 -9 -23 -18 c-21 -15 -22 -19 -8
-30 8 -7 33 -15 56 -18 22 -3 40 -10 40 -14 0 -5 -4 -9 -8 -9 -5 0 -14 -12
-21 -26 -10 -22 -9 -30 5 -45 16 -18 19 -18 35 -3 16 14 21 15 35 3 9 -7 34
-14 56 -15 43 -1 41 -6 22 64 -5 19 -2 22 19 22 34 0 43 17 21 41 -16 18 -16
19 7 19 18 0 25 -6 26 -21 4 -43 88 -94 131 -78 26 10 28 22 7 39 -22 18 -18
29 8 23 28 -7 48 -28 69 -75 10 -21 22 -38 28 -38 5 0 10 17 10 38 l0 37 40
-45 c28 -31 40 -40 40 -27 0 19 6 21 23 7 7 -6 23 -19 37 -30 l25 -19 -31 -1
c-17 0 -38 -7 -45 -16 -11 -14 -10 -18 6 -30 10 -8 29 -14 42 -14 14 0 23 -6
23 -15 0 -8 4 -15 8 -15 5 0 18 -18 31 -40 28 -50 45 -52 39 -5 -2 19 -2 35 0
35 2 0 21 -19 43 -42 37 -42 38 -42 39 -17 0 14 -13 44 -30 67 -59 82 -10 57
208 -105 285 -212 406 -334 601 -608 185 -259 281 -412 281 -447 0 -34 -28
-191 -60 -338 -28 -131 -38 -207 -59 -445 -51 -581 -50 -736 6 -1055 32 -183
40 -384 32 -840 -6 -377 -8 -393 -74 -595 -66 -205 -80 -277 -116 -625 -5 -58
-19 -156 -30 -218 -10 -63 -19 -120 -19 -128 0 -12 99 -14 650 -14 l650 0 0
26 c0 14 -6 52 -14 83 -8 31 -22 108 -31 171 -24 166 -52 303 -80 399 -44 149
-48 193 -50 691 -2 462 5 651 35 850 16 111 11 295 -14 500 -14 107 -27 227
-31 265 -30 337 -45 453 -81 626 -16 73 -15 80 6 179 22 100 74 267 119 379
48 118 321 461 528 661 l150 145 94 31 c52 17 101 34 109 37 10 5 21 -3 33
-25 18 -32 19 -32 33 -13 9 12 14 37 13 63 -3 35 1 45 21 59 13 9 20 12 17 6
-4 -6 -4 -19 0 -29 5 -15 11 -12 37 18 33 37 136 85 157 73 8 -6 7 -10 -5 -17
-9 -5 -16 -19 -16 -30 0 -17 -3 -19 -12 -10 -17 17 -28 15 -28 -6 0 -24 53
-98 81 -113 20 -10 21 -9 15 15 -4 15 -2 26 4 26 5 0 10 -4 10 -10 0 -5 8 -10
18 -10 9 0 37 -11 61 -25 43 -25 91 -33 91 -16 0 18 -84 81 -107 81 -13 0 -23
5 -23 10 0 6 -11 23 -25 37 -16 18 -23 34 -19 48 3 12 6 30 8 40 4 27 23 30
22 3 -1 -19 3 -23 27 -20 16 2 36 -3 45 -10 14 -11 15 -10 9 6 -5 11 -3 22 3
26 17 10 77 -22 89 -47 6 -13 15 -23 21 -23 8 0 15 37 11 63 0 4 9 7 20 7 18
0 19 -2 9 -15 -10 -12 -10 -18 0 -30 7 -8 16 -15 21 -15 18 0 64 50 74 81 7
19 15 34 20 34 4 0 13 -22 20 -48 12 -47 12 -49 -18 -78 -43 -43 -28 -45 33
-4 66 44 78 44 45 1 -19 -25 -25 -44 -23 -67 3 -31 5 -29 40 41 l36 72 -44 -5
-44 -4 20 27 c11 16 20 36 20 47 1 11 8 4 21 -20 18 -35 22 -37 33 -22 11 15
13 15 25 2 10 -13 7 -21 -18 -48 -36 -37 -41 -86 -14 -139 l16 -34 9 25 c5 13
8 44 6 69 -2 38 1 49 25 73 15 15 29 27 31 27 2 0 1 -22 -2 -50 -5 -53 12 -71
24 -25 5 20 9 23 20 14 10 -8 14 -8 14 0 0 6 6 11 14 11 8 0 20 16 26 36 l12
36 27 -26 c36 -34 41 -33 41 12 0 45 -22 125 -27 100 -2 -9 -12 -16 -23 -15
-22 1 -18 42 8 70 15 17 17 17 33 -5 14 -18 25 -22 56 -19 56 4 63 17 28 49
-31 28 -45 62 -25 62 6 0 14 -8 17 -17 8 -22 20 -34 54 -56 31 -20 39 -14 39
29 0 25 -9 42 -35 69 -20 19 -42 35 -50 35 -8 0 -16 5 -16 10 -1 6 -2 16 -3
23 -2 10 19 64 30 76 1 2 17 -7 33 -19 31 -22 51 -20 51 5 0 7 12 32 27 55
l28 41 14 -30 c8 -17 19 -31 23 -31 5 0 6 4 3 10 -4 6 10 8 37 5 39 -5 45 -2
66 25 27 34 23 67 -6 55 -9 -4 -26 -8 -37 -11 -18 -3 -17 -2 4 15 13 10 33 16
47 13 14 -2 24 0 24 7 0 7 5 9 10 6 6 -4 7 -11 4 -17 -4 -6 -8 -18 -8 -27 -1
-9 -8 -34 -15 -56 -11 -35 -11 -46 3 -78 18 -45 31 -47 44 -7 12 33 8 66 -13
116 -14 35 -9 44 13 22 7 -7 12 -24 12 -39 0 -15 5 -31 10 -34 6 -3 10 -15 10
-26 0 -10 6 -19 14 -19 8 0 16 -7 20 -15 9 -23 33 -18 38 9 3 13 -1 35 -8 47
-18 33 -18 36 14 51 39 20 57 12 38 -16 -13 -21 -20 -53 -17 -83 3 -37 77 19
87 66 12 55 13 56 44 26 17 -16 30 -35 30 -42 0 -10 5 -11 17 -5 12 7 21 4 33
-11 l17 -21 7 22 c4 12 11 22 16 22 15 0 24 -52 12 -70 -6 -10 -8 -21 -5 -24
9 -9 52 -7 72 3 10 6 23 6 32 0 7 -5 10 -9 4 -9 -5 0 -5 -4 2 -8 10 -6 9 -14
-2 -36 -8 -16 -15 -30 -15 -31 0 -2 16 -9 36 -15 30 -10 38 -9 55 6 11 10 18
23 15 30 -3 7 2 15 10 18 10 4 12 2 8 -6 -5 -8 -2 -9 9 -5 21 8 22 -1 1 -24
-8 -9 -16 -25 -17 -36 -1 -26 23 -83 35 -83 6 0 5 -7 -2 -15 -7 -8 -16 -12
-21 -9 -12 7 -22 -42 -16 -80 3 -19 0 -39 -6 -45 -8 -8 -7 -11 6 -11 14 0 15
-4 7 -26 -15 -39 -13 -44 21 -44 17 0 28 -4 24 -10 -3 -5 -2 -10 4 -10 5 0 13
5 16 10 13 21 25 9 25 -25 0 -27 3 -33 15 -29 11 5 14 2 8 -12 -6 -18 -6 -18
15 -1 20 18 20 18 24 -5 4 -22 5 -22 17 7 7 17 14 42 15 57 0 16 6 28 13 28
21 0 23 -17 8 -54 -20 -46 -19 -69 3 -95 25 -32 67 -35 119 -10 24 12 45 20
47 18 2 -2 13 -23 26 -46 14 -26 34 -46 52 -52 15 -6 28 -17 28 -25 0 -24 22
-66 31 -60 5 3 9 0 9 -5 0 -6 4 -11 9 -11 12 0 19 53 10 76 -3 11 -2 25 3 32
8 9 18 8 44 -9 30 -18 35 -19 40 -5 3 9 1 30 -5 47 -16 47 -14 52 18 46 26 -5
29 -3 33 22 2 16 1 38 -3 49 -11 28 19 66 44 57 9 -4 17 -15 17 -25 0 -10 8
-28 18 -40 17 -21 19 -21 32 -4 11 12 15 40 14 91 -1 40 2 73 7 73 5 0 10 -11
10 -25 2 -42 3 -44 32 -79 15 -19 27 -42 27 -51 0 -13 4 -14 23 -4 12 7 27 19
33 28 10 13 14 9 28 -24 18 -43 34 -39 39 11 2 16 7 36 11 42 12 21 36 -6 36
-40 0 -18 4 -27 11 -22 6 3 8 17 5 30 -5 18 -2 24 9 24 9 0 18 -7 21 -15 4 -8
16 -15 29 -15 12 0 28 -7 35 -15 7 -8 30 -20 52 -27 26 -8 35 -15 28 -22 -14
-14 -13 -26 3 -26 7 0 13 -12 12 -27 0 -22 5 -29 24 -31 13 -2 28 1 34 7 17
17 27 13 27 -9 0 -29 12 -25 73 24 53 44 54 45 92 32 39 -14 75 -11 75 6 0 5
-5 18 -10 28 -9 16 -6 22 17 34 27 14 29 13 85 -40 50 -48 98 -70 98 -45 0 11
-77 81 -90 81 -6 0 -10 5 -10 10 0 7 7 7 21 -1 12 -6 32 -9 45 -6 17 3 29 -2
39 -15 25 -36 38 -11 32 58 -6 58 2 80 18 54 9 -15 81 -50 88 -44 3 3 11 3 18
-1 7 -5 -7 -15 -38 -27 -55 -20 -89 -50 -78 -68 8 -13 74 -11 93 3 9 7 12 3
12 -13 0 -13 3 -20 7 -17 3 4 14 -11 24 -33 22 -48 32 -50 49 -10 9 21 16 27
24 21 6 -5 33 -11 61 -13 44 -3 50 0 61 21 l13 25 31 -34 c21 -22 42 -34 65
-36 l34 -3 -15 36 c-9 19 -13 41 -10 48 2 7 27 15 55 17 34 3 60 13 74 27 29
26 41 27 27 2 -14 -27 -13 -64 4 -86 13 -18 15 -17 35 15 11 19 21 49 21 65 1
28 2 28 12 10 32 -55 75 -74 88 -39 12 30 -9 66 -47 84 -18 8 -33 21 -33 28 0
22 32 62 50 62 10 0 20 6 23 14 6 16 -40 82 -54 78 -17 -4 -39 63 -32 102 5
32 3 36 -16 36 -14 0 -21 6 -21 20 0 11 -4 20 -10 20 -5 0 -10 5 -10 10 0 18
-53 61 -69 58 -27 -6 -16 -66 17 -97 l29 -28 -26 -31 c-14 -17 -39 -36 -54
-41 -24 -10 -29 -8 -36 12 -5 13 -16 29 -25 36 -9 7 -16 17 -16 22 0 18 27 8
55 -21 29 -30 58 -43 35 -15 -9 10 -9 15 -1 15 22 0 10 18 -19 30 -27 11 -50
36 -50 54 0 3 11 6 25 6 25 0 33 22 17 46 -11 16 -48 34 -71 34 -26 0 -26 8
-2 34 10 12 23 35 29 52 23 70 -34 70 -67 0 -12 -23 -21 -50 -21 -59 0 -22
-29 -22 -45 0 -13 17 -14 17 -34 -1 -22 -20 -51 -16 -51 8 0 8 12 19 28 24
l27 10 -27 1 c-21 1 -27 6 -30 29 -4 35 -21 32 -32 -7 -10 -35 -21 -39 -35
-13 -7 14 -5 21 9 30 10 6 23 27 30 47 7 20 15 34 18 31 3 -3 11 3 19 14 22
31 37 24 62 -27 20 -42 24 -45 33 -28 6 10 10 40 9 66 -1 43 0 47 20 42 17 -5
20 -11 15 -33 -5 -25 -2 -28 27 -33 18 -2 42 -1 55 4 18 7 22 5 22 -11 0 -13
5 -18 15 -14 9 4 15 0 16 -10 3 -39 19 -77 47 -114 29 -38 44 -28 35 22 -12
68 -15 116 -7 116 5 0 27 -16 49 -35 43 -38 54 -42 56 -22 5 43 -3 70 -25 94
l-25 27 21 23 c12 13 27 23 34 23 14 0 67 60 60 68 -3 3 -13 -1 -22 -9 -14
-11 -18 -11 -30 5 -11 16 -11 22 1 40 22 30 19 35 -30 56 -49 21 -54 25 -27
27 55 3 72 8 70 22 -4 19 -49 52 -76 54 -12 1 -22 7 -22 14 0 8 -7 16 -15 19
-17 7 -21 44 -5 44 6 0 22 -7 35 -16 27 -18 40 -14 48 16 6 22 -38 84 -53 75
-14 -8 -21 25 -9 46 5 11 21 24 35 29 14 6 23 14 20 19 -12 19 20 17 37 -2 21
-25 23 -48 2 -41 -26 10 -16 -11 23 -48 36 -35 82 -58 82 -41 0 5 -13 25 -30
44 -21 26 -29 46 -27 68 1 17 4 31 8 31 3 0 20 -16 39 -35 18 -19 37 -32 41
-29 10 6 -7 53 -28 76 -15 17 -15 18 3 19 17 0 16 2 -3 11 -29 14 -29 26 1 37
13 5 26 17 29 25 8 20 4 20 -34 0 -38 -19 -44 -14 -40 36 1 24 -2 40 -8 40 -6
0 -11 -6 -11 -12 -1 -7 -11 7 -23 31 -24 48 -34 56 -57 41 -12 -7 -12 -16 -4
-49 l11 -39 -29 21 c-35 26 -35 40 -1 67 19 15 23 24 15 32 -6 6 -9 17 -6 24
15 50 15 50 27 34 13 -17 58 -50 68 -50 9 0 26 43 24 61 -2 9 -6 31 -10 48 -5
24 -3 30 7 26 15 -6 86 50 76 60 -11 11 -92 14 -111 3 -30 -16 -32 -1 -3 40
14 21 26 48 26 59 0 12 4 33 10 47 8 22 6 27 -13 31 -13 4 -34 2 -48 -4 -17
-6 -40 -5 -68 2 -35 9 -44 9 -52 -3 -6 -11 -11 -12 -16 -4 -27 41 -50 64 -61
64 -10 0 -12 11 -6 45 4 31 3 45 -5 45 -15 0 -61 -45 -61 -60 0 -21 -35 -4
-58 28 -36 50 -55 37 -32 -22 11 -30 4 -32 -27 -11 -19 14 -21 22 -16 66 9 77
-29 131 -57 79 -14 -27 -15 -79 -1 -113 11 -29 8 -47 -10 -47 -6 0 -7 4 -4 10
3 5 -3 28 -15 52 -12 25 -17 50 -14 62 6 18 5 19 -9 7 -10 -8 -27 -11 -42 -7
-21 5 -25 3 -25 -14 0 -19 -25 -39 -35 -28 -2 2 3 23 11 47 17 49 13 61 -18
53 -16 -4 -20 -2 -16 10 9 22 -24 60 -45 52 -9 -3 -17 -10 -17 -15 0 -4 -7 -6
-15 -3 -9 4 -15 0 -15 -9 0 -18 -69 -29 -87 -14 -19 14 -16 22 12 35 28 13 35
38 8 27 -10 -3 -29 -9 -43 -11 -24 -5 -25 -4 -25 45 0 27 5 54 10 60 12 11 65
3 65 -10 0 -13 70 -89 82 -89 14 0 -1 41 -30 79 l-26 35 24 -17 c14 -9 28 -17
32 -17 21 0 -1 97 -25 112 -17 10 -1 22 31 23 38 0 41 36 7 81 l-27 36 31 -16
c28 -15 31 -15 31 -1 0 9 -7 29 -15 45 -19 37 -3 80 29 77 15 -1 20 4 20 18 0
11 5 23 10 27 6 4 2 17 -8 33 -10 15 -16 28 -14 29 2 1 20 9 41 19 20 9 37 21
37 26 0 10 -25 9 -36 -2 -15 -14 -19 -6 -19 35 l0 43 -40 1 c-59 2 -70 10 -73
51 -1 21 -9 44 -16 51 -12 12 -17 11 -31 -11 -9 -15 -16 -42 -15 -64 4 -72 0
-104 -10 -98 -5 3 -10 17 -10 30 0 30 -10 55 -21 55 -5 0 -9 -7 -9 -15 0 -8
-5 -15 -11 -15 -6 0 -9 6 -6 14 8 21 -19 39 -50 33 -20 -4 -36 2 -57 20 -23
19 -38 24 -75 21 -37 -2 -47 1 -49 15 -5 23 -28 21 -35 -3 -4 -14 -13 -20 -34
-20 l-28 1 38 34 c43 41 47 68 17 133 -13 28 -17 49 -11 59 4 9 5 31 1 49 -10
41 6 56 20 19 6 -14 10 -28 10 -31 0 -9 35 -41 57 -53 28 -14 37 -1 29 43 -8
41 -67 101 -94 94 -12 -3 -23 2 -31 14 -10 16 -8 22 11 38 27 23 33 24 59 10
15 -9 19 -7 20 7 1 10 0 22 -1 28 -1 5 -2 18 -3 27 -1 10 -5 18 -10 18 -5 0
-4 6 2 14 8 10 9 16 1 21 -14 9 -13 25 3 19 13 -5 85 62 76 71 -13 12 -71 7
-108 -10 -52 -23 -61 -15 -27 25 32 39 38 105 8 98 -14 -4 -24 6 -41 38 -13
24 -21 51 -17 60 4 11 2 15 -8 11 -14 -6 -46 21 -46 39 0 6 16 10 36 11 51 2
61 16 28 42 -15 11 -33 21 -41 21 -9 0 -13 6 -9 15 4 10 -1 15 -15 15 -16 0
-19 4 -14 18 12 26 11 85 0 88 -18 6 -47 -24 -60 -63 -14 -39 -29 -47 -31 -16
-3 30 -21 67 -42 86 -20 18 -20 18 -28 -5 -4 -13 -7 -26 -6 -30 2 -10 -69 -61
-76 -54 -3 4 -1 16 6 26 7 11 12 32 12 47 l-1 28 -15 -25 -14 -25 1 25 c2 47
-1 60 -16 60 -9 0 -18 -7 -21 -15 -4 -8 -12 -15 -19 -15 -7 0 -16 -16 -19 -35
-6 -32 -10 -35 -41 -35 -33 0 -34 1 -25 26 6 14 15 34 20 45 6 10 7 19 2 19
-15 0 -40 -34 -48 -65 -4 -16 -14 -35 -22 -41 -12 -8 -12 -15 -3 -32 6 -12 8
-22 3 -22 -20 0 -101 -62 -96 -74 3 -7 -2 -19 -11 -26 -13 -11 -15 -9 -15 11
0 13 9 43 20 67 26 57 3 52 -26 -5 -16 -32 -24 -39 -33 -30 -12 12 -24 2 -34
-27 -2 -5 -17 -5 -35 2 -22 7 -41 8 -58 2 -21 -8 -23 -13 -14 -29 23 -45 8
-52 -19 -9 -27 42 -51 67 -51 53 0 -12 22 -50 44 -74 l21 -25 -27 17 c-37 23
-48 21 -48 -6 0 -13 -4 -27 -9 -33 -6 -5 -11 -31 -13 -59 l-3 -50 -13 35 -12
35 5 -43 5 -43 -26 17 c-22 15 -27 15 -34 3 -7 -11 -12 -11 -22 -1 -12 12 -50
16 -61 6 -3 -3 0 -26 8 -50 19 -64 3 -54 -20 12 -22 64 -35 78 -35 35 0 -35
-13 -47 -30 -26 -20 25 -31 6 -15 -26 18 -35 7 -38 -23 -6 -31 33 -33 71 -4
75 13 2 21 9 19 15 -2 7 2 20 10 29 14 15 13 18 -11 24 -14 3 -26 10 -26 14 0
5 -13 11 -30 15 -25 5 -32 14 -44 53 -9 33 -18 46 -29 44 -34 -6 -25 19 13 35
22 10 40 23 40 30 0 23 -36 48 -62 44 -11 -1 -10 7 2 30 9 16 7 19 -10 19 -11
0 -32 8 -46 17 -26 16 -26 16 -22 -13 2 -18 -4 -36 -15 -47 -16 -16 -20 -16
-47 -2 -39 20 -44 19 -57 -12 l-11 -28 -1 36 c-1 44 -21 72 -44 63 -9 -3 -17
-10 -17 -15 0 -5 -6 -9 -14 -9 -7 0 -16 -9 -19 -20 -4 -16 -14 -20 -46 -20
-54 0 -60 17 -30 82 22 48 23 51 5 63 -10 8 -16 17 -13 22 3 4 -9 9 -25 10
-17 1 -37 8 -44 14 -8 7 -16 10 -17 8 -1 -2 -9 -12 -16 -22 -12 -15 -11 -21 9
-42 l23 -25 -27 0 c-15 0 -25 4 -21 10 8 14 -24 81 -49 102 -17 14 -18 18 -5
18 9 0 24 -9 34 -20 18 -20 51 -28 40 -10 -9 14 2 12 30 -6 36 -24 49 -13 20
18 -14 15 -25 34 -25 43 0 14 -27 21 -72 17 -10 -1 -18 3 -18 8 0 6 11 10 25
10 16 0 25 6 25 15 0 12 -8 14 -40 9 -37 -6 -40 -5 -40 18 0 13 5 29 11 35 12
12 -8 60 -35 82 -27 23 -17 32 16 15 22 -11 44 -14 74 -10 42 5 42 5 49 -31 4
-21 2 -40 -4 -46 -23 -23 -11 -36 30 -34 45 3 59 -6 32 -22 -10 -6 -12 -11 -5
-11 6 0 12 -7 12 -16 0 -11 -6 -14 -20 -9 -15 5 -20 2 -20 -12 0 -30 39 -86
55 -79 10 3 15 -1 15 -13 0 -10 7 -21 15 -25 8 -3 14 -11 13 -17 -5 -20 86
-71 118 -67 28 3 27 4 -25 35 -47 27 -51 32 -31 38 11 4 26 17 31 29 6 12 19
28 30 34 18 11 24 9 53 -20 32 -32 86 -49 86 -27 0 12 -20 52 -30 59 -10 7
-23 50 -15 50 3 0 15 -5 25 -10 20 -10 60 5 60 22 0 5 -19 27 -42 49 -40 39
-43 45 -40 88 2 25 7 48 11 51 19 13 18 43 -4 88 -13 28 -29 53 -35 57 -16 10
-12 -52 6 -87 16 -31 16 -33 -6 -50 -12 -10 -34 -18 -48 -18 -23 0 -24 1 -10
18 20 22 29 64 19 81 -7 11 -11 10 -19 -5 -9 -15 -11 -9 -10 33 l0 51 43 11
c53 13 58 14 50 2 -3 -5 2 -28 11 -50 25 -64 43 -53 53 35 l6 53 44 -30 c51
-34 65 -33 69 3 2 18 -7 36 -32 63 -20 21 -36 39 -36 41 0 2 9 4 20 4 29 0 58
33 62 71 3 28 -1 34 -24 40 -17 4 -33 2 -45 -7 -29 -21 -35 -16 -16 13 17 26
17 26 -5 21 -19 -5 -22 -2 -22 22 0 35 -15 46 -37 28 -15 -11 -16 -11 -10 5 5
13 3 17 -5 15 -7 -3 -17 -19 -23 -36 -11 -38 -20 -41 -29 -9 -8 31 -43 73 -53
64 -12 -13 -7 -85 7 -102 18 -21 6 -29 -20 -15 -13 7 -37 9 -56 5 -34 -6 -34
-6 -34 31 0 25 -8 46 -22 62 -22 24 -23 24 -2 18 17 -5 24 1 39 34 10 22 20
40 22 40 2 0 21 -12 43 -26 21 -14 44 -23 49 -19 17 10 13 57 -9 93 -26 42
-25 55 1 47 14 -5 19 -3 17 7 -2 8 13 28 32 45 44 40 34 52 -15 19 -29 -20
-39 -23 -50 -13 -15 14 -10 27 11 27 8 0 14 5 14 10 0 6 -4 10 -10 10 -16 0
-12 32 7 52 21 23 7 39 -34 42 -17 2 -35 6 -41 10 -6 4 -22 0 -35 -9 -23 -15
-23 -15 -23 28 1 23 -3 43 -8 44 -5 0 -13 8 -18 17 -10 18 -44 22 -50 5 -3 -8
-9 -7 -18 3 -34 33 -71 52 -79 39 -11 -17 -5 -59 10 -77 9 -11 9 -20 0 -40 -6
-14 -8 -30 -5 -36 4 -7 2 -8 -4 -4 -7 4 -12 20 -12 36 0 30 -14 47 -25 30 -4
-7 -12 -7 -25 0 -34 18 -43 12 -37 -26 6 -34 5 -35 -12 -20 -26 24 -41 20 -41
-12 0 -24 -6 -29 -43 -40 -41 -12 -62 -42 -30 -42 7 0 13 -4 13 -10 0 -23 -32
-8 -44 21 l-13 31 -20 -26 c-12 -14 -26 -26 -33 -26 -7 0 -10 -7 -6 -15 3 -10
-1 -18 -12 -22 -9 -4 -22 -13 -28 -21 -8 -11 -18 -12 -47 -4 -43 12 -50 1 -9
-16 25 -10 24 -11 -18 -7 -42 4 -43 3 -17 -7 15 -7 27 -15 27 -19 0 -14 -30
-18 -43 -5 -7 7 -23 17 -35 20 -24 8 -25 5 -23 -54 0 -26 -2 -31 -9 -20 -5 8
-10 23 -10 33 0 13 -9 17 -44 17 -37 0 -44 3 -48 23 -2 12 3 39 12 59 l16 36
17 -30 c10 -17 22 -26 28 -22 15 9 6 98 -12 120 -20 24 -19 75 3 103 24 32 23
49 -2 26 -18 -16 -23 -17 -45 -5 -15 8 -25 22 -25 35 0 31 -11 38 -27 17 -13
-15 -14 -14 -9 13 2 17 10 49 17 72 14 46 2 93 -25 93 -8 0 -28 14 -44 30 -17
17 -40 30 -52 30 -12 0 -18 4 -15 11 4 5 17 9 28 8 12 0 31 -1 42 0 20 2 20 2
1 16 -27 20 -49 19 -88 -5 -39 -24 -55 -26 -38 -5 7 8 16 13 20 10 4 -3 16 7
25 22 10 15 29 37 43 50 24 22 24 23 4 23 -15 0 -20 5 -16 15 7 17 -11 21 -21
5 -8 -12 -25 -13 -44 -1 -11 7 -10 13 5 36 l18 27 -42 -3 c-23 -2 -41 -1 -42
4 0 4 -7 21 -15 38 -16 29 -17 30 -40 15 -35 -23 -45 -20 -57 15 l-11 32 -13
-24 c-7 -13 -14 -40 -14 -59 -1 -19 -4 -29 -7 -22 -7 17 -43 15 -43 -3 0 -22
-19 -18 -57 11 -19 14 -37 24 -39 21 -3 -3 11 -15 31 -27 28 -17 33 -25 25
-36 -7 -7 -9 -18 -5 -24 9 -14 -11 -13 -27 3 -24 23 -66 46 -72 40 -3 -4 -6
-25 -6 -47 -1 -39 -2 -40 -16 -21 -8 11 -17 36 -21 57 -7 46 -26 51 -21 6 2
-27 0 -32 -14 -30 -11 2 -18 -3 -18 -12 0 -10 -10 -14 -35 -13 -37 2 -47 21
-23 45 9 9 8 17 -2 37 -12 23 -15 24 -31 9 -21 -19 -47 -13 -83 21 -31 29 -32
35 -6 30 25 -5 27 21 4 46 -14 16 -13 18 16 24 25 5 31 11 27 26 -4 14 0 19
15 19 10 0 16 5 13 10 -3 6 -16 10 -27 10 -37 0 -13 10 48 20 l59 9 -67 -5
c-63 -4 -85 4 -57 21 20 13 2 29 -36 32 -21 1 -43 7 -49 13 -5 5 -17 10 -26
10 -9 0 -22 11 -28 26 -7 14 -28 32 -47 40 -41 17 -46 34 -10 34 22 0 24 2 14
18 -17 28 -64 50 -92 45 -22 -4 -25 -2 -20 16 3 11 2 33 -1 47 -7 25 -8 25
-25 10 -18 -16 -49 -13 -62 7 -11 16 -30 -3 -51 -52 -31 -70 -35 -73 -72 -54
-57 31 -124 22 -96 -12 13 -15 10 -20 -20 -45 -42 -35 -51 -20 -21 36 35 65
21 169 -15 119 -8 -10 -17 -40 -20 -67 -6 -46 -8 -47 -21 -28 -8 11 -27 27
-43 35 -28 15 -30 14 -35 -8 -5 -18 -14 -24 -36 -25 -16 0 -38 -3 -48 -7 -29
-9 -35 12 -12 41 22 28 29 84 11 84 -17 0 -65 -27 -79 -43 -14 -18 -44 -12
-66 14 -12 13 -25 16 -46 12 -16 -3 -35 0 -42 6 -17 14 -27 4 -27 -26 0 -12
-4 -23 -10 -23 -5 0 -10 9 -10 19 0 11 -5 23 -11 27 -8 5 -10 -4 -7 -30 2 -20
3 -36 1 -36 -1 0 -17 9 -35 20 -48 29 -58 26 -51 -15 5 -30 1 -38 -27 -62 -35
-30 -70 -52 -83 -53 -4 0 -4 12 -1 28 5 21 4 25 -6 15 -10 -9 -16 -7 -29 8 -9
11 -34 22 -56 26 -36 5 -56 20 -55 40 0 5 5 9 10 9 6 1 14 2 18 3 5 0 20 10
33 22 19 17 21 22 9 29 -8 6 -19 10 -25 11 -5 1 -14 3 -20 4 -5 2 -15 3 -22 4
-6 0 -14 14 -18 30 -3 16 -12 32 -20 34 -7 3 -16 19 -20 36 -4 17 -11 31 -16
31 -15 0 -43 -50 -44 -81 -2 -42 -8 -42 -45 -4 -19 19 -41 35 -50 35 -17 0
-50 -77 -50 -117 0 -16 -4 -21 -15 -17 -8 4 -15 17 -15 29 0 13 -5 27 -10 30
-7 4 -7 12 0 25 23 42 0 117 -32 105 -9 -4 -17 5 -23 27 -14 48 -44 44 -73
-10 -13 -24 -26 -42 -27 -40 -2 2 0 23 5 48 6 32 4 52 -6 72 -17 32 -14 31
-37 14z m123 -206 c0 -11 -4 -20 -9 -20 -14 0 -23 18 -16 30 10 17 25 11 25
-10z m-283 -6 c-3 -3 -12 -4 -19 -1 -8 3 -5 6 6 6 11 1 17 -2 13 -5z m-557
-45 c0 -18 -2 -19 -15 -9 -15 12 -12 30 6 30 5 0 9 -10 9 -21z m120 11 c0 -5
-5 -10 -11 -10 -5 0 -7 5 -4 10 3 6 8 10 11 10 2 0 4 -4 4 -10z m-190 -20 c0
-5 -9 -10 -20 -10 -11 0 -20 5 -20 10 0 6 9 10 20 10 11 0 20 -4 20 -10z
m2395 -81 c5 -14 1 -25 -12 -34 -21 -16 -28 -5 -19 30 8 30 22 32 31 4z m-375
-79 c0 -5 -4 -10 -10 -10 -5 0 -10 5 -10 10 0 6 5 10 10 10 6 0 10 -4 10 -10z
m230 -34 c0 -3 -4 -8 -10 -11 -5 -3 -10 -1 -10 4 0 6 5 11 10 11 6 0 10 -2 10
-4z m-157 -36 c-3 -11 -9 -20 -14 -20 -11 0 -11 3 -3 24 9 23 23 20 17 -4z
m-873 -5 c0 -8 -4 -15 -10 -15 -5 0 -7 7 -4 15 4 8 8 15 10 15 2 0 4 -7 4 -15z
m65 -115 c-3 -5 -10 -10 -16 -10 -5 0 -9 5 -9 10 0 6 7 10 16 10 8 0 12 -4 9
-10z m-32 -60 c-3 -11 -9 -18 -13 -15 -5 3 -6 14 -3 25 3 11 0 20 -6 20 -6 0
-11 5 -11 12 0 6 8 4 19 -6 11 -10 17 -25 14 -36z m-1553 -210 c0 -5 -4 -10
-10 -10 -5 0 -10 5 -10 10 0 6 5 10 10 10 6 0 10 -4 10 -10z m-210 -136 c0 -8
-4 -12 -10 -9 -5 3 -10 10 -10 16 0 5 5 9 10 9 6 0 10 -7 10 -16z m4054 -106
c-3 -10 -8 -30 -10 -45 -7 -36 -7 -36 -38 -22 -27 13 -37 35 -11 25 8 -3 15
-1 15 4 0 6 -9 10 -20 10 -11 0 -20 3 -20 8 0 4 9 13 20 20 11 7 20 19 20 27
0 12 4 13 25 3 18 -8 24 -17 19 -30z m-4302 -95 c-6 -17 -20 -16 -39 2 -11 12
-19 13 -28 5 -10 -8 -15 -6 -20 11 -6 18 0 29 31 55 l39 32 11 -46 c5 -26 8
-53 6 -59z m33 47 c3 -5 1 -10 -4 -10 -6 0 -11 5 -11 10 0 6 2 10 4 10 3 0 8
-4 11 -10z m-1166 -221 c-16 -10 -23 -4 -14 10 3 6 11 8 17 5 6 -4 5 -9 -3
-15z m101 -7 c0 -5 -7 -17 -16 -28 -8 -10 -14 -14 -11 -9 2 6 7 18 10 28 7 17
17 23 17 9z m5447 -44 c-3 -8 -6 -5 -6 6 -1 11 2 17 5 13 3 -3 4 -12 1 -19z
m-5037 -27 c0 -6 -4 -13 -10 -16 -5 -3 -10 1 -10 9 0 9 5 16 10 16 6 0 10 -4
10 -9z m-380 -66 c0 -8 -4 -15 -10 -15 -5 0 -10 7 -10 15 0 8 5 15 10 15 6 0
10 -7 10 -15z m34 -21 c16 -6 23 -44 8 -44 -12 0 -32 23 -32 37 0 15 2 15 24
7z m502 -36 c-10 -6 -20 -7 -24 -3 -9 8 20 25 31 18 5 -3 2 -10 -7 -15z m-324
0 c-9 -9 -15 -9 -24 0 -9 9 -7 12 12 12 19 0 21 -3 12 -12z m5433 -28 c3 -5 2
-10 -4 -10 -5 0 -13 5 -16 10 -3 6 -2 10 4 10 5 0 13 -4 16 -10z m45 -40 c0
-5 -4 -10 -10 -10 -5 0 -10 5 -10 10 0 6 5 10 10 10 6 0 10 -4 10 -10z m710
-210 c0 -5 -2 -10 -4 -10 -3 0 -8 5 -11 10 -3 6 -1 10 4 10 6 0 11 -4 11 -10z
m-480 -21 c0 -7 10 -9 25 -7 14 3 25 4 25 2 0 -1 3 -9 6 -18 3 -9 1 -16 -6
-16 -6 0 -8 5 -5 10 8 13 -8 13 -21 0 -7 -7 -19 -6 -37 3 -20 10 -23 17 -15
25 15 15 28 15 28 1z m165 -9 c10 8 15 8 21 -1 6 -11 12 -69 7 -69 -12 0 -73
45 -77 56 -9 24 4 36 21 19 11 -12 19 -13 28 -5z m-6309 -25 c-3 -25 -54 -81
-64 -70 -4 3 0 10 8 16 11 6 12 11 3 17 -9 5 -9 11 0 23 10 12 44 37 54 39 1
0 0 -11 -1 -25z m51 -21 c-3 -3 -12 -4 -19 -1 -8 3 -5 6 6 6 11 1 17 -2 13 -5z
m6430 -34 c2 -11 0 -20 -5 -20 -9 1 -42 26 -42 33 0 7 33 15 39 10 3 -2 6 -12
8 -23z m-120 -14 c-16 -18 -31 -8 -16 10 6 7 15 11 20 8 5 -3 3 -11 -4 -18z
m-6442 -33 c0 -24 -33 -79 -41 -70 -6 6 31 97 39 97 2 0 3 -12 2 -27z m6635
17 c0 -5 -4 -10 -10 -10 -5 0 -10 5 -10 10 0 6 5 10 10 10 6 0 10 -4 10 -10z
m-6530 -32 c0 -10 -38 -20 -50 -13 -20 12 -9 24 20 22 16 -1 30 -5 30 -9z m87
-44 c-3 -3 -12 -4 -19 -1 -8 3 -5 6 6 6 11 1 17 -2 13 -5z m-939 -48 c1 -19
-2 -23 -18 -19 -20 5 -26 23 -13 36 14 14 29 6 31 -17z m7292 7 c0 -5 -4 -15
-10 -23 -11 -18 -25 -7 -17 15 6 15 27 21 27 8z m-6618 -28 c3 -14 1 -25 -3
-25 -5 0 -9 11 -9 25 0 14 2 25 4 25 2 0 6 -11 8 -25z m-708 -35 c36 -18 77
-70 55 -70 -5 0 -9 5 -9 10 0 6 -9 10 -20 10 -11 0 -20 7 -20 15 0 9 -11 21
-25 27 -14 6 -25 15 -25 20 0 11 0 11 44 -12z m7283 -2 c-3 -8 -6 -5 -6 6 -1
11 2 17 5 13 3 -3 4 -12 1 -19z m-47 -22 c0 -3 -4 -8 -10 -11 -5 -3 -10 -1
-10 4 0 6 5 11 10 11 6 0 10 -2 10 -4z m134 -60 c-3 -9 -10 -16 -15 -16 -6 0
-5 9 1 21 13 24 24 20 14 -5z m-7928 -24 c-4 -3 -14 2 -24 12 -16 18 -16 18 6
6 13 -6 21 -14 18 -18z m552 -16 c1 -17 -5 -25 -21 -30 -32 -8 -42 9 -18 33
27 27 36 26 39 -3z m7257 -6 c3 -5 -1 -10 -9 -10 -9 0 -16 5 -16 10 0 6 4 10
9 10 6 0 13 -4 16 -10z m-7381 -65 c7 -27 1 -45 -13 -45 -11 0 -21 38 -14 56
8 22 20 17 27 -11z m166 -15 c0 -5 -10 -10 -22 -10 -19 0 -20 2 -8 10 19 13
30 13 30 0z m-796 -35 c3 -8 2 -15 -3 -15 -5 0 -14 7 -21 15 -10 12 -10 15 3
15 8 0 17 -7 21 -15z m506 -36 c0 -18 -2 -19 -15 -9 -8 7 -15 16 -15 21 0 5 7
9 15 9 9 0 15 -9 15 -21z m-510 7 c0 -11 -19 -15 -25 -6 -3 5 1 10 9 10 9 0
16 -2 16 -4z m8120 -16 c-8 -5 -19 -10 -25 -10 -5 0 -3 5 5 10 8 5 20 10 25
10 6 0 3 -5 -5 -10z m-7680 -33 c0 -15 -32 -20 -41 -6 -17 28 -11 38 16 26 14
-7 25 -16 25 -20z m-630 -17 c0 -5 -4 -10 -10 -10 -5 0 -10 5 -10 10 0 6 5 10
10 10 6 0 10 -4 10 -10z m8310 -3 c0 -19 -21 -37 -42 -37 -23 0 -23 26 0 39
24 14 42 13 42 -2z m-200 -141 c0 -3 -10 -24 -22 -49 l-23 -44 -25 24 c-21 20
-23 25 -10 33 8 5 20 10 26 10 6 0 17 7 24 15 12 14 30 21 30 11z m1544 -96
c16 -32 14 -33 -33 -24 l-32 7 22 23 c12 13 24 24 25 24 1 0 9 -13 18 -30z
m-1309 -69 c-3 -12 -10 -21 -15 -21 -5 0 -4 11 2 25 13 29 23 26 13 -4z m155
-41 c0 -5 -5 -10 -11 -10 -5 0 -7 5 -4 10 3 6 8 10 11 10 2 0 4 -4 4 -10z
m-265 -10 c-3 -5 -13 -10 -21 -10 -8 0 -14 5 -14 10 0 6 9 10 21 10 11 0 17
-4 14 -10z m-220 -50 c-3 -5 -11 -10 -16 -10 -6 0 -7 5 -4 10 3 6 11 10 16 10
6 0 7 -4 4 -10z m502 -16 c-9 -9 -28 6 -21 18 4 6 10 6 17 -1 6 -6 8 -13 4
-17z m-137 -36 c0 -6 -7 -7 -16 -4 -9 3 -20 6 -25 6 -6 0 -8 4 -5 9 8 12 46 2
46 -11z m640 12 c0 -5 -4 -10 -10 -10 -5 0 -10 5 -10 10 0 6 5 10 10 10 6 0
10 -4 10 -10z m60 0 c0 -5 -2 -10 -4 -10 -3 0 -8 5 -11 10 -3 6 -1 10 4 10 6
0 11 -4 11 -10z m-1124 -137 c-4 -4 -11 -1 -16 7 -16 25 -11 35 7 17 9 -9 13
-20 9 -24z m244 -87 c0 -3 -4 -8 -10 -11 -5 -3 -10 -1 -10 4 0 6 5 11 10 11 6
0 10 -2 10 -4z m178 -69 c3 -13 -4 -17 -27 -17 -20 0 -41 -10 -62 -31 -17 -17
-33 -28 -36 -26 -7 8 21 47 34 47 6 0 25 11 40 25 31 27 46 27 51 2z m-480
-45 c13 11 14 11 10 -2 -6 -18 -30 -20 -34 -2 -1 7 0 8 3 2 3 -7 10 -7 21 2z
m422 -47 c-7 -8 -24 -15 -39 -15 -25 1 -25 1 -7 15 11 8 29 15 39 15 16 0 17
-3 7 -15z m-8520 -19 c0 -9 -40 -13 -46 -5 -3 5 6 9 20 9 14 0 26 -2 26 -4z
m8539 -91 l0 -55 -38 22 c-37 21 -76 83 -45 71 8 -3 11 -10 7 -16 -4 -6 0 -8
10 -4 9 3 17 1 20 -6 2 -6 12 1 21 16 10 15 20 27 21 27 2 0 4 -25 4 -55z
m-139 -55 c0 -5 -5 -10 -11 -10 -5 0 -7 5 -4 10 3 6 8 10 11 10 2 0 4 -4 4
-10z m108 -58 c2 -8 -9 -12 -37 -12 -43 0 -44 0 -35 23 6 17 65 9 72 -11z
m1552 -25 c6 -17 22 -44 37 -59 15 -15 22 -28 16 -28 -6 0 -18 -2 -26 -6 -10
-3 -16 5 -21 28 l-7 33 -24 -30 c-14 -16 -25 -28 -26 -25 0 3 -2 14 -3 25 -2
11 -6 30 -10 43 -6 18 -4 22 14 22 17 0 20 4 15 20 -11 34 22 12 35 -23z
m-610 -41 c0 -2 -7 -9 -15 -16 -13 -11 -14 -10 -9 4 5 14 24 23 24 12z m465
-6 c3 -5 1 -10 -4 -10 -6 0 -11 5 -11 10 0 6 2 10 4 10 3 0 8 -4 11 -10z
m-1409 -40 c11 0 11 -5 2 -25 -6 -14 -14 -25 -18 -25 -11 0 -21 60 -13 74 5 7
9 5 11 -6 2 -10 10 -18 18 -18z m210 3 c-10 -10 -19 5 -10 18 6 11 8 11 12 0
2 -7 1 -15 -2 -18z m-8684 5 l33 -1 -34 -14 c-32 -13 -36 -13 -55 7 l-21 22
22 -7 c13 -3 38 -7 55 -7z m9455 -14 c-9 -9 -28 6 -21 18 4 6 10 6 17 -1 6 -6
8 -13 4 -17z m-99 -27 c3 -12 -4 -17 -22 -17 -24 0 -25 2 -14 20 15 23 31 21
36 -3z m-768 -42 c0 -8 -9 -15 -19 -15 -24 0 -36 16 -19 23 24 10 38 7 38 -8z
m-8563 -10 c0 -10 -10 -15 -31 -15 l-31 1 25 14 c32 18 37 18 37 0z m10197
-40 c5 -22 15 -44 24 -49 12 -7 12 -10 1 -17 -22 -13 -39 -11 -33 5 3 8 -4 25
-15 37 -12 13 -21 29 -21 36 0 7 -4 13 -10 13 -5 0 -10 5 -10 11 0 6 12 9 27
7 23 -2 29 -10 37 -43z m-10057 -1 c-3 -3 -12 -4 -19 -1 -8 3 -5 6 6 6 11 1
17 -2 13 -5z m-184 -34 c3 -11 1 -18 -4 -14 -5 3 -9 12 -9 20 0 20 7 17 13 -6z
m421 -1 c-3 -5 -10 -7 -15 -3 -5 3 -7 10 -3 15 3 5 10 7 15 3 5 -3 7 -10 3
-15z m9823 -131 c-3 -8 -6 -5 -6 6 -1 11 2 17 5 13 3 -3 4 -12 1 -19z m-10157
-78 c0 -5 -5 -10 -11 -10 -5 0 -7 5 -4 10 3 6 8 10 11 10 2 0 4 -4 4 -10z
m-200 -156 c0 -2 -9 -4 -20 -4 -11 0 -20 4 -20 9 0 5 9 7 20 4 11 -3 20 -7 20
-9z m8552 -16 c-7 -7 -12 -8 -12 -2 0 14 12 26 19 19 2 -3 -1 -11 -7 -17z
m-8522 -73 c0 -19 -27 -26 -40 -10 -8 10 -7 16 7 23 20 12 33 7 33 -13z m-457
-39 c6 -14 0 -26 -13 -26 -3 0 -6 9 -7 20 -2 23 12 27 20 6z m10852 4 c3 -5
-1 -10 -9 -10 -9 0 -16 5 -16 10 0 6 4 10 9 10 6 0 13 -4 16 -10z m41 -17
c-10 -10 -19 5 -10 18 6 11 8 11 12 0 2 -7 1 -15 -2 -18z m-10631 -29 c-3 -21
-10 -33 -13 -28 -13 18 -78 33 -115 27 -24 -4 -37 -2 -37 6 0 6 11 11 25 11
14 0 25 4 25 9 0 6 19 8 43 6 23 -2 49 0 57 5 21 13 23 6 15 -36z m174 11 c23
-8 23 -9 5 -15 -14 -5 -19 -17 -20 -49 0 -35 2 -40 18 -35 13 4 16 1 12 -10
-3 -8 -12 -17 -20 -20 -8 -3 -14 -12 -14 -21 0 -21 -8 -19 -52 11 -40 28 -48
44 -23 44 20 0 19 6 -5 30 -21 21 -35 27 -25 11 8 -14 -15 -25 -27 -13 -14 14
-2 58 21 81 19 19 29 18 130 -14z m8334 -30 c-3 -12 0 -26 6 -29 13 -8 -13
-66 -30 -66 -13 0 -29 45 -29 84 0 40 4 44 34 39 18 -4 22 -10 19 -28z m-8621
-7 c-7 -7 -12 -8 -12 -2 0 14 12 26 19 19 2 -3 -1 -11 -7 -17z m-332 8 c0 -2
-7 -6 -15 -10 -8 -3 -15 -1 -15 4 0 6 7 10 15 10 8 0 15 -2 15 -4z m148 -48
c-2 -6 -10 -14 -16 -16 -7 -2 -10 2 -6 12 7 18 28 22 22 4z m240 -99 c-6 -4
-7 -12 -4 -18 4 -6 2 -11 -3 -11 -12 0 -14 20 -5 45 5 13 9 14 15 4 4 -8 3
-16 -3 -20z m122 11 c0 -5 -4 -10 -10 -10 -5 0 -10 5 -10 10 0 6 5 10 10 10 6
0 10 -4 10 -10z m10450 -25 c0 -8 -7 -15 -15 -15 -9 0 -12 6 -9 15 4 8 10 15
15 15 5 0 9 -7 9 -15z m-3940 -4 c0 -5 -7 -14 -15 -21 -12 -10 -15 -10 -15 2
0 8 3 18 7 21 9 10 23 9 23 -2z m3840 -27 l0 -36 -30 32 c-16 18 -30 34 -30
36 0 2 14 4 30 4 28 0 30 -3 30 -36z m60 16 c0 -5 -2 -10 -4 -10 -3 0 -8 5
-11 10 -3 6 -1 10 4 10 6 0 11 -4 11 -10z m-10623 -26 c-9 -9 -28 6 -21 18 4
6 10 6 17 -1 6 -6 8 -13 4 -17z m10788 16 c3 -5 1 -10 -4 -10 -6 0 -11 5 -11
10 0 6 2 10 4 10 3 0 8 -4 11 -10z m-305 -35 c0 -16 -6 -25 -15 -25 -18 0 -19
4 -3 30 16 26 18 25 18 -5z m-10357 -45 c1 -16 9 -20 37 -22 l35 -1 -33 -4
c-20 -3 -43 2 -57 11 -21 14 -24 14 -19 1 4 -8 2 -15 -3 -15 -13 0 -15 48 -2
72 11 20 11 20 26 -1 8 -12 15 -30 16 -41z m98 38 c25 -31 24 -40 -6 -26 -19
8 -31 8 -51 -1 -35 -16 -39 -10 -13 22 25 33 45 34 70 5z m10130 -1 c-13 -13
-26 -3 -16 12 3 6 11 8 17 5 6 -4 6 -10 -1 -17z m29 -42 c0 -5 -5 -3 -10 5 -5
8 -10 20 -10 25 0 6 5 3 10 -5 5 -8 10 -19 10 -25z m110 -5 c23 -18 24 -20 5
-20 -21 0 -45 17 -45 32 0 13 13 9 40 -12z m640 -55 c11 -3 20 -10 20 -15 0
-11 -32 0 -42 14 -4 6 -12 5 -22 -3 -13 -11 -19 -11 -31 -1 -14 12 -13 16 7
37 l22 24 13 -25 c7 -14 22 -27 33 -31z m-690 24 c0 -6 -4 -7 -10 -4 -5 3 -10
11 -10 16 0 6 5 7 10 4 6 -3 10 -11 10 -16z m55 -9 c3 -5 1 -10 -4 -10 -6 0
-11 5 -11 10 0 6 2 10 4 10 3 0 8 -4 11 -10z m-10205 -36 c0 -15 6 -24 15 -24
8 0 15 -6 15 -13 0 -7 13 -28 28 -47 39 -49 73 -106 66 -113 -10 -10 -158 85
-199 127 -22 23 -31 32 -21 19 32 -38 11 -37 -28 2 -35 34 -45 55 -28 55 4 0
14 -6 21 -12 11 -11 12 -10 6 1 -4 8 5 5 21 -7 33 -23 74 -37 74 -25 0 4 -7
17 -15 27 -16 21 -9 31 25 33 15 1 20 -4 20 -23z m-330 -24 c0 -5 9 -10 20
-10 11 0 20 -4 20 -10 0 -12 -2 -12 -34 0 -25 9 -36 30 -16 30 6 0 10 -4 10
-10z m479 -49 l-21 -26 24 -6 c50 -15 82 -9 112 19 32 29 21 9 -23 -42 l-26
-30 26 16 c26 16 26 16 37 -19 8 -25 8 -42 -1 -60 l-11 -25 -9 24 c-6 14 -11
18 -14 11 -6 -18 -23 -16 -23 2 0 19 -21 65 -31 65 -4 0 -14 -7 -23 -15 -8 -8
-17 -15 -20 -15 -3 0 -19 20 -36 45 -21 31 -29 52 -25 66 7 19 7 20 20 2 13
-17 14 -16 24 11 9 23 14 26 26 16 13 -11 12 -16 -6 -39z m201 18 c0 -5 -4 -9
-10 -9 -5 0 -10 7 -10 16 0 8 5 12 10 9 6 -3 10 -10 10 -16z m-437 -47 l44
-27 -18 -25 c-24 -33 -30 -73 -17 -110 11 -34 12 -34 37 -18 15 9 24 7 49 -13
35 -28 43 -48 10 -25 -31 22 -32 21 -48 -19 -12 -31 -15 -33 -30 -20 -13 11
-19 12 -28 3 -9 -9 -12 -8 -12 5 0 9 7 17 15 17 8 0 15 5 15 10 0 7 -6 8 -16
2 -20 -11 -56 -4 -48 9 3 5 14 9 25 9 26 0 24 23 -6 51 -13 13 -25 31 -25 39
0 8 -9 29 -20 47 -18 29 -18 34 -4 62 9 17 19 31 24 31 5 0 29 -12 53 -28z
m6230 8 c16 -19 16 -20 -20 -20 -35 0 -36 0 -18 20 10 11 19 20 19 20 1 0 9
-9 19 -20z m4797 -10 c0 -5 -5 -10 -11 -10 -5 0 -7 5 -4 10 3 6 8 10 11 10 2
0 4 -4 4 -10z m54 -36 c37 -36 6 -67 -39 -38 -24 16 -25 18 -9 35 21 23 28 24
48 3z m-10600 -55 c-22 -24 -73 -53 -81 -45 -10 10 56 66 78 66 22 0 22 0 3
-21z m93 -1 c-3 -8 -6 -5 -6 6 -1 11 2 17 5 13 3 -3 4 -12 1 -19z m-382 -28
c11 -18 -9 -10 -40 16 l-30 26 32 -16 c17 -9 35 -20 38 -26z m328 0 c-6 -21
-21 -35 -29 -27 -7 7 18 57 27 52 4 -3 5 -14 2 -25z m5651 24 c20 -8 11 -24
-14 -24 -13 0 -17 5 -14 15 7 17 7 17 28 9z m4900 -29 c11 -8 17 -17 15 -20
-10 -9 -58 20 -63 37 -4 19 9 14 48 -17z m-10681 0 c-3 -9 -8 -14 -10 -11 -3
3 -2 9 2 15 9 16 15 13 8 -4z m637 -65 c0 -13 -1 -13 -10 0 -5 8 -10 22 -10
30 0 13 1 13 10 0 5 -8 10 -22 10 -30z m-1129 -11 c13 -26 7 -24 -22 7 -17 19
-19 23 -6 18 10 -3 22 -15 28 -25z m755 -4 c-19 -16 -42 -42 -51 -57 -10 -16
-22 -25 -31 -21 -8 3 -14 -1 -14 -11 0 -10 -5 -13 -17 -9 -14 5 -9 13 25 43
23 19 42 40 42 44 0 19 32 44 56 42 24 -1 23 -2 -10 -31z m5974 15 c9 -16 8
-18 -5 -14 -8 4 -15 12 -15 20 0 20 7 17 20 -6z m-5853 -24 c-4 -9 -11 -16
-17 -16 -11 0 -14 33 -3 43 11 11 26 -10 20 -27z m5463 -37 c-12 -30 -26 -59
-31 -65 -12 -14 -97 -39 -106 -31 -3 4 30 43 73 87 43 45 80 77 82 72 1 -5 -7
-34 -18 -63z m-5510 39 c0 -13 -5 -40 -11 -61 -14 -51 -5 -57 20 -16 17 27 21
30 21 14 1 -11 7 -37 14 -57 14 -40 4 -52 -14 -18 -14 27 -28 25 -36 -4 -11
-46 -63 -41 -103 10 -20 25 -20 28 -4 55 10 16 34 41 55 54 21 14 38 30 38 35
0 6 5 10 10 10 6 0 10 -10 10 -22z m-880 -53 c-25 -27 -25 -31 0 -38 17 -4 19
-11 14 -31 -5 -21 -2 -27 19 -35 28 -11 41 -48 29 -82 -8 -22 -8 -22 -30 6
-12 15 -22 34 -22 41 0 8 -5 14 -11 14 -6 0 -8 -11 -4 -28 3 -17 -1 -41 -12
-62 -14 -29 -18 -32 -21 -15 -3 11 -12 25 -21 32 -14 11 -14 12 0 13 8 0 20
-5 25 -10 7 -7 10 8 9 45 -1 30 -5 58 -8 62 -4 3 1 12 11 19 16 12 16 13 0 14
-25 0 -32 18 -14 36 9 8 16 26 16 38 0 32 12 40 27 20 11 -15 10 -21 -7 -39z
m1188 5 c0 -49 -12 -71 -28 -54 -9 10 11 104 22 104 4 0 7 -23 6 -50z m5392
41 c0 -24 -51 -40 -84 -26 -16 7 -14 10 15 20 42 15 69 18 69 6z m-5430 -8
c-1 -45 -31 -70 -44 -37 -4 12 -2 15 9 10 13 -5 20 5 16 27 0 4 4 7 9 7 6 0
10 -3 10 -7z m-162 -46 c8 -9 6 -19 -7 -36 -22 -29 -41 -20 -41 20 0 22 5 29
19 29 10 0 23 -6 29 -13z m58 -34 c-6 -28 -32 -61 -41 -51 -8 7 26 78 37 78 5
0 6 -12 4 -27z m10438 6 c-3 -5 -10 -7 -15 -3 -5 3 -7 10 -3 15 3 5 10 7 15 3
5 -3 7 -10 3 -15z m-11367 -41 c-3 -8 -6 -5 -6 6 -1 11 2 17 5 13 3 -3 4 -12
1 -19z m103 12 c0 -5 -2 -10 -4 -10 -3 0 -8 5 -11 10 -3 6 -1 10 4 10 6 0 11
-4 11 -10z m5564 -25 c-6 -23 -37 -45 -65 -45 -17 0 -9 27 16 50 14 13 25 20
25 15 0 -5 5 -4 12 3 16 16 20 9 12 -23z m5614 19 c12 -4 22 -11 22 -16 0 -5
-6 -8 -12 -5 -7 2 -21 0 -30 -5 -14 -7 -18 -4 -18 12 0 22 3 23 38 14z m-9948
-34 c0 -5 -2 -10 -4 -10 -3 0 -8 5 -11 10 -3 6 -1 10 4 10 6 0 11 -4 11 -10z
m-1304 -25 c8 -8 22 -11 31 -8 11 4 14 3 9 -6 -4 -6 -3 -18 3 -25 8 -10 6 -17
-7 -29 -23 -21 -35 -11 -48 41 -12 46 -10 50 12 27z m526 -7 c-7 -7 -12 -8
-12 -2 0 14 12 26 19 19 2 -3 -1 -11 -7 -17z m488 1 c0 -5 -4 -9 -10 -9 -5 0
-10 7 -10 16 0 8 5 12 10 9 6 -3 10 -10 10 -16z m-910 -8 c0 -10 -9 -21 -20
-24 -23 -6 -24 -3 -8 23 16 25 28 26 28 1z m470 -1 c0 -5 -5 -10 -11 -10 -5 0
-7 5 -4 10 3 6 8 10 11 10 2 0 4 -4 4 -10z m10544 -20 c-6 -6 -10 -3 -10 10 0
13 4 16 10 10 7 -7 7 -13 0 -20z m-11154 10 c0 -5 -2 -10 -4 -10 -3 0 -8 5
-11 10 -3 6 -1 10 4 10 6 0 11 -4 11 -10z m848 -18 c5 -31 -15 -27 -21 3 -3
16 0 24 7 22 6 -2 12 -13 14 -25z m10501 9 c17 -13 20 -20 11 -26 -7 -4 -15
-3 -19 3 -3 6 -22 12 -40 14 -19 2 -36 9 -39 16 -6 19 59 14 87 -7z m-5004 -5
c18 -13 17 -14 -14 -30 -39 -21 -45 -17 -32 18 12 30 19 32 46 12z m-689 -32
c-4 -9 -9 -15 -11 -12 -3 3 -3 13 1 22 4 9 9 15 11 12 3 -3 3 -13 -1 -22z
m528 -28 c-11 -25 -22 -46 -26 -46 -5 0 -8 18 -8 40 0 33 4 42 23 49 12 5 24
7 26 5 2 -2 -5 -23 -15 -48z m304 34 c-7 -11 -16 -20 -20 -20 -5 0 -3 9 4 20
7 11 16 20 20 20 5 0 3 -9 -4 -20z m-7183 -19 c8 -14 -34 -40 -56 -34 -21 6
-26 23 -7 23 6 0 8 3 5 7 -4 3 -2 12 4 19 11 14 41 5 54 -15z m460 21 c6 -4
11 -28 11 -54 1 -39 -2 -48 -16 -48 -13 0 -19 11 -23 47 -6 60 1 75 28 55z
m-98 -26 c-8 -8 -17 -12 -21 -9 -3 3 2 12 12 19 22 16 29 9 9 -10z m11658 14
c-3 -5 -13 -10 -21 -10 -8 0 -14 5 -14 10 0 6 9 10 21 10 11 0 17 -4 14 -10z
m-7195 -50 c0 -5 -4 -10 -10 -10 -5 0 -10 5 -10 10 0 6 5 10 10 10 6 0 10 -4
10 -10z m7109 -4 c9 -10 8 -15 -4 -20 -10 -4 -15 1 -15 14 0 24 4 25 19 6z
m-11939 -34 c0 -13 -3 -12 -20 3 -11 10 -17 22 -14 27 8 12 34 -11 34 -30z
m10360 19 c0 -5 -7 -12 -16 -15 -24 -9 -28 -7 -14 9 14 17 30 20 30 6z m-3160
-11 c0 -5 -4 -10 -10 -10 -5 0 -10 5 -10 10 0 6 5 10 10 10 6 0 10 -4 10 -10z
m-7410 -19 c0 -5 -12 -11 -27 -13 -16 -3 -36 -9 -45 -13 -10 -4 -18 -3 -18 1
0 11 72 43 83 37 4 -2 7 -8 7 -12z m7220 -13 c0 -4 -16 -8 -35 -8 -32 0 -35 2
-25 20 9 17 14 18 35 8 14 -6 25 -15 25 -20z m315 -62 c20 26 19 0 0 -30 -14
-21 -20 -23 -51 -16 -19 4 -52 24 -73 43 -42 38 -40 48 10 60 23 6 27 3 35
-25 l10 -32 24 39 25 40 3 -49 c3 -44 4 -47 17 -30z m112 61 c-3 -7 4 -30 14
-52 10 -21 19 -41 19 -43 0 -2 -16 -1 -36 3 -48 8 -100 -11 -83 -32 10 -11 9
-12 -5 -7 -27 10 -18 27 32 59 49 31 56 45 22 45 -27 0 -25 14 3 28 30 15 40
14 34 -1z m2950 7 c-3 -3 -12 -4 -19 -1 -8 3 -5 6 6 6 11 1 17 -2 13 -5z
m1668 -7 c10 -8 14 -17 9 -20 -5 -3 -21 3 -34 14 -29 22 -6 28 25 6z m-12371
-21 c-3 -9 -10 -16 -15 -16 -6 0 -5 9 1 21 13 24 24 20 14 -5z m5296 15 c0 -6
-4 -13 -10 -16 -5 -3 -10 1 -10 9 0 9 5 16 10 16 6 0 10 -4 10 -9z m-5122 -28
c-2 -9 -10 -19 -18 -21 -12 -4 -13 -3 -3 10 7 8 10 18 6 21 -3 4 -1 7 6 7 7 0
11 -8 9 -17z m7699 11 c-3 -3 -12 -4 -19 -1 -8 3 -5 6 6 6 11 1 17 -2 13 -5z
m-7787 -19 c0 -8 -4 -15 -10 -15 -5 0 -10 7 -10 15 0 8 5 15 10 15 6 0 10 -7
10 -15z m2340 5 c0 -5 -2 -10 -4 -10 -3 0 -8 5 -11 10 -3 6 -1 10 4 10 6 0 11
-4 11 -10z m4230 -11 c0 -6 -4 -7 -10 -4 -5 3 -10 11 -10 16 0 6 5 7 10 4 6
-3 10 -11 10 -16z m-1204 -49 l32 -49 -42 27 c-22 14 -42 27 -43 27 -5 2 10
45 16 45 3 0 20 -23 37 -50z m-5366 24 c0 -2 -9 -4 -21 -4 -11 0 -18 4 -14 10
5 8 35 3 35 -6z m7240 8 c0 -4 -6 -17 -14 -28 -8 -11 -16 -34 -18 -50 -3 -26
0 -29 25 -27 22 1 27 -3 27 -20 1 -20 2 -21 14 -4 7 9 21 17 30 17 9 0 16 4
16 9 0 8 54 41 68 41 2 0 2 -18 -2 -41 -8 -51 9 -49 37 4 10 20 23 37 28 37
15 0 10 -20 -11 -43 -12 -12 -23 -32 -26 -44 -4 -15 -14 -23 -28 -23 -12 0
-30 -6 -40 -13 -16 -12 -15 -14 8 -36 13 -13 39 -26 57 -30 18 -4 34 -11 36
-17 2 -7 -5 -10 -19 -7 -28 5 -112 -62 -101 -80 4 -7 8 -18 9 -24 6 -35 67
-58 111 -42 27 10 34 -7 16 -41 -7 -14 -13 -35 -13 -46 0 -17 5 -20 23 -17 42
8 77 47 83 92 5 35 3 41 -12 41 -13 0 -15 3 -7 11 20 20 43 -14 43 -64 0 -24
7 -58 16 -76 16 -31 63 -72 98 -85 16 -6 18 -3 13 26 -4 18 -9 43 -12 54 -6
19 0 24 41 38 26 9 49 16 51 16 3 0 -12 -15 -31 -34 -26 -24 -36 -42 -36 -65
0 -29 2 -31 39 -31 61 0 69 -21 27 -66 -24 -25 -36 -33 -36 -22 0 9 -8 26 -18
38 l-18 23 -13 -30 c-15 -37 -21 -86 -10 -93 17 -11 -177 -236 -275 -320 -161
-137 -472 -452 -623 -632 l-141 -167 -7 113 c-8 120 2 179 31 190 9 3 14 12
11 19 -3 6 19 57 49 113 109 206 212 512 265 789 17 88 42 207 55 263 18 80
24 132 24 226 0 82 4 126 12 134 7 7 30 12 53 12 22 0 47 5 55 10 18 12 40 13
40 2z m-7213 -87 c-6 -19 -14 -35 -19 -35 -4 0 -8 -12 -9 -27 l0 -28 -10 25
c-6 13 -15 27 -20 31 -6 4 -2 22 11 47 18 35 25 40 40 32 16 -8 17 -14 7 -45z
m2067 30 c3 -8 1 -15 -4 -15 -6 0 -10 7 -10 15 0 8 2 15 4 15 2 0 6 -7 10 -15z
m-1999 -5 c3 -5 -1 -10 -9 -10 -19 0 -21 -17 -4 -22 8 -3 6 -7 -4 -11 -22 -8
-36 32 -17 44 18 11 26 11 34 -1z m7435 -22 c0 -12 -24 -10 -38 4 -20 20 -13
28 13 16 14 -6 25 -15 25 -20z m-6080 12 c0 -5 -2 -10 -4 -10 -3 0 -8 5 -11
10 -3 6 -1 10 4 10 6 0 11 -4 11 -10z m6364 -15 c3 -8 1 -15 -3 -15 -5 0 -11
7 -15 15 -3 8 -1 15 3 15 5 0 11 -7 15 -15z m-7865 -109 c-9 -8 -10 -7 -5 7 3
10 7 28 7 40 2 16 3 14 6 -7 3 -16 -1 -34 -8 -40z m2486 44 c3 -5 2 -10 -4
-10 -5 0 -13 5 -16 10 -3 6 -2 10 4 10 5 0 13 -4 16 -10z m52 -12 c-3 -8 -6
-5 -6 6 -1 11 2 17 5 13 3 -3 4 -12 1 -19z m103 18 c0 -3 -4 -8 -10 -11 -5 -3
-10 -1 -10 4 0 6 5 11 10 11 6 0 10 -2 10 -4z m5067 -38 c-3 -8 -6 -5 -6 6 -1
11 2 17 5 13 3 -3 4 -12 1 -19z m95 -13 c-2 -29 -2 -29 13 -11 8 11 15 26 15
33 0 21 17 15 44 -14 l25 -26 -25 -33 c-20 -25 -24 -42 -22 -77 l3 -45 28 20
c15 11 27 23 27 28 0 5 11 -2 25 -16 30 -29 26 -40 -16 -49 -39 -9 -32 -28 14
-39 20 -5 37 -15 37 -21 0 -13 -29 -54 -30 -41 0 4 -11 1 -24 -7 -16 -11 -26
-13 -34 -5 -16 16 -30 1 -38 -36 -4 -22 -13 -36 -25 -39 -24 -7 -24 -5 6 43
14 22 25 44 25 49 0 5 6 12 13 15 8 4 7 5 -3 5 -8 -1 -25 -1 -38 0 -23 1 -23
1 -3 22 10 11 21 29 24 40 4 15 0 19 -19 19 -13 0 -38 9 -56 20 -18 11 -45 20
-59 20 -37 0 -39 7 -15 50 23 43 35 50 37 23 1 -10 5 -4 9 12 4 17 11 38 15
48 6 13 3 16 -9 11 -12 -4 -16 0 -16 16 0 18 5 21 38 18 35 -3 37 -5 34 -33z
m-3047 -4 c-9 -16 -25 -3 -18 15 4 10 9 12 15 6 6 -6 7 -15 3 -21z m3202 -3
c-3 -7 -5 -2 -5 12 0 14 2 19 5 13 2 -7 2 -19 0 -25z m-6490 16 c-3 -3 -12 -4
-19 -1 -8 3 -5 6 6 6 11 1 17 -2 13 -5z m3022 -1 c-5 -31 11 -63 32 -66 36 -6
39 -18 11 -43 l-27 -25 32 15 c40 20 63 20 63 2 0 -18 -8 -23 -63 -40 -40 -12
-51 -11 -120 10 -61 20 -76 29 -81 49 -8 31 12 75 30 68 10 -4 12 0 8 11 -3 9
-2 16 4 16 5 0 12 -10 16 -22 l6 -23 18 23 c12 16 21 19 28 12 8 -8 15 -6 24
5 14 16 21 19 19 8z m-225 -18 c-4 -8 -10 -12 -15 -9 -14 8 -10 24 6 24 9 0
12 -6 9 -15z m3346 -25 c-6 -12 -14 -20 -17 -17 -2 3 1 14 8 26 17 26 24 19 9
-9z m-2661 -96 c2 -2 -11 -15 -28 -29 -17 -15 -31 -31 -31 -36 0 -12 62 -11
95 1 39 15 47 4 25 -33 -23 -37 -26 -77 -6 -77 13 0 65 35 77 52 3 5 25 -9 50
-30 24 -21 85 -71 134 -111 91 -73 225 -212 338 -351 78 -97 87 -108 67 -94
-82 60 -201 152 -225 175 -50 45 -451 311 -527 350 -62 31 -78 44 -115 99 -23
35 -40 66 -37 69 3 3 9 0 13 -7 4 -7 24 -15 44 -19 33 -5 36 -4 32 16 -2 11
-11 31 -19 43 -11 16 -13 25 -5 35 8 9 7 14 -5 19 -9 3 -13 10 -10 15 3 5 33
-12 67 -38 34 -25 64 -48 66 -49z m-4398 38 c-10 -19 -58 -42 -89 -42 -12 0
-12 3 -2 15 7 9 15 14 17 11 2 -2 18 9 35 26 33 33 59 26 39 -10z m7391 -4
c-7 -7 -12 -8 -12 -2 0 14 12 26 19 19 2 -3 -1 -11 -7 -17z m-5373 -44 c-31
-33 -36 -22 -8 17 13 19 25 27 27 20 2 -7 -6 -23 -19 -37z m-2008 8 c-6 -11
-5 -27 3 -47 7 -17 11 -36 9 -42 -3 -7 0 -13 7 -13 6 0 9 4 6 8 -3 5 8 21 23
37 l29 27 -16 -44 c-13 -39 -20 -45 -44 -46 -16 0 -26 3 -23 8 9 15 -53 33
-92 25 -33 -6 -35 -5 -24 9 16 19 44 21 72 5 11 -5 27 -9 36 -7 13 2 11 9 -12
36 -15 18 -26 34 -24 35 2 1 13 7 24 14 29 17 37 16 26 -5z m119 -12 c0 -5 -7
-10 -16 -10 -8 0 -12 5 -9 10 3 6 10 10 16 10 5 0 9 -4 9 -10z m3977 -32 c12
-18 21 -33 20 -35 -5 -4 -107 32 -107 38 0 7 40 27 55 28 6 0 20 -14 32 -31z
m-3871 -5 c15 -20 18 -49 6 -57 -4 -2 -15 2 -25 9 -13 9 -16 20 -11 39 7 31
12 32 30 9z m254 -13 c0 -5 -5 -10 -11 -10 -5 0 -7 5 -4 10 3 6 8 10 11 10 2
0 4 -4 4 -10z m2785 -15 c34 -28 32 -30 -14 -14 -17 6 -31 17 -31 25 0 20 10
17 45 -11z m-2935 -15 c0 -5 -4 -10 -10 -10 -5 0 -10 5 -10 10 0 6 5 10 10 10
6 0 10 -4 10 -10z m6823 -21 c-3 -12 -9 -17 -15 -11 -10 10 0 44 12 37 5 -3 6
-14 3 -26z m-6808 1 c-3 -5 -12 -10 -18 -10 -7 0 -6 4 3 10 19 12 23 12 15 0z
m11539 -17 c-21 -15 -58 -18 -49 -3 3 6 15 10 26 10 11 0 17 4 14 10 -4 6 1 7
11 3 16 -6 15 -7 -2 -20z m-11482 11 c12 -12 -5 -43 -23 -41 -12 1 -17 7 -14
15 3 7 5 18 5 23 0 10 23 12 32 3z m-718 -39 c-22 -16 -44 -19 -44 -6 0 9 21
18 49 20 10 1 9 -4 -5 -14z m786 -15 c0 -5 -2 -10 -4 -10 -3 0 -8 5 -11 10 -3
6 -1 10 4 10 6 0 11 -4 11 -10z m6895 -44 c12 -12 12 -16 1 -25 -11 -9 -15 -6
-18 14 -6 29 -2 31 17 11z m1505 4 c0 -5 -5 -10 -11 -10 -5 0 -7 5 -4 10 3 6
8 10 11 10 2 0 4 -4 4 -10z m2475 0 c-3 -5 -11 -10 -16 -10 -6 0 -7 5 -4 10 3
6 11 10 16 10 6 0 7 -4 4 -10z m-8445 -55 c-7 -9 -15 -13 -19 -10 -3 3 1 10 9
15 21 14 24 12 10 -5z m7900 -25 c0 -5 -4 -10 -10 -10 -5 0 -10 5 -10 10 0 6
5 10 10 10 6 0 10 -4 10 -10z m536 -14 c3 -8 4 -23 2 -33 -3 -14 -7 -11 -20
15 -14 27 -14 32 -2 32 8 0 17 -6 20 -14z m-8956 -26 c0 -5 -5 -10 -11 -10 -5
0 -7 5 -4 10 3 6 8 10 11 10 2 0 4 -4 4 -10z m6970 -34 c0 -2 -7 -9 -15 -16
-13 -11 -14 -10 -9 4 5 14 24 23 24 12z m113 -227 c-7 -24 -8 -22 -17 15 -6
25 -5 28 7 17 8 -6 13 -21 10 -32z m-9916 -14 c8 -9 13 -18 10 -21 -7 -8 -47
15 -47 26 0 15 20 12 37 -5z m2991 -28 c2 -18 -1 -27 -11 -27 -15 0 -30 37
-21 52 10 17 29 2 32 -25z m-3015 -9 c27 -14 57 -47 56 -62 0 -6 -3 -5 -6 3
-4 11 -7 11 -13 0 -6 -9 -17 -5 -42 17 -19 17 -32 36 -30 42 5 15 8 15 35 0z
m143 -55 c-2 -3 -9 -2 -15 1 -7 5 -6 16 2 34 l12 27 3 -29 c2 -15 1 -30 -2
-33z m9839 17 c7 -12 -19 -12 -55 0 -22 7 -21 8 12 9 20 1 40 -3 43 -9z
m-9862 -85 c14 -10 18 -18 11 -25 -13 -13 -56 0 -50 15 2 7 0 17 -6 23 -8 8
-7 16 3 28 13 16 14 16 17 -4 2 -12 13 -29 25 -37z m137 47 c0 -13 -12 -22
-22 -16 -10 6 -1 24 13 24 5 0 9 -4 9 -8z m7706 -7 c-23 -17 -36 -19 -36 -6 0
5 8 12 18 14 32 9 37 6 18 -8z m2001 5 c35 0 27 -6 -19 -14 -31 -6 -38 -4 -38
10 0 11 5 14 16 10 9 -3 27 -6 41 -6z m2273 -9 c-7 -14 -6 -21 3 -24 9 -4 9
-6 -1 -6 -19 -1 -27 30 -11 40 20 12 21 11 9 -10z m-11400 -5 c0 -11 -19 -15
-25 -6 -3 5 1 10 9 10 9 0 16 -2 16 -4z m11367 -18 c-3 -8 -6 -5 -6 6 -1 11 2
17 5 13 3 -3 4 -12 1 -19z m-1574 -9 c3 -13 -1 -28 -9 -36 -18 -19 -31 -9 -15
11 9 11 8 15 -4 20 -21 8 -19 26 4 26 11 0 21 -9 24 -21z m97 7 c0 -8 -4 -17
-9 -20 -10 -7 -23 19 -14 28 11 11 23 6 23 -8z m-730 0 c0 -2 -7 -9 -15 -16
-12 -10 -15 -10 -15 4 0 9 7 16 15 16 8 0 15 -2 15 -4z m-9800 -66 c0 -11 -4
-20 -9 -20 -5 0 -7 9 -4 20 3 11 7 20 9 20 2 0 4 -9 4 -20z m9745 -10 c3 -5 1
-10 -4 -10 -6 0 -11 5 -11 10 0 6 2 10 4 10 3 0 8 -4 11 -10z m2192 -6 c-3 -3
-12 -4 -19 -1 -8 3 -5 6 6 6 11 1 17 -2 13 -5z m-1066 -45 c19 -19 18 -19 -7
-19 -32 0 -64 17 -64 34 0 18 48 8 71 -15z m1086 13 c16 -10 27 -58 14 -66
-20 -13 -48 12 -49 44 -1 30 11 37 35 22z m-12047 -12 c0 -5 -4 -10 -10 -10
-5 0 -10 5 -10 10 0 6 5 10 10 10 6 0 10 -4 10 -10z m538 -31 c-13 -8 -28 7
-28 30 0 11 5 10 20 -4 15 -14 17 -20 8 -26z m11571 27 c10 -12 8 -17 -7 -25
-17 -9 -20 -7 -24 14 -6 28 12 34 31 11z m-9426 -27 c-3 -12 -9 -17 -15 -11
-10 10 0 44 12 37 5 -3 6 -14 3 -26z m7352 13 c-3 -3 -11 0 -18 7 -9 10 -8 11
6 5 10 -3 15 -9 12 -12z m1965 -2 c0 -13 -7 -20 -20 -20 -22 0 -28 25 -7 33
22 10 27 7 27 -13z m-12120 0 c0 -5 -5 -10 -11 -10 -5 0 -7 5 -4 10 3 6 8 10
11 10 2 0 4 -4 4 -10z m230 -10 c0 -5 -5 -10 -11 -10 -5 0 -7 5 -4 10 3 6 8
10 11 10 2 0 4 -4 4 -10z m9997 4 c-3 -3 -12 -4 -19 -1 -8 3 -5 6 6 6 11 1 17
-2 13 -5z m188 -14 c3 -5 2 -10 -4 -10 -5 0 -13 5 -16 10 -3 6 -2 10 4 10 5 0
13 -4 16 -10z m-224 -20 c28 0 23 -23 -10 -43 -42 -25 -52 -22 -41 9 6 14 7
31 3 37 -4 7 0 8 11 4 10 -4 26 -7 37 -7z m-7946 -9 c3 -5 1 -12 -5 -16 -5 -3
-10 1 -10 9 0 18 6 21 15 7z m555 -7 c0 -8 -4 -12 -10 -9 -5 3 -10 10 -10 16
0 5 5 9 10 9 6 0 10 -7 10 -16z m-2092 -23 c3 -8 -1 -12 -9 -9 -7 2 -15 10
-17 17 -3 8 1 12 9 9 7 -2 15 -10 17 -17z m1922 9 c0 -5 -4 -10 -10 -10 -5 0
-10 5 -10 10 0 6 5 10 10 10 6 0 10 -4 10 -10z m-1980 -10 c0 -5 -5 -10 -11
-10 -5 0 -7 5 -4 10 3 6 8 10 11 10 2 0 4 -4 4 -10z m9717 -16 c-7 -7 -37 7
-37 17 0 6 9 5 21 -1 11 -7 19 -14 16 -16z m-7937 -125 c0 -6 -4 -7 -10 -4 -5
3 -10 11 -10 16 0 6 5 7 10 4 6 -3 10 -11 10 -16z m360 -111 c0 -19 -2 -20
-10 -8 -13 19 -13 30 0 30 6 0 10 -10 10 -22z m-2192 -194 c-4 -3 -12 5 -18
18 -12 22 -12 22 6 6 10 -10 15 -20 12 -24z m106 -212 c3 -5 -1 -9 -9 -9 -8 0
-15 4 -15 9 0 4 4 8 9 8 6 0 12 -4 15 -8z m-69 -101 c3 -5 1 -12 -4 -15 -12
-8 -41 3 -41 15 0 12 37 12 45 0z m-75 -71 c0 -29 -19 -40 -69 -40 -23 0 -22
1 8 29 17 16 31 37 31 46 0 14 3 15 15 5 8 -7 15 -25 15 -40z m812 -62 c-6 -6
-15 -8 -19 -4 -4 4 -1 11 7 16 19 12 27 3 12 -12z m-185 -10 c-3 -8 -6 -5 -6
6 -1 11 2 17 5 13 3 -3 4 -12 1 -19z m223 13 c0 -5 -7 -11 -14 -14 -10 -4 -13
-1 -9 9 6 15 23 19 23 5z m280 -40 c-12 -23 -30 -28 -30 -9 0 16 34 52 38 39
2 -5 -2 -19 -8 -30z m-310 -21 c0 -5 -11 -10 -25 -10 -14 0 -25 5 -25 10 0 6
11 10 25 10 14 0 25 -4 25 -10z m-110 -42 c0 -11 -7 -10 -31 2 -28 16 -23 32
6 18 14 -6 25 -15 25 -20z m-95 12 c3 -5 1 -10 -4 -10 -6 0 -11 5 -11 10 0 6
2 10 4 10 3 0 8 -4 11 -10z m164 -112 c1 -11 -11 -10 -28 1 -13 8 -13 12 -1
26 13 16 15 16 21 -2 4 -10 8 -21 8 -25z m-149 17 c-7 -9 -15 -13 -19 -10 -3
3 1 10 9 15 21 14 24 12 10 -5z m44 -53 c-6 -9 -23 -17 -37 -17 -14 0 -31 -5
-38 -12 -9 -9 -17 -8 -36 4 -26 17 -39 11 -45 -22 -2 -11 -13 -21 -25 -23 -22
-3 -22 -3 -6 37 16 41 46 58 84 46 10 -4 19 -2 19 4 0 6 12 8 29 5 17 -4 32
-1 36 6 5 9 10 9 18 1 9 -9 9 -16 1 -29z m46 14 c0 -3 -4 -8 -10 -11 -5 -3
-10 -1 -10 4 0 6 5 11 10 11 6 0 10 -2 10 -4z m-603 -26 c-1 -11 -5 -20 -9
-20 -10 0 -10 4 -2 24 8 22 13 20 11 -4z m243 -49 c0 -9 -24 -21 -42 -21 -6 0
-6 6 2 15 14 16 40 20 40 6z m174 -30 c9 -14 -17 -29 -39 -21 -19 7 -19 7 0
18 24 14 32 15 39 3z m43 -108 c-5 -7 -24 -13 -43 -13 -18 0 -44 -4 -58 -10
-28 -10 -31 -8 -16 19 7 15 18 17 60 13 l50 -5 -10 28 c-6 14 -7 31 -4 37 4 6
12 -4 19 -23 7 -22 8 -39 2 -46z m10 -35 c-3 -8 -6 -5 -6 6 -1 11 2 17 5 13 3
-3 4 -12 1 -19z"/>
<path d="M7455 5836 c-27 -11 -66 -46 -52 -46 3 0 29 11 59 25 29 14 62 25 73
25 19 0 19 -1 -2 -18 -27 -21 -47 -69 -32 -78 12 -7 9 -10 44 46 15 25 32 48
37 51 19 12 -98 8 -127 -5z"/>
<path d="M7574 5806 c-8 -33 1 -67 25 -97 l19 -24 11 28 c14 36 6 69 -24 97
l-24 23 -7 -27z"/>
<path d="M7868 5973 c6 -2 18 -2 25 0 6 3 1 5 -13 5 -14 0 -19 -2 -12 -5z"/>
<path d="M3730 10370 c8 -5 22 -10 30 -10 13 0 13 1 0 10 -8 5 -22 10 -30 10
-13 0 -13 -1 0 -10z"/>
<path d="M3478 5533 c6 -2 18 -2 25 0 6 3 1 5 -13 5 -14 0 -19 -2 -12 -5z"/>
<path d="M10031 5342 c-19 -9 -41 -28 -50 -42 l-16 -25 30 20 c37 23 101 55
112 55 4 -1 -1 -9 -13 -18 -12 -10 -26 -27 -33 -39 -13 -26 -15 -81 -2 -67 8
8 71 124 71 131 0 10 -71 -1 -99 -15z"/>
<path d="M9037 5333 c-4 -3 -7 -13 -7 -22 1 -13 3 -13 11 2 11 19 8 33 -4 20z"/>
<path d="M3286 5228 c-24 -38 -24 -63 0 -66 39 -6 68 60 35 78 -17 8 -23 6
-35 -12z"/>
<path d="M8521 5136 c-19 -7 -37 -18 -39 -24 -5 -17 32 -15 73 5 62 30 36 44
-34 19z"/>
<path d="M10047 5099 c8 -8 25 -9 60 -1 l48 10 -59 1 c-44 1 -57 -2 -49 -10z"/>
<path d="M10125 5047 c-30 -53 -32 -68 -4 -36 l20 24 -11 -25 c-10 -22 -10
-23 3 -8 8 10 17 15 21 11 4 -4 4 1 0 11 -5 13 -4 17 3 13 6 -4 13 5 15 23 7
44 -17 38 -47 -13z"/>
<path d="M8349 4986 c-10 -20 -15 -23 -26 -15 -14 12 -17 0 -13 -51 2 -29 52
-99 58 -82 7 21 22 2 22 -27 0 -15 6 -35 13 -45 12 -17 14 -17 36 1 30 24 38
85 17 118 -9 14 -22 22 -30 19 -11 -4 -18 7 -26 37 -6 23 -18 48 -26 56 -12
12 -15 11 -25 -11z"/>
<path d="M8527 4996 c-22 -17 -9 -29 47 -44 29 -8 46 -8 70 2 l31 13 -35 21
c-40 25 -86 28 -113 8z"/>
<path d="M8264 4869 c-26 -33 -34 -58 -25 -81 8 -22 7 -24 -17 -21 -15 2 -34
-1 -42 -7 -13 -9 -12 -12 4 -25 11 -8 32 -15 48 -15 32 0 35 -6 11 -32 -20
-23 -15 -28 36 -35 35 -5 44 -2 71 26 32 32 32 56 -1 48 -10 -3 -21 -2 -24 3
-6 9 18 20 45 20 16 0 17 3 7 30 -9 22 -20 31 -45 36 -24 5 -36 14 -45 36 -10
25 -15 28 -23 17z"/>
<path d="M8399 4733 c-1 -5 -2 -12 -3 -18 0 -5 -7 -21 -15 -34 -16 -28 -22
-71 -10 -71 5 0 9 -6 9 -13 0 -8 8 -21 19 -31 17 -16 19 -15 31 14 13 31 7 95
-12 117 -6 7 -8 20 -4 28 3 8 1 15 -4 15 -6 0 -11 -3 -11 -7z"/>
<path d="M8444 4694 c3 -9 6 -22 6 -31 0 -22 69 -85 88 -81 27 5 15 57 -23 95
-35 35 -82 46 -71 17z"/>
<path d="M2805 4656 c-39 -19 -77 -41 -84 -50 -17 -20 -8 -20 28 -2 15 8 37
12 49 9 18 -4 19 -9 11 -31 -19 -48 7 -42 43 10 56 83 62 98 41 98 -10 -1 -50
-16 -88 -34z"/>
<path d="M2893 4629 c-18 -18 -16 -64 2 -99 19 -36 31 -38 39 -7 10 40 6 74
-11 96 -15 18 -20 20 -30 10z"/>
</g>
</svg>
