<?xml version="1.0"?>
<svg xmlns:rdf="http://www.w3.org/1999/02/22-rdf-syntax-ns#" xmlns="http://www.w3.org/2000/svg" xmlns:cc="http://web.resource.org/cc/" xmlns:dc="http://purl.org/dc/elements/1.1/" xmlns:svg="http://www.w3.org/2000/svg" id="svg2" viewBox="0 0 260.75 266.5" version="1.0">
  <g id="layer1" transform="translate(-256.82 -45.24)">
    <path id="path2251" d="m344.59 307.44c3.83-13.41 5.47-27.89 4.27-37.54-1.11-8.85-2.26-11.23-6.33-13.09-2.84-1.29-4.53-3.42-3.94-4.96 0.77-1.99-0.29-2.37-4.04-1.42-2.8 0.7-4.94 0.48-4.76-0.48 0.75-4.18-0.45-4.78-4.71-2.35-2.51 1.43-5.46 2.66-6.58 2.75-1.11 0.08-5.54 1.68-9.85 3.54-9.63 4.18-10.23 4.19-13.56 0.18-2.36-2.84-1.96-3.1 3.46-2.25 4.63 0.73 6.75-0.04 8.69-3.14 2.24-3.6 2.13-3.94-0.9-2.78-3 1.15-3.29 0.38-2.13-5.78 0.73-3.9 0.6-7.1-0.3-7.1-1.99 0-7.66 8.52-7.07 10.62 0.24 0.83-0.99 1.52-2.72 1.52-1.74 0-2.6 0.91-1.91 2.02s-0.55 2.02-2.74 2.02c-2.2 0-4.36 1.09-4.81 2.43-0.6 1.79-1.18 1.82-2.23 0.12-0.79-1.27 0.48-4.09 2.81-6.26 2.41-2.24 3.38-4.48 2.25-5.18-2.41-1.49-8.45 0.62-12.11 4.23-3.87 3.82-6.32 3.26-8.27-1.91-1.43-3.78-0.76-5.07 3.91-7.59 4.07-2.19 4.98-3.59 3.3-5.05-1.28-1.11-3.24-2.07-4.35-2.14-3.58-0.2-13.15-3.32-13.15-4.29 0-0.52 1.39-2.33 3.09-4.03 2.47-2.46 3.69-2.59 6.07-0.62 1.64 1.36 2.97 1.79 2.97 0.97 0-0.83 1.54-0.26 3.43 1.27 2.95 2.39 3.17 2.36 1.58-0.26-1.02-1.67-1.56-5.27-1.2-8 0.57-4.47 0.29-4.68-2.81-2.1-3.01 2.5-3.78 2.42-5.99-0.6-1.39-1.9-3.57-3.46-4.83-3.46-1.27 0-2.31-1.92-2.31-4.26 0-2.96 0.93-3.9 3.03-3.1 1.67 0.64 3.04 0.29 3.04-0.79 0-2.87 5.55-2.4 6.75 0.57 0.56 1.39 1.09 0.02 1.18-3.04s-0.75-5.56-1.87-5.56c-1.11 0-2.02-1.36-2.02-3.03 0-1.69 1.8-3.04 4.05-3.04 3.08 0 4.04-1.34 4.04-5.66 0-3.11 0.94-6.6 2.09-7.74 2.75-2.75-0.21-9.85-4.11-9.85-1.67 0-4.28 1.18-5.8 2.62-3.43 3.25-4.23 2.51-5.21-4.87-0.43-3.21-1.36-7.32-2.08-9.12-0.8-2.02-0.09-3.74 1.85-4.49 3.74-1.43 4.09-5.65 0.75-8.99-3-3-4.22-10.41-2.38-14.51 1.66-3.71 2.17-5.39 2.5-8.38 0.14-1.24 1.71-1.69 3.48-1.01 2.14 0.82 3.57-0.1 4.27-2.76 0.68-2.62 3.43-4.46 7.95-5.3 3.8-0.72 8.06-2.95 9.47-4.966 1.41-2.017 5.03-4.286 8.04-5.041s5.47-2.185 5.47-3.176c0-0.992 1.37-1.803 3.04-1.803 1.66 0 3.03 0.91 3.03 2.022s0.91 2.022 2.02 2.022 2.02-1.802 2.02-4.006c0-2.56 1.79-4.453 4.94-5.244 4.34-1.09 4.7-1.858 2.97-6.389-1.51-3.981-1.18-6.007 1.46-8.924 1.88-2.076 3.81-3.378 4.3-2.894 0.48 0.484 4-0.876 7.82-3.021 3.83-2.146 8.8-3.902 11.05-3.902 2.62 0 3.58-0.856 2.64-2.366-1-1.631-0.32-1.928 2.22-0.954 2.43 0.932 5.25-0.058 8.28-2.907 2.53-2.375 5.8-3.89 7.27-3.368 1.47 0.523 4.94-0.167 7.73-1.533 6.28-3.085 17.69-3.469 19.43-0.654 0.84 1.363 1.97 1.138 3.22-0.642 1.12-1.593 2.3-1.896 2.81-0.721 2.4 5.437 4.63 7.308 9.1 7.612 2.68 0.182 5.95 1.375 7.26 2.652 1.32 1.276 5.96 2.89 10.31 3.586 9.83 1.572 25.11 14.727 20.5 17.645-1.57 0.997-2.12 1.826-1.2 1.843 0.91 0.017 0.17 1.519-1.65 3.339-1.82 1.819-2.57 4.01-1.66 4.868 2.76 2.618 17.58 5.99 18.75 4.268 0.6-0.889 2.75-2.228 4.78-2.975 2.95-1.093 3.55-0.469 3.03 3.181-0.35 2.497-1.55 4.399-2.67 4.227-3.19-0.492-5.1 4.081-2.42 5.791 3.71 2.36 5.46 1.9 5.46-1.43 0-1.672 1.44-3.037 3.21-3.037 2.65 0 2.96 1.489 1.77 8.597-1.48 8.9-4.17 12.25-8.52 10.66-3.86-1.42-3.02 2.5 1.51 7.03 4.62 4.62 5.12 8.24 1.62 11.73-1.71 1.72-1.76 2.43-0.14 2.43 1.25 0 3.68-1.4 5.39-3.11 2.79-2.79 3.57-2.64 7.72 1.52 2.55 2.54 5.35 4.38 6.23 4.09s1.38 3.1 1.12 7.53c-0.57 9.63 1.15 11.91 6.47 8.58 2.73-1.7 3.95-1.78 3.95-0.24 0 1.23-1.7 2.68-3.79 3.23-2.09 0.54-4.97 3.19-6.41 5.87-2.19 4.1-3.94 4.8-10.87 4.38-6.21-0.38-8.25 0.25-8.25 2.53 0 2.08 2.07 3.03 6.57 3.01 3.62-0.01 6.57 0.58 6.57 1.3 0 0.73 2.28 1.89 5.06 2.59s5.06 2.14 5.06 3.2c0 1.22 1.91 1.21 5.18-0.04 6.85-2.6 6.74-2.65 5.45 2.58-0.62 2.5-0.42 3.91 0.43 3.13 2.52-2.3 7.34 3.95 6.91 8.95-0.92 10.52 0.15 13.71 4.61 13.71 7.23 0 2.55 2.39-5.77 2.94-10.34 0.68-12.79 1.49-17.15 5.65-2.04 1.95-5.07 3.54-6.74 3.54s-3.09 1.14-3.16 2.53c-0.08 1.39-0.92 0.59-1.87-1.79-1.93-4.78-14.12-7.42-21.26-4.61-2.23 0.87-2.91 1.65-1.52 1.72s2.53 1.95 2.53 4.17c0 2.23 0.92 4.05 2.06 4.05 1.18 0 1.56-2.37 0.88-5.56-0.98-4.64-0.8-4.98 1.08-2.03 1.23 1.95 3.62 3.54 5.3 3.54s2.49 0.91 1.8 2.02c-0.68 1.11 0.17 4.04 1.91 6.52 3.78 5.39 4.09 8.47 0.65 6.34-3.45-2.14-10.24-2.54-12.67-0.75-4.67 3.44-12.73 4.04-13.88 1.03-0.64-1.66-0.26-3.02 0.84-3.02 2.32 0 0.18-10.53-2.51-12.3-0.98-0.64-1.2-2.69-0.48-4.55 0.96-2.5 0.18-3.38-2.97-3.38-2.34 0-4.26 0.97-4.26 2.14 0 1.18 0.91 1.58 2.02 0.9 4.01-2.48 1.93 4.63-2.15 7.33-4.92 3.27-3.48 9.86 2.15 9.86 1.99 0 4.19 1.48 4.88 3.3 1.09 2.82 0.08 3.15-6.86 2.22-9.66-1.3-10.5 0.53-1.98 4.3 4.97 2.2 5.69 3.26 3.76 5.59-1.87 2.25-1.56 3.8 1.44 7.21 3.45 3.93 3.48 4.23 0.28 3.06-2.35-0.85-3.54-0.29-3.54 1.68 0 1.64-0.91 2.97-2.02 2.97s-2.02-0.82-2.02-1.83-1.94-1.33-4.3-0.71c-2.78 0.73-4.96-0.05-6.17-2.21-2.48-4.43-5.71-4.25-5.71 0.32 0 2.01-1.43 5.43-3.19 7.58-3.1 3.83-3.15 3.81-2.19-0.67 0.59-2.79 0.05-4.48-1.37-4.31-5.8 0.71-9.43-0.4-9.43-2.89 0-1.48-1.14-2.82-2.53-2.97-5.92-0.64-16.75-1.99-17.59-2.2-0.5-0.12 0.18-1.31 1.51-2.65 3.34-3.33 3.05-7.68-0.5-7.68-1.62 0-3.86-1.59-5-3.54-1.94-3.34-2.06-3.33-2.12 0.14-0.05 2.74-1.08 3.35-4.11 2.39-2.58-0.82-4.04-0.37-4.04 1.26 0 1.42-1.32 0.81-2.97-1.38-5.35-7.08-3.61 1.56 2.92 14.5 5.21 10.32 6.09 14.47 6.57 31.12l0.56 19.21-14.93 0.6c-14.71 0.59-14.9 0.54-13.59-4.04zm86.1-55.05c-2.72-2.72-4.74 0.03-3.12 4.25 1.16 3.03 1.65 3.12 3.2 0.61 1.1-1.78 1.07-3.72-0.08-4.86zm-11.95 3.1c2.83 4.56 4.48 0.37 2.99-7.57-0.93-4.94-1.97-6.64-3.03-4.94-0.99 1.6-3.27 2.08-5.9 1.24-4.97-1.57-5.7 1.3-1.27 4.98 1.67 1.39 3.11 4 3.2 5.81 0.11 2.43 0.44 2.57 1.25 0.53 0.91-2.28 1.38-2.29 2.76-0.05zm-11.89-6.73c-1.45-1.45-2.4-1.57-2.4-0.3 0 2.7 2.4 5.09 3.74 3.74 0.58-0.57-0.03-2.12-1.34-3.44zm-8.97 1.07c-1.95-0.51-3.54-2.76-3.54-4.99 0-5.4-4.86-3.7-5.7 1.99-0.56 3.79 0.27 4.36 6.07 4.16 3.69-0.13 5.12-0.65 3.17-1.16zm-74.32-11.15c0-0.86-1.48-3.29-3.28-5.4-3.04-3.54-3.58-3.59-7.08-0.59-4.73 4.05-4.8 5.86-0.26 6.94 5.37 1.28 10.62 0.81 10.62-0.95zm-35.4-5.33c-1.44-1.44-7.07 1.47-7.07 3.67 0 1.33 1.45 1.2 3.95-0.37 2.18-1.35 3.58-2.84 3.12-3.3zm128.81 4.36c-1.46-0.59-3.21-0.51-3.88 0.16s0.52 1.15 2.66 1.06c2.35-0.1 2.83-0.58 1.22-1.22zm10.95-5.7c-2.11-1.6-4.83-2.29-6.05-1.54-1.27 0.79-0.08 1.96 2.83 2.77 7.29 2.03 7.44 1.97 3.22-1.23zm-118.85-5.2c2.66-0.11 2.52-0.48-0.68-1.79-4.77-1.95-8.21 0.48-5.92 4.19 1.21 1.95 1.81 2 2.42 0.17 0.44-1.33 2.32-2.49 4.18-2.57zm25.06-3.07c-0.71-3.7-1.48-4.47-2.64-2.6-0.9 1.46-0.67 3.81 0.52 5.24 3.01 3.63 3.26 3.32 2.12-2.64zm94.57-3.85c2.26-1.4 1.67-8.22-0.92-10.58-0.96-0.86-0.96-0.21-0.01 1.47 1.47 2.58 1.24 2.63-1.59 0.34-2.42-1.96-4.3-2.11-6.96-0.57-2 1.17-2.51 2.15-1.12 2.19 3.96 0.09 2.97 6.12-1.01 6.16-2.87 0.02-2.99 0.37-0.67 1.84 2.88 1.82 8.6 1.43 12.28-0.85zm-71.75-8.73c-1.13-2.92-1.72-2.69-4.04 1.62-2.02 3.74-2.12 5.42-0.39 6.49 3.05 1.88 6.13-3.74 4.43-8.11zm25.26 5.82c0-3.53 6.63-7.66 10.61-6.6 2.8 0.73 1.56-7.17-1.51-9.72-2.1-1.74-3.04-1.81-3.04-0.24 0 1.24-1.39 2.27-3.1 2.27-2.52 0-2.68 0.79-0.84 4.23 2.07 3.86 1.85 4.11-2.45 2.78-2.6-0.79-4.08-0.76-3.28 0.08 0.79 0.84 0.6 3.11-0.44 5.04-1.87 3.49-0.86 6.07 2.36 6.07 0.93 0 1.69-1.76 1.69-3.91zm90.32-1.65c-0.5-0.84 0.42-2.75 2.04-4.25 2.52-2.33 3.13-2.11 4.07 1.51 0.81 3.08 2.72 4.25 6.94 4.25 6.43 0 7.45-2.2 2.8-6.06-1.67-1.39-3.03-1.93-3.03-1.21s-2.73-0.1-6.07-1.83c-3.78-1.95-6.07-2.31-6.07-0.94 0 1.2-0.83 1.68-1.85 1.05-1.01-0.63-2.31 0-2.87 1.4-0.56 1.39-1.1 0.49-1.18-2.01-0.13-3.65-1.34-4.55-6.11-4.55-6.32 0-9.95-3.01-5.69-4.73 1.53-0.62 1.13-1.08-1-1.18-1.95-0.09-3.54 0.66-3.54 1.67s-1.84 1.36-4.08 0.77c-3.01-0.79-3.77-0.28-2.92 1.95 0.76 1.97-0.43 3.42-3.47 4.22-7.17 1.87-1.82 5.53 9.18 6.26 7.12 0.48 9.38-0.07 9.38-2.29 0-2.08 1.88-1.44 6.57 2.26 6.86 5.4 8.45 6.26 6.9 3.71zm-68.08-8.6c0-1.11-1.42-2.02-3.15-2.02s-2.59 0.91-1.9 2.02c1.61 2.62 5.05 2.62 5.05 0zm24.27-1.13c0-0.49-1.42-0.89-3.15-0.89s-2.58 0.92-1.88 2.05c1.15 1.87 5.03 0.98 5.03-1.16zm-128.74-1.55c0.73 0.73 1.33 0.32 1.33-0.91 0-3.85-3.94-4.89-6.99-1.83-3.37 3.37-1.66 6.38 1.94 3.4 1.31-1.09 2.99-1.39 3.72-0.66zm45.82-0.35c0-1.67-0.91-3.04-2.02-3.04s-2.02 1.37-2.02 3.04 0.91 3.03 2.02 3.03 2.02-1.36 2.02-3.03zm69.34-1.05c-1.21-4.62-4.62-7.5-4.62-3.89 0 1.38-1.69 1.93-4.04 1.32-4.99-1.31-5.33 1.66-0.51 4.47 6.09 3.54 10.37 2.66 9.17-1.9zm50.36-5.39c-1.46-0.58-3.2-0.51-3.87 0.16s0.52 1.15 2.65 1.06c2.36-0.1 2.84-0.57 1.22-1.22zm-59.02-4.69c0-1.11-0.97-2.02-2.15-2.02-1.17 0-1.58 0.91-0.89 2.02 1.6 2.6 3.04 2.6 3.04 0zm-13.78-1.38c-1.46-0.58-3.21-0.51-3.88 0.16s0.52 1.15 2.66 1.06c2.35-0.09 2.83-0.57 1.22-1.22zm-91.39-5.91c0-0.44-1.36-0.8-3.03-0.8s-3.03 0.89-3.03 1.96c0 1.08 1.36 1.44 3.03 0.8s3.03-1.52 3.03-1.96zm140.39 2.02c3.28-1.26 4.61-5.24 1.45-4.33-0.97 0.28-3.6-1.74-5.84-4.49-3.5-4.28-4.54-4.6-7.35-2.28-4.55 3.78-4.08 5.62 1.8 7.09 2.78 0.7 5.05 2.16 5.05 3.26 0 2.31 0.59 2.4 4.89 0.75zm-133.94-2.17c-1.46-0.59-3.21-0.52-3.88 0.16-0.67 0.67 0.53 1.15 2.66 1.06 2.35-0.1 2.83-0.58 1.22-1.22zm75.68-8.23c4.34-5.72 3.65-9.15-1.23-6.1-2.23 1.39-4.05 4.12-4.05 6.08 0 4.52 1.85 4.53 5.28 0.02zm-19.78-4.38c0.59-4.01 0.19-4.27-3.54-2.28-5.1 2.74-5.59 8.02-0.66 7.31 1.94-0.28 3.84-2.55 4.2-5.03zm-72.46 0.72c0-1.73-0.92-2.58-2.05-1.88s-1.54 2.12-0.9 3.15c1.74 2.81 2.95 2.28 2.95-1.27zm19.42-2.36c-0.67-0.68-1.15 0.52-1.06 2.65 0.1 2.36 0.58 2.84 1.22 1.22 0.59-1.46 0.52-3.2-0.16-3.87zm11.93 1.47c-0.69-1.11-2.79-2.01-4.67-1.99-2.95 0.03-3 0.3-0.39 1.99 3.96 2.56 6.64 2.56 5.06 0zm37.41-7.95c0-2.08-1.16-1.67-4.04 1.42-5.17 5.55-5.17 7.27 0 4.04 2.22-1.39 4.04-3.84 4.04-5.46zm58.65-0.14c0-1.11-1.59-2.01-3.54-1.99-3.02 0.03-3.1 0.32-0.5 1.99 3.81 2.47 4.04 2.47 4.04 0zm-115.27-4.16c0-1.18-0.91-1.58-2.03-0.89-2.59 1.6-2.59 3.03 0 3.03 1.12 0 2.03-0.96 2.03-2.14zm97.87-12.36c-0.99-1.59-0.36-1.94 1.9-1.08 3.49 1.34 4.54-1.95 1.82-5.66-2.1-2.85-9.52-2.39-13.39 0.82-4.7 3.91-4.04 5.88 2.3 6.84 3.05 0.46 6.29 0.98 7.19 1.14 0.9 0.17 0.98-0.76 0.18-2.06zm-33.16-5.72c0-1.12-0.91-2.03-2.02-2.03s-2.02 0.91-2.02 2.03c0 1.11 0.91 2.02 2.02 2.02s2.02-0.91 2.02-2.02zm-62.69-3.81c0-1.94-8.36-4.69-9.81-3.24-0.68 0.68 5.5 3.93 9.3 4.89 0.28 0.08 0.51-0.67 0.51-1.65zm65.82-10.4c6.4-3.43 6.45-6.49 0.06-4.06-3.58 1.37-5.54 1.09-7.31-1.03-1.32-1.6-3.21-2.41-4.2-1.8-2.97 1.84-2.02 4.57 2.05 5.86 2.14 0.68 3.61 2.75 3.32 4.69-0.28 1.91-0.15 2.46 0.3 1.23s3.05-3.43 5.78-4.89zm32.74-8.55c-0.38-6.09-3.12-7.63-9.37-5.25-10.78 4.1-8.5 9.33 4.22 9.66 4.41 0.12 5.38-0.71 5.15-4.41zm9.63 2.53c0.69-1.11-0.67-2.02-3.03-2.02s-3.72 0.91-3.03 2.02c1.6 2.59 4.46 2.59 6.06 0zm45.51-6.18c0-1.18-0.91-1.58-2.02-0.9-2.6 1.6-2.6 3.04 0 3.04 1.11 0 2.02-0.97 2.02-2.14zm-133.48-1.91c0-1.11-0.91-2.02-2.02-2.02s-2.02 0.91-2.02 2.02 0.91 2.02 2.02 2.02 2.02-0.91 2.02-2.02zm42.47 0c0-1.11-0.96-2.02-2.14-2.02s-1.58 0.91-0.89 2.02c1.6 2.59 3.03 2.59 3.03 0zm2.5-18.629c1.21-3.63-0.68-11.704-2.73-11.704-0.99 0-1.79-0.911-1.79-2.023s0.68-1.914 1.52-1.783c0.83 0.132 2.88 0.118 4.55-0.031 2.48-0.222 2.53-0.583 0.28-2.014-3.11-1.969-10.4-0.621-10.4 1.922 0 0.917 0.82 2.174 1.83 2.793 1 0.619 1.52 4.313 1.16 8.209-0.46 4.903 0.18 7.083 2.05 7.083 1.5 0 3.08-1.103 3.53-2.452zm63.08 0.191c-0.84-1.366-8.95-0.04-8.95 1.463 0 0.414 2.21 0.57 4.91 0.346 2.7-0.223 4.52-1.038 4.04-1.809zm-37.27-9.873c0-2.626-5.45-2.626-7.07 0-0.69 1.112 0.62 2.022 2.91 2.022s4.16-0.91 4.16-2.022z"/>
  </g>
  <metadata>
    <rdf:RDF>
      <cc:Work>
        <dc:format>image/svg+xml</dc:format>
        <dc:type rdf:resource="http://purl.org/dc/dcmitype/StillImage"/>
        <cc:license rdf:resource="http://creativecommons.org/licenses/publicdomain/"/>
        <dc:publisher>
          <cc:Agent rdf:about="http://openclipart.org/">
            <dc:title>Openclipart</dc:title>
          </cc:Agent>
        </dc:publisher>
        <dc:title>Tree silhouettes</dc:title>
        <dc:date>2007-11-20T10:29:44</dc:date>
        <dc:description>Some shapes from photos.</dc:description>
        <dc:source>http://openclipart.org/detail/8763/tree-silhouettes-by-chrisdesign-8763</dc:source>
        <dc:creator>
          <cc:Agent>
            <dc:title>Chrisdesign</dc:title>
          </cc:Agent>
        </dc:creator>
        <dc:subject>
          <rdf:Bag>
            <rdf:li>clip art</rdf:li>
            <rdf:li>clipart</rdf:li>
            <rdf:li>image</rdf:li>
            <rdf:li>media</rdf:li>
            <rdf:li>nature</rdf:li>
            <rdf:li>png</rdf:li>
            <rdf:li>public domain</rdf:li>
            <rdf:li>shape</rdf:li>
            <rdf:li>silhouette</rdf:li>
            <rdf:li>svg</rdf:li>
            <rdf:li>tree</rdf:li>
          </rdf:Bag>
        </dc:subject>
      </cc:Work>
      <cc:License rdf:about="http://creativecommons.org/licenses/publicdomain/">
        <cc:permits rdf:resource="http://creativecommons.org/ns#Reproduction"/>
        <cc:permits rdf:resource="http://creativecommons.org/ns#Distribution"/>
        <cc:permits rdf:resource="http://creativecommons.org/ns#DerivativeWorks"/>
      </cc:License>
    </rdf:RDF>
  </metadata>
</svg>
