<svg width="24" height="24" viewBox="0 0 24 24" fill="none" xmlns="http://www.w3.org/2000/svg">
<mask id="mask0_2864_7567" style="mask-type:alpha" maskUnits="userSpaceOnUse" x="2" y="1" width="19" height="22">
<path d="M10.9993 7C10.9993 7 9.64933 9.6465 8.99933 13C8.34933 16.3535 8.49933 21 8.49933 21" stroke="white" stroke-width="2" stroke-linecap="round" stroke-linejoin="round"/>
<path d="M16.9763 11.6361C17.1493 11.7511 17.4228 11.8316 17.6903 11.8876C18.1563 11.9846 18.5863 11.6646 18.5743 11.1891C18.5518 10.3021 18.2058 8.85156 16.4453 7.68206C14.7828 6.57856 13.1323 6.56306 12.0913 6.72206C11.4978 6.81206 11.2613 7.46106 11.6023 7.95556C11.9063 8.39706 12.2603 8.84256 12.4998 8.92806C12.9998 9.10556 13.6013 8.63706 14.0398 8.92806C14.4778 9.21856 14.3473 9.89056 14.7858 10.1816C15.2238 10.4726 15.7923 10.0916 16.2308 10.3826C16.6683 10.6736 16.5383 11.3451 16.9763 11.6361ZM9.99979 8.50006C10.4288 8.35706 10.6943 7.88706 10.8428 7.51056C10.9658 7.19956 10.8558 6.85656 10.5678 6.68656C9.92029 6.30356 8.53779 5.77956 6.38079 6.40606C4.24829 7.02506 3.68579 8.43406 3.54229 9.26356C3.52558 9.3541 3.52786 9.44712 3.54897 9.53674C3.57008 9.62635 3.60957 9.71061 3.66494 9.78417C3.72031 9.85772 3.79035 9.91898 3.87063 9.96407C3.9509 10.0091 4.03966 10.0371 4.13129 10.0461C4.41129 10.0776 4.71929 10.0636 4.90329 9.90756C5.30679 9.56506 5.41579 9.11656 5.86679 8.99556C6.31729 8.87506 6.70629 9.42456 7.15679 9.30356C7.60779 9.18306 7.66979 8.51256 8.12029 8.39156C8.57129 8.27106 9.25029 8.75006 10.0003 8.50006H9.99979ZM13.4998 3.00006C12.2498 3.50006 10.9998 6.00006 10.9998 7.00006L17.4998 4.00006C16.8098 2.80456 14.7498 2.50006 13.4998 3.00006Z" fill="white" stroke="white" stroke-width="2" stroke-linecap="round" stroke-linejoin="round"/>
<path d="M10 2.49956C12 3.21056 11.69 5.80406 11 6.99956L5 2.96056C5.5 1.99956 8 1.78906 10 2.49956Z" fill="white" stroke="white" stroke-width="2" stroke-linecap="round" stroke-linejoin="round"/>
<path d="M13 17.5C17.142 17.5 19.5 18.395 19.5 19.5C19.5 20.605 16.142 21.5 12 21.5C7.858 21.5 4.5 20.605 4.5 19.5C4.5 19.23 4.7 18.9735 5.0625 18.7385" stroke="white" stroke-width="2" stroke-linecap="round"/>
</mask>
<g mask="url(#mask0_2864_7567)">
<path d="M0 0H24V24H0V0Z" fill="#404040"/>
</g>
</svg>
