<svg width="346" height="327" viewBox="0 0 346 327" fill="none" xmlns="http://www.w3.org/2000/svg">
<path d="M123.89 168.637C125.324 167.398 126.451 166.382 127.273 165.591C128.109 164.785 128.803 163.948 129.356 163.082C129.908 162.216 130.185 161.35 130.185 160.484C130.185 159.588 129.968 158.886 129.535 158.378C129.117 157.87 128.452 157.617 127.542 157.617C126.66 157.617 125.974 157.9 125.481 158.468C125.003 159.02 124.749 159.767 124.719 160.708H122.255C122.3 159.005 122.808 157.706 123.778 156.81C124.764 155.899 126.011 155.444 127.519 155.444C129.147 155.444 130.416 155.892 131.327 156.788C132.253 157.684 132.716 158.878 132.716 160.372C132.716 161.447 132.44 162.485 131.887 163.485C131.349 164.471 130.7 165.36 129.938 166.151C129.192 166.928 128.236 167.831 127.071 168.861L126.063 169.757H133.164V171.885H122.278V170.026L123.89 168.637ZM135.407 163.732C135.407 161.148 135.84 159.132 136.706 157.684C137.587 156.22 139.096 155.489 141.231 155.489C143.367 155.489 144.867 156.22 145.734 157.684C146.615 159.132 147.055 161.148 147.055 163.732C147.055 166.345 146.615 168.391 145.734 169.869C144.867 171.333 143.367 172.065 141.231 172.065C139.096 172.065 137.587 171.333 136.706 169.869C135.84 168.391 135.407 166.345 135.407 163.732ZM144.546 163.732C144.546 162.522 144.464 161.499 144.3 160.663C144.151 159.827 143.837 159.147 143.359 158.625C142.881 158.087 142.172 157.818 141.231 157.818C140.29 157.818 139.581 158.087 139.103 158.625C138.625 159.147 138.304 159.827 138.14 160.663C137.991 161.499 137.916 162.522 137.916 163.732C137.916 164.986 137.991 166.039 138.14 166.89C138.289 167.741 138.603 168.428 139.081 168.951C139.574 169.474 140.29 169.735 141.231 169.735C142.172 169.735 142.881 169.474 143.359 168.951C143.852 168.428 144.173 167.741 144.322 166.89C144.472 166.039 144.546 164.986 144.546 163.732ZM149.354 159.722C149.354 158.632 149.668 157.781 150.295 157.169C150.937 156.541 151.758 156.228 152.759 156.228C153.759 156.228 154.573 156.541 155.2 157.169C155.842 157.781 156.164 158.632 156.164 159.722C156.164 160.812 155.842 161.671 155.2 162.298C154.573 162.925 153.759 163.239 152.759 163.239C151.758 163.239 150.937 162.925 150.295 162.298C149.668 161.671 149.354 160.812 149.354 159.722ZM163.018 156.519L154.08 172.109H151.572L160.509 156.519H163.018ZM152.759 157.773C151.818 157.773 151.348 158.423 151.348 159.722C151.348 161.036 151.818 161.693 152.759 161.693C153.207 161.693 153.55 161.537 153.789 161.223C154.043 160.894 154.17 160.394 154.17 159.722C154.17 158.423 153.7 157.773 152.759 157.773ZM158.471 168.884C158.471 167.794 158.784 166.942 159.412 166.33C160.054 165.703 160.875 165.389 161.876 165.389C162.861 165.389 163.667 165.703 164.295 166.33C164.937 166.942 165.258 167.794 165.258 168.884C165.258 169.974 164.937 170.833 164.295 171.46C163.667 172.087 162.861 172.401 161.876 172.401C160.875 172.401 160.054 172.087 159.412 171.46C158.784 170.833 158.471 169.974 158.471 168.884ZM161.853 166.935C160.912 166.935 160.442 167.585 160.442 168.884C160.442 170.183 160.912 170.833 161.853 170.833C162.794 170.833 163.264 170.183 163.264 168.884C163.264 167.585 162.794 166.935 161.853 166.935ZM178.781 156.541C180.439 156.541 181.887 156.862 183.127 157.505C184.381 158.132 185.344 159.043 186.016 160.237C186.703 161.417 187.047 162.798 187.047 164.381C187.047 165.964 186.703 167.338 186.016 168.503C185.344 169.668 184.381 170.564 183.127 171.191C181.887 171.803 180.439 172.109 178.781 172.109H173.696V156.541H178.781ZM178.781 170.026C180.603 170.026 181.999 169.533 182.97 168.548C183.94 167.562 184.426 166.173 184.426 164.381C184.426 162.574 183.94 161.163 182.97 160.148C181.999 159.132 180.603 158.625 178.781 158.625H176.25V170.026H178.781ZM194.931 172.311C193.766 172.311 192.713 172.05 191.773 171.527C190.832 170.989 190.093 170.243 189.555 169.287C189.017 168.316 188.749 167.196 188.749 165.927C188.749 164.673 189.025 163.56 189.577 162.589C190.13 161.619 190.884 160.872 191.84 160.349C192.795 159.827 193.863 159.565 195.043 159.565C196.223 159.565 197.29 159.827 198.246 160.349C199.202 160.872 199.956 161.619 200.509 162.589C201.061 163.56 201.337 164.673 201.337 165.927C201.337 167.181 201.054 168.294 200.486 169.265C199.919 170.235 199.142 170.989 198.157 171.527C197.186 172.05 196.111 172.311 194.931 172.311ZM194.931 170.093C195.588 170.093 196.2 169.937 196.768 169.623C197.35 169.309 197.821 168.839 198.179 168.212C198.537 167.585 198.717 166.823 198.717 165.927C198.717 165.031 198.545 164.277 198.201 163.665C197.858 163.037 197.402 162.567 196.835 162.253C196.267 161.94 195.655 161.783 194.998 161.783C194.341 161.783 193.729 161.94 193.161 162.253C192.609 162.567 192.168 163.037 191.84 163.665C191.511 164.277 191.347 165.031 191.347 165.927C191.347 167.256 191.683 168.286 192.355 169.018C193.042 169.735 193.901 170.093 194.931 170.093ZM210.089 159.565C211.06 159.565 211.926 159.767 212.687 160.17C213.464 160.573 214.069 161.171 214.502 161.962C214.935 162.754 215.151 163.709 215.151 164.829V172.109H212.62V165.21C212.62 164.105 212.344 163.261 211.791 162.679C211.239 162.082 210.485 161.783 209.529 161.783C208.573 161.783 207.812 162.082 207.244 162.679C206.692 163.261 206.415 164.105 206.415 165.21V172.109H203.862V159.767H206.415V161.178C206.833 160.67 207.364 160.275 208.006 159.991C208.663 159.707 209.357 159.565 210.089 159.565ZM229.72 165.636C229.72 166.099 229.691 166.517 229.631 166.89H220.201C220.275 167.876 220.641 168.667 221.298 169.265C221.955 169.862 222.762 170.161 223.717 170.161C225.091 170.161 226.062 169.586 226.629 168.436H229.384C229.011 169.571 228.332 170.504 227.346 171.236C226.375 171.953 225.166 172.311 223.717 172.311C222.538 172.311 221.477 172.05 220.537 171.527C219.611 170.989 218.879 170.243 218.341 169.287C217.819 168.316 217.557 167.196 217.557 165.927C217.557 164.658 217.811 163.545 218.319 162.589C218.842 161.619 219.566 160.872 220.492 160.349C221.432 159.827 222.508 159.565 223.717 159.565C224.882 159.565 225.92 159.819 226.831 160.327C227.742 160.835 228.451 161.552 228.959 162.477C229.467 163.388 229.72 164.441 229.72 165.636ZM227.055 164.829C227.04 163.889 226.704 163.134 226.047 162.567C225.39 162 224.576 161.716 223.605 161.716C222.724 161.716 221.97 162 221.343 162.567C220.716 163.12 220.342 163.874 220.223 164.829H227.055Z" fill="#016000"/>
<g filter="url(#filter0_di_3140_11008)">
<path d="M139.78 24.2219C216.977 5.87394 294.432 53.5807 312.78 130.778C331.127 207.975 283.421 285.43 206.223 303.778C129.026 322.126 51.5713 274.419 33.2234 197.222C14.8754 120.025 62.5822 42.5699 139.78 24.2219ZM195.847 260.12C248.933 247.503 281.739 194.24 269.121 141.155C256.504 88.0689 203.242 55.2628 150.156 67.88C97.0704 80.4972 64.2642 133.76 76.8814 186.845C89.4986 239.931 142.761 272.737 195.847 260.12Z" fill="#D1F9B8"/>
</g>
<path d="M143.093 38.1648C141.263 30.4644 146.02 22.6625 153.865 21.6082C173.38 18.9855 193.279 20.3958 212.315 25.8116C231.352 31.2275 249.014 40.5031 264.225 53.0053C270.34 58.0309 270.278 67.1685 264.668 72.7524L253.179 84.1893C247.569 89.7732 238.547 89.6538 232.211 84.9103C222.582 77.7013 211.683 72.2867 200.036 68.9731C188.389 65.6596 176.272 64.5265 164.29 65.5871C156.406 66.285 148.672 61.6375 146.842 53.937L143.093 38.1648Z" fill="#028000"/>
<defs>
<filter id="filter0_di_3140_11008" x="25.2969" y="20.2969" width="295.41" height="295.406" filterUnits="userSpaceOnUse" color-interpolation-filters="sRGB">
<feFlood flood-opacity="0" result="BackgroundImageFix"/>
<feColorMatrix in="SourceAlpha" type="matrix" values="0 0 0 0 0 0 0 0 0 0 0 0 0 0 0 0 0 0 127 0" result="hardAlpha"/>
<feOffset dy="4"/>
<feGaussianBlur stdDeviation="2"/>
<feComposite in2="hardAlpha" operator="out"/>
<feColorMatrix type="matrix" values="0 0 0 0 0.00784314 0 0 0 0 0.501961 0 0 0 0 0 0 0 0 0.27 0"/>
<feBlend mode="normal" in2="BackgroundImageFix" result="effect1_dropShadow_3140_11008"/>
<feBlend mode="normal" in="SourceGraphic" in2="effect1_dropShadow_3140_11008" result="shape"/>
<feColorMatrix in="SourceAlpha" type="matrix" values="0 0 0 0 0 0 0 0 0 0 0 0 0 0 0 0 0 0 127 0" result="hardAlpha"/>
<feOffset dy="4"/>
<feGaussianBlur stdDeviation="2"/>
<feComposite in2="hardAlpha" operator="arithmetic" k2="-1" k3="1"/>
<feColorMatrix type="matrix" values="0 0 0 0 0.803922 0 0 0 0 0.235294 0 0 0 0 0.403922 0 0 0 0.03 0"/>
<feBlend mode="normal" in2="shape" result="effect2_innerShadow_3140_11008"/>
</filter>
</defs>
</svg>
