<svg width="20" height="20" viewBox="0 0 20 20" fill="none" xmlns="http://www.w3.org/2000/svg">
<path d="M9.5688 0.866514C9.70906 0.47756 10.2591 0.47756 10.3994 0.866514L12.5954 6.95636C12.6568 7.12656 12.8158 7.24208 12.9966 7.24785L19.467 7.45452C19.8803 7.46772 20.0502 7.99088 19.7237 8.24446L14.6105 12.2149C14.4676 12.3258 14.4069 12.5127 14.4572 12.6865L16.2602 18.9041C16.3753 19.3012 15.9303 19.6245 15.5882 19.3923L10.232 15.7563C10.0824 15.6547 9.88583 15.6547 9.73614 15.7563L4.38 19.3923C4.03791 19.6245 3.59289 19.3012 3.70804 18.9041L5.51095 12.6865C5.56133 12.5127 5.5006 12.3258 5.3577 12.2149L0.244515 8.24446C-0.0820597 7.99088 0.0879228 7.46772 0.501182 7.45452L6.97158 7.24785C7.15241 7.24208 7.31141 7.12656 7.37278 6.95636L9.5688 0.866514Z" fill="#FDD246"/>
</svg>
