<svg width="9" height="9" viewBox="0 0 9 9" fill="none" xmlns="http://www.w3.org/2000/svg">
<path d="M0.761913 8.91639C0.761913 8.91639 0.0351562 8.91639 0.0351562 8.18964C0.0351562 7.46288 0.761913 5.28261 4.3957 5.28261C8.02948 5.28261 8.75624 7.46288 8.75624 8.18964C8.75624 8.91639 8.02948 8.91639 8.02948 8.91639H0.761913ZM4.3957 4.55585C4.97394 4.55585 5.5285 4.32615 5.93738 3.91727C6.34626 3.50839 6.57597 2.95383 6.57597 2.37558C6.57597 1.79734 6.34626 1.24278 5.93738 0.833899C5.5285 0.425019 4.97394 0.195313 4.3957 0.195312C3.81745 0.195313 3.26289 0.425019 2.85401 0.833899C2.44513 1.24278 2.21543 1.79734 2.21543 2.37558C2.21543 2.95383 2.44513 3.50839 2.85401 3.91727C3.26289 4.32615 3.81745 4.55585 4.3957 4.55585Z" fill="#007A36"/>
</svg>
