<svg width="18" height="19" viewBox="0 0 18 19" fill="none" xmlns="http://www.w3.org/2000/svg">
<path d="M8.78319 2.28516C4.77586 2.28516 1.51562 5.54539 1.51562 9.55272C1.51562 13.5601 4.77586 16.8203 8.78319 16.8203C12.7905 16.8203 16.0508 13.5601 16.0508 9.55272C16.0508 5.54539 12.7905 2.28516 8.78319 2.28516ZM8.78319 15.3668C5.57747 15.3668 2.96914 12.7584 2.96914 9.55272C2.96914 6.347 5.57747 3.73867 8.78319 3.73867C11.9889 3.73867 14.5972 6.347 14.5972 9.55272C14.5972 12.7584 11.9889 15.3668 8.78319 15.3668Z" fill="#007A36"/>
<path d="M9.51211 5.91797H8.05859V9.85263L10.4518 12.2458L11.4794 11.2182L9.51211 9.25087V5.91797Z" fill="#007A36"/>
</svg>
